<svg width="345" height="280" viewBox="0 0 345 280" fill="none" xmlns="http://www.w3.org/2000/svg">
<path fill-rule="evenodd" clip-rule="evenodd" d="M182.73 104.28H178.509L173.932 111.878H188.252L180.081 125.439H182.73C184.12 125.439 185.495 125.166 186.779 124.634C188.062 124.102 189.229 123.323 190.211 122.341C191.194 121.358 191.973 120.192 192.505 118.908C193.036 117.625 193.31 116.249 193.31 114.86C193.31 113.47 193.036 112.095 192.505 110.811C191.973 109.527 191.194 108.361 190.211 107.379C189.229 106.396 188.062 105.617 186.779 105.085C185.495 104.554 184.12 104.28 182.73 104.28ZM166.961 111.878L171.539 104.28H144.501L141.039 98.3164H182.699C187.087 98.3164 191.295 100.059 194.397 103.162C197.5 106.264 199.243 110.472 199.243 114.86C199.243 119.247 197.5 123.455 194.397 126.558C191.295 129.66 187.087 131.403 182.699 131.403H176.457L168.185 145.127L164.77 139.241L169.54 131.388H160.246L156.784 125.424H173.126L177.704 117.826H152.378L148.908 111.878H166.961ZM144.633 176.022C144.579 176.087 144.512 176.14 144.436 176.176C144.359 176.212 144.276 176.231 144.192 176.231H133.991L135.037 172.622H140.939C141.256 172.622 141.458 172.707 141.543 172.87C141.638 173.07 141.667 173.295 141.628 173.513H142.007L143.766 167.464H143.386C143.278 167.706 143.122 167.925 142.929 168.107C142.711 168.284 142.435 168.372 142.155 168.354H136.261L137.198 165.14H147.367C147.437 165.131 147.509 165.147 147.568 165.187C147.626 165.228 147.668 165.288 147.685 165.357C147.723 165.647 147.702 165.943 147.623 166.224H148.002L149.962 159.486H149.582C149.479 159.796 149.33 160.088 149.141 160.354C149.088 160.421 149.021 160.475 148.945 160.513C148.868 160.55 148.784 160.57 148.699 160.571H132.047L131.831 161.182C132.466 161.268 133.232 161.957 133.209 162.499L128.368 179.298C128.097 180.15 126.448 180.289 126.37 180.289L126.192 180.948H142.821C142.884 180.94 142.948 180.946 143.008 180.966C143.068 180.986 143.123 181.02 143.169 181.064C143.231 181.141 143.231 181.351 143.169 181.684H143.549L145.469 175.054H145.09C144.982 175.392 144.826 175.713 144.625 176.006L144.633 176.022ZM129.698 161.86C129.786 161.806 129.862 161.734 129.918 161.647L130.267 161.763L125.867 168.16L125.666 167.889C125.705 167.812 125.751 167.719 125.782 167.634C125.813 167.549 125.852 167.432 125.891 167.309C125.918 167.196 125.913 167.077 125.878 166.967C125.842 166.856 125.777 166.757 125.689 166.681C125.442 166.445 125.153 166.256 124.837 166.123C124.408 165.938 123.962 165.795 123.505 165.698C122.956 165.576 122.395 165.516 121.832 165.519C121.204 165.53 120.579 165.621 119.973 165.79C119.275 165.982 118.611 166.282 118.006 166.681C117.332 167.125 116.739 167.684 116.256 168.331C115.696 169.079 115.281 169.925 115.032 170.825C114.766 171.63 114.689 172.486 114.808 173.326C114.894 173.941 115.164 174.516 115.582 174.976C115.982 175.391 116.48 175.697 117.03 175.867C117.58 176.047 118.156 176.138 118.734 176.138C119.141 176.118 119.546 176.061 119.943 175.967C120.526 175.845 121.101 175.682 121.662 175.479C122.215 175.293 122.752 175.06 123.265 174.782C123.642 174.632 123.945 174.34 124.109 173.969C124.134 173.867 124.134 173.761 124.109 173.659C124.104 173.569 124.104 173.479 124.109 173.388L124.497 173.117L125.62 179.22L125.201 179.491C125.201 179.36 125.17 179.244 125.116 179.244C125.052 179.2 124.976 179.179 124.899 179.182C124.587 179.241 124.286 179.351 124.009 179.507C123.443 179.775 122.861 180.008 122.266 180.204C121.477 180.473 120.673 180.696 119.857 180.87C118.891 181.065 117.908 181.161 116.922 181.157C115.829 181.164 114.746 180.958 113.731 180.552C112.754 180.164 111.908 179.506 111.291 178.655C110.617 177.689 110.204 176.566 110.091 175.394C109.946 173.858 110.115 172.309 110.587 170.84C111.041 169.213 111.767 167.673 112.732 166.286C113.593 165.05 114.638 163.954 115.83 163.033C116.909 162.2 118.111 161.539 119.393 161.074C120.531 160.654 121.734 160.434 122.948 160.423C123.89 160.406 124.832 160.484 125.759 160.656C126.412 160.79 127.051 160.979 127.672 161.221C128.152 161.43 128.532 161.6 128.787 161.748C128.975 161.864 129.187 161.935 129.407 161.957C129.51 161.947 129.609 161.914 129.698 161.86ZM88.8227 168.828C88.1927 169.22 87.4572 169.409 86.716 169.37H81.8986L83.192 164.909H88.0094C88.6539 164.831 89.3027 165.012 89.814 165.412C89.9778 165.647 90.0769 165.921 90.1014 166.207C90.1258 166.492 90.0748 166.779 89.9534 167.038C89.7965 167.746 89.3964 168.377 88.8227 168.82V168.828ZM91.5024 171.554C92.1851 170.965 92.7706 170.273 93.2373 169.501C93.7083 168.732 94.0755 167.904 94.3294 167.038C94.5722 166.241 94.6847 165.409 94.6624 164.576C94.6559 163.853 94.4724 163.143 94.128 162.508C93.7773 161.901 93.258 161.408 92.6332 161.09C91.8622 160.716 91.0115 160.535 90.1548 160.564H88.0946H68.4998L69.6305 162.98H79.033L78.212 165.807H69.9713L71.1021 168.223H77.4762L76.663 171.05H71.4041L72.5427 173.459H75.9582L74.262 179.314C73.9832 180.174 72.3413 180.313 72.2638 180.313L72.0779 180.972H79.4202L79.5596 180.507C79.1724 180.453 78.9478 180.368 78.8858 180.259C78.8304 180.115 78.8304 179.955 78.8858 179.81L80.7214 173.49H86.4295C87.3817 173.496 88.326 173.318 89.2099 172.963C90.0549 172.628 90.8397 172.157 91.5334 171.569L91.5024 171.554ZM97.3889 173.443L102.888 164.218L103.283 173.45L97.3889 173.443ZM108.387 180.274C108.289 179.973 108.237 179.66 108.232 179.344C108.178 178.361 108.123 177.245 108.077 176.006C108.045 175.149 108.002 174.278 107.958 173.389L107.957 173.388L107.957 173.388L107.957 173.388L107.957 173.388L107.957 173.387L107.957 173.387L107.957 173.387L107.957 173.387L107.957 173.386L107.957 173.384C107.938 172.989 107.918 172.59 107.899 172.188L107.878 171.753L107.878 171.753C107.823 170.597 107.77 169.469 107.728 168.354C107.682 167.099 107.643 165.976 107.612 164.977L107.592 164.315C107.571 163.618 107.553 163.035 107.535 162.553C107.516 162.035 107.528 161.723 107.533 161.6L107.534 161.572C107.535 161.561 107.535 161.552 107.535 161.546C107.551 161.466 107.583 161.391 107.63 161.324C107.676 161.258 107.736 161.201 107.806 161.159C107.952 161.106 108.102 161.068 108.255 161.043L108.387 160.578H98.6048L98.3802 161.182C99.1547 161.283 100.014 162.15 99.6969 162.731L98.7907 164.28L97.1023 167.092C96.4672 168.124 95.8218 169.196 95.1661 170.306C94.5103 171.416 93.8597 172.495 93.2143 173.543L91.4562 176.432C91.3305 176.639 91.2105 176.836 91.0961 177.023C90.7314 177.62 90.424 178.124 90.1705 178.578C89.8698 179.116 89.6701 179.434 89.5772 179.581L89.5509 179.623C89.0355 180.021 88.4118 180.253 87.7618 180.289L87.5759 180.948H93.9656L94.0972 180.483C93.8649 180.483 93.7255 180.483 93.6635 180.382C93.6391 180.338 93.6263 180.289 93.6263 180.239C93.6263 180.189 93.6391 180.139 93.6635 180.096C93.6944 180.006 93.736 179.92 93.7874 179.84L94.105 179.282C94.2547 179.019 94.4561 178.67 94.7091 178.237L95.7159 176.525H103.221C103.204 176.77 103.204 177.016 103.221 177.261V178.407V179.491C103.232 179.664 103.232 179.838 103.221 180.01C103.136 180.297 102.896 180.452 102.485 180.475L102.346 180.94H108.596L108.728 180.475C108.646 180.481 108.564 180.462 108.494 180.421C108.423 180.379 108.367 180.317 108.333 180.243L108.387 180.274ZM168.318 179.794C168.259 179.938 168.259 180.1 168.318 180.244V180.236C168.38 180.352 168.604 180.429 168.992 180.484L168.852 180.948H162.509L162.649 180.484C162.938 180.476 163.22 180.388 163.462 180.228C163.595 180.11 163.691 179.957 163.741 179.787L167.907 165.528L167.869 165.451L157.8 180.484L156.677 165.311H156.607L152.402 179.802C152.346 179.947 152.346 180.107 152.402 180.251C152.464 180.368 152.688 180.453 153.076 180.499L152.936 180.964H146.554L146.733 180.306C146.81 180.306 148.436 180.166 148.723 179.322L153.602 162.508C153.626 161.958 152.867 161.276 152.224 161.183L152.441 160.571H161.564L161.433 161.036C161.216 161.026 161.003 161.089 160.827 161.216C160.651 161.342 160.524 161.525 160.464 161.733L160.464 161.763V161.763V161.763V161.764C160.462 161.837 160.458 162.026 160.464 162.353C160.472 162.748 160.495 163.228 160.534 163.793L160.558 164.141C160.589 164.608 160.623 165.103 160.666 165.629C160.71 166.17 160.75 166.69 160.788 167.198L160.813 167.526C160.831 167.761 160.849 167.984 160.866 168.196L160.866 168.197C160.893 168.538 160.918 168.851 160.937 169.137C160.952 169.368 160.972 169.561 160.987 169.716L160.987 169.717L160.987 169.718L160.987 169.718C161.003 169.873 161.014 169.989 161.014 170.067C161.657 169.091 162.316 168.13 162.958 167.201C163.165 166.903 163.367 166.612 163.563 166.329L163.564 166.329C163.98 165.729 164.372 165.166 164.724 164.645C164.907 164.375 165.085 164.13 165.251 163.901C165.555 163.481 165.822 163.113 166.018 162.732C166.32 162.144 165.429 161.284 164.701 161.183L164.918 160.571H174.785L174.646 161.036C174.356 161.043 174.074 161.132 173.832 161.292C173.698 161.406 173.603 161.561 173.561 161.733L168.318 179.794ZM179.966 173.436L185.465 164.219L185.86 173.443L179.966 173.436ZM190.964 180.267C190.866 179.967 190.814 179.653 190.809 179.337C190.755 178.354 190.701 177.246 190.654 175.999C190.622 175.138 190.579 174.269 190.535 173.383C190.515 172.986 190.495 172.586 190.476 172.181L190.456 171.746L190.455 171.744C190.401 170.589 190.347 169.462 190.306 168.347C190.259 167.093 190.221 165.97 190.19 164.978C190.181 164.702 190.173 164.44 190.165 164.192L190.165 164.189L190.165 164.181C190.146 163.543 190.129 162.999 190.112 162.554C190.093 162.036 190.106 161.713 190.111 161.594L190.112 161.563L190.112 161.547C190.126 161.467 190.158 161.39 190.205 161.323C190.251 161.256 190.312 161.201 190.383 161.16C190.527 161.1 190.678 161.061 190.832 161.044L190.964 160.571H181.213L181.035 161.199C181.763 161.299 182.646 162.151 182.352 162.748L181.43 164.297C181.042 164.956 180.604 165.684 180.126 166.481L179.749 167.108C179.485 167.549 179.216 167.996 178.944 168.448L178.941 168.453C178.569 169.07 178.192 169.696 177.813 170.33C177.155 171.43 176.504 172.506 175.861 173.56L174.064 176.402C173.949 176.592 173.839 176.772 173.733 176.945C173.356 177.564 173.039 178.083 172.779 178.555C172.529 179.009 172.349 179.296 172.242 179.467L172.241 179.468L172.201 179.532C172.184 179.559 172.17 179.582 172.159 179.601C171.643 180.004 171.016 180.239 170.362 180.275L170.177 180.933H176.574L176.706 180.468C176.555 180.488 176.401 180.456 176.272 180.375C176.247 180.33 176.235 180.28 176.235 180.228C176.235 180.177 176.247 180.126 176.272 180.081C176.303 179.994 176.345 179.911 176.396 179.833L176.713 179.268L177.317 178.222L178.317 176.518H185.829C185.816 176.763 185.816 177.009 185.829 177.254V177.254C185.829 177.618 185.829 178.029 185.868 178.4C185.894 178.654 185.885 178.923 185.876 179.166C185.872 179.279 185.868 179.387 185.868 179.485C185.879 179.66 185.879 179.836 185.868 180.011C185.783 180.29 185.535 180.445 185.093 180.476L184.954 180.941H191.196L191.336 180.476C191.254 180.483 191.172 180.465 191.101 180.423C191.03 180.381 190.974 180.319 190.941 180.244L190.964 180.267ZM209.45 168.107L212.486 179.926L212.455 179.957C212.533 180.266 212.641 180.452 212.773 180.499C212.94 180.557 213.116 180.583 213.292 180.576L213.152 181.041H205.895L206.035 180.576C206.189 180.579 206.344 180.559 206.492 180.514C206.608 180.475 206.709 180.328 206.778 180.073C206.79 179.838 206.764 179.602 206.701 179.376C206.623 178.988 206.515 178.516 206.383 177.943L206.37 177.883C206.242 177.327 206.106 176.735 205.934 176.115C205.756 175.472 205.593 174.853 205.454 174.256C205.315 173.66 205.175 173.149 205.051 172.707C205.005 172.543 204.959 172.4 204.92 172.276L204.919 172.275L204.919 172.275L204.919 172.274C204.852 172.065 204.803 171.914 204.803 171.817L200.706 175.224L199.359 179.871C199.303 180.016 199.303 180.176 199.359 180.321C199.421 180.434 199.645 180.519 200.032 180.576L199.901 180.987H192.574L192.752 180.328C192.83 180.328 194.464 180.189 194.75 179.345L199.614 162.553C199.645 162.011 198.878 161.322 198.236 161.237L198.452 160.625H205.818L205.686 161.09C205.395 161.101 205.112 161.189 204.865 161.345C204.737 161.466 204.644 161.618 204.594 161.787L202.565 168.757H202.79C203.634 167.983 204.548 167.208 205.508 166.434C206.469 165.628 207.354 164.885 208.165 164.203C208.975 163.522 209.657 162.941 210.209 162.461C210.54 162.216 210.832 161.924 211.077 161.593C211.185 161.361 211.17 161.183 211.077 161.183C210.954 161.137 210.827 161.106 210.697 161.09L210.829 160.625H218.876L218.744 161.09C218.555 161.111 218.369 161.15 218.187 161.206C218.027 161.263 217.876 161.341 217.738 161.438L217.25 161.81L216.607 162.329L209.45 168.107ZM232.872 176.022C232.817 176.087 232.748 176.139 232.67 176.175C232.593 176.211 232.508 176.23 232.423 176.231H222.254L223.299 172.622H229.193C229.511 172.622 229.712 172.707 229.797 172.87C229.897 173.069 229.927 173.295 229.883 173.513H230.262L232.02 167.464H231.641C231.535 167.708 231.38 167.927 231.184 168.107C230.967 168.285 230.69 168.374 230.409 168.354H224.515L225.445 165.14H235.622C235.692 165.134 235.762 165.152 235.819 165.192C235.877 165.231 235.92 165.29 235.939 165.357C235.973 165.648 235.952 165.942 235.877 166.224H236.257L238.209 159.486H237.829C237.726 159.796 237.577 160.088 237.388 160.354C237.335 160.421 237.269 160.476 237.192 160.513C237.115 160.551 237.031 160.571 236.946 160.571H220.31L220.093 161.182C220.829 161.283 221.727 162.151 221.41 162.731L216.608 179.298C216.329 180.15 214.687 180.289 214.609 180.289L214.424 180.948H231.052C231.115 180.94 231.179 180.946 231.24 180.966C231.3 180.986 231.355 181.02 231.401 181.064C231.463 181.141 231.47 181.351 231.401 181.684H231.78L233.709 175.054H233.329C233.221 175.392 233.065 175.713 232.864 176.006L232.872 176.022ZM251.336 168.54C251.791 168.144 252.121 167.625 252.289 167.045C252.375 166.805 252.412 166.549 252.397 166.293C252.383 166.038 252.317 165.788 252.203 165.558C252.018 165.132 251.398 164.916 250.469 164.916H245.148L243.908 169.175H249.229C249.986 169.236 250.739 169.009 251.336 168.54ZM257.013 162.182C257.762 163.225 257.819 164.846 257.183 167.045L257.16 167.069C256.751 168.677 255.882 170.13 254.659 171.251C253.539 172.245 252.218 172.984 250.786 173.42L252.66 179.856C252.777 180.32 253.017 180.553 253.373 180.553L253.241 181.018H246.642L246.782 180.553C246.989 180.56 247.193 180.494 247.357 180.366C247.521 180.239 247.635 180.058 247.68 179.856C247.677 179.671 247.646 179.489 247.587 179.314C247.559 179.21 247.529 179.098 247.497 178.979C247.432 178.74 247.36 178.472 247.278 178.183C247.196 177.897 247.101 177.595 247.002 177.279L247.001 177.278C246.95 177.114 246.897 176.945 246.844 176.773C246.749 176.464 246.651 176.161 246.555 175.866L246.555 175.864C246.495 175.678 246.436 175.496 246.379 175.317C246.232 174.852 246.108 174.442 246 174.078C245.968 173.973 245.938 173.878 245.912 173.794C245.845 173.584 245.798 173.436 245.798 173.342H242.7L240.81 179.848C240.781 179.919 240.765 179.995 240.765 180.073C240.765 180.15 240.781 180.226 240.81 180.297C240.872 180.413 241.089 180.499 241.477 180.545L241.345 181.018H234.003L234.188 180.359C234.266 180.359 235.9 180.22 236.179 179.376L241.058 162.569C241.082 162.019 240.323 161.337 239.68 161.244L239.897 160.633H252.366C254.69 160.633 256.239 161.128 257.013 162.182ZM272.527 169.717C272.102 169.253 271.571 168.899 270.978 168.687C270.334 168.451 269.67 168.27 268.995 168.145C268.298 168.013 267.609 167.92 266.928 167.851C266.246 167.781 265.657 167.703 265.138 167.603C264.711 167.533 264.306 167.366 263.953 167.115C263.813 166.996 263.716 166.836 263.675 166.657C263.635 166.478 263.654 166.291 263.729 166.123C263.932 165.592 264.32 165.152 264.821 164.884C265.664 164.441 266.613 164.24 267.563 164.303C268.226 164.306 268.887 164.371 269.538 164.497C270.136 164.611 270.724 164.775 271.296 164.985C271.729 165.137 272.135 165.36 272.496 165.643C272.798 165.891 272.907 166.131 272.845 166.364L272.721 166.789L272.992 167.022L276.5 161.6L276.237 161.445C276.105 161.592 275.963 161.729 275.811 161.856C275.669 161.97 275.49 162.031 275.308 162.026C275.008 162 274.716 161.916 274.448 161.778C274.061 161.608 273.581 161.422 273 161.213C272.331 160.981 271.648 160.792 270.955 160.648C270.096 160.476 269.221 160.393 268.345 160.4C266.358 160.39 264.422 161.029 262.83 162.22C262.05 162.799 261.367 163.5 260.809 164.296C260.239 165.109 259.809 166.012 259.539 166.968C259.168 167.908 259.168 168.955 259.539 169.895C259.91 170.606 260.503 171.177 261.227 171.522C262.039 171.912 262.906 172.173 263.799 172.296L266.486 172.683C267.177 172.767 267.857 172.922 268.515 173.148C269.026 173.342 269.22 173.667 269.088 174.139C268.974 174.552 268.777 174.937 268.511 175.272C268.245 175.607 267.915 175.886 267.539 176.091C266.514 176.6 265.375 176.834 264.232 176.773C263.525 176.776 262.82 176.676 262.141 176.478C261.547 176.312 260.977 176.07 260.445 175.758C260.03 175.524 259.66 175.217 259.353 174.852C259.24 174.739 259.157 174.6 259.109 174.448C259.062 174.295 259.053 174.134 259.082 173.977C259.155 173.697 259.254 173.425 259.376 173.164L259.152 172.97L255.054 179.871L255.364 179.979L255.736 179.638C255.779 179.591 255.832 179.552 255.89 179.526C255.949 179.499 256.012 179.485 256.077 179.484C256.329 179.512 256.569 179.605 256.774 179.755C257.176 179.986 257.595 180.185 258.029 180.351C258.681 180.608 259.359 180.797 260.05 180.916C261.04 181.086 262.043 181.163 263.047 181.149C264.402 181.175 265.752 180.979 267.044 180.568C268.099 180.23 269.086 179.706 269.956 179.019C270.732 178.395 271.392 177.64 271.908 176.788C272.38 175.999 272.752 175.153 273.015 174.271C273.317 173.38 273.417 172.433 273.309 171.498C273.229 170.842 272.96 170.224 272.535 169.717H272.527ZM185.217 145.127V142.114H186.294V141.51H183.358V142.114H184.442V145.127H185.217ZM191.041 141.51V145.127H190.321V142.036L190.306 142.029L189.299 145.127H188.656L187.695 142.029L187.688 142.036V145.127H186.96V141.51H188.23L188.989 144.143H188.997L189.818 141.51H191.041Z" fill="#D9D9D9"/>
</svg>
