<svg width="660" height="348" viewBox="0 0 660 348" fill="none" xmlns="http://www.w3.org/2000/svg">
<g clip-path="url(#clip0_336_4472)">
<path fill-rule="evenodd" clip-rule="evenodd" d="M348.651 157.852L348.944 162.594H351.444V150.034H338.931V152.037H348.212C348.016 158.182 343.75 160.853 338.353 160.853C331.221 160.853 326.955 156.77 326.955 150.034C326.955 143.297 331.172 139.147 338.288 139.147C342.855 139.147 346.681 140.99 348.057 144.371H351.509C349.758 139.586 344.491 137 338.361 137C329.137 137 323.544 141.995 323.544 150.034C323.544 158.072 329.113 163 338.068 163C342.757 163 346.681 161.411 348.651 157.852ZM359.992 137.406H356.735V162.594H377.609V160.557H359.992V137.406ZM377.886 150.034C377.886 142.038 383.772 137 393.289 137C402.806 137 408.692 142.072 408.692 150.034C408.692 157.996 402.806 163 393.289 163C383.772 163 377.886 158.038 377.886 150.034ZM405.305 150.034C405.305 143.331 400.795 139.147 393.289 139.147C385.783 139.147 381.265 143.297 381.265 150.034C381.265 156.77 385.783 160.853 393.289 160.853C400.795 160.853 405.289 156.703 405.289 150.034H405.305ZM424.29 137.406H413.251V162.594H425.959C432.782 162.594 437.047 160.042 437.047 155.629C437.047 152.553 434.548 150.211 429.786 149.366C433.368 148.479 435.232 146.458 435.232 143.923C435.232 139.941 430.917 137.406 424.29 137.406ZM416.507 148.631V139.443H424.209C428.874 139.443 431.813 141.336 431.813 144.075C431.813 146.813 428.923 148.631 424.111 148.631H416.507ZM416.507 160.557V150.625H425.047C430.298 150.625 433.628 152.595 433.628 155.596C433.628 158.596 430.64 160.557 425.878 160.557H416.507ZM461.284 156.001H444.407L440.923 162.594H437.666L451.009 137.406H454.893L468.285 162.594H464.801L461.284 156.001ZM445.482 153.964H460.201L453.777 141.818L452.849 139.891L451.962 141.818L445.482 153.964ZM474.399 137.406H471.142V162.594H491.959V160.557H474.399V137.406ZM291.142 142.266V147.346H312.944V152.553H291.142V157.497H315.395V162.577H283.807V137.194H315.395V142.266H291.142ZM210.301 137.186H220.201L233.894 162.544H226.567L222.928 155.782H207.582L203.951 162.544H196.624L210.301 137.186ZM215.251 141.615L210.285 150.837H220.209L215.251 141.615ZM175.335 142.266V147.346H197.145V152.553H175.335V162.577H168V137.194H199.588V142.266H175.335ZM280.136 162.577V137.194H268.176L258.464 157.371L248.744 137.194H236.784V162.577H244.119V141.294L254.369 162.577H262.551L272.801 141.294V162.577H280.136Z" fill="#6B1FFF"/>
</g>
<path d="M206.665 304.031H218.173V307.289H210.649V310.887H217.434V314.133H210.649V321H206.665V304.031ZM216.585 321L222.328 304.031H227.613L233.367 321H229.078L225.046 308.227H224.906L220.875 321H216.585ZM229.546 314.309V317.367H220.347V314.309H229.546ZM239.385 304.031L243.78 314.707H243.979L248.35 304.031H253.307V321H249.416V310.441H249.276L245.127 320.895H242.619L238.483 310.406H238.342V321H234.451V304.031H239.385ZM255.177 304.031H266.931V307.289H259.161V310.887H266.321V314.133H259.161V317.742H266.931V321H255.177V304.031ZM284.58 309.562C284.448 309.094 284.233 308.691 283.936 308.355C283.647 308.012 283.284 307.75 282.846 307.57C282.416 307.391 281.924 307.301 281.37 307.301C280.534 307.301 279.811 307.504 279.202 307.91C278.592 308.316 278.12 308.91 277.784 309.691C277.455 310.473 277.291 311.406 277.291 312.492C277.291 313.602 277.452 314.547 277.772 315.328C278.1 316.102 278.569 316.695 279.178 317.109C279.787 317.516 280.518 317.723 281.37 317.73C282.12 317.73 282.764 317.602 283.303 317.344C283.85 317.086 284.26 316.723 284.534 316.254C284.807 315.785 284.948 315.234 284.955 314.602L285.705 314.695H281.534V311.754H288.799V313.98C288.799 315.465 288.483 316.754 287.85 317.848C287.225 318.941 286.346 319.781 285.213 320.367C284.088 320.945 282.799 321.234 281.346 321.234C279.737 321.234 278.319 320.883 277.092 320.18C275.866 319.477 274.912 318.469 274.233 317.156C273.553 315.844 273.213 314.305 273.213 312.539C273.213 310.742 273.565 309.184 274.268 307.863C274.979 306.535 275.944 305.527 277.162 304.84C278.389 304.145 279.76 303.797 281.276 303.797C282.565 303.797 283.745 304.039 284.815 304.523C285.885 305.008 286.752 305.691 287.416 306.574C288.088 307.449 288.495 308.445 288.635 309.562H284.58ZM290.47 304.031H294.454V317.742H301.567V321H290.47V304.031ZM318.191 312.516C318.191 314.336 317.84 315.902 317.137 317.215C316.433 318.52 315.472 319.516 314.254 320.203C313.035 320.891 311.656 321.234 310.117 321.234C308.578 321.234 307.199 320.891 305.98 320.203C304.762 319.516 303.801 318.516 303.097 317.203C302.402 315.891 302.055 314.328 302.055 312.516C302.055 310.695 302.402 309.129 303.097 307.816C303.801 306.496 304.762 305.496 305.98 304.816C307.199 304.137 308.578 303.797 310.117 303.797C311.656 303.797 313.035 304.137 314.254 304.816C315.472 305.496 316.433 306.496 317.137 307.816C317.84 309.129 318.191 310.695 318.191 312.516ZM314.113 312.516C314.113 311.398 313.953 310.453 313.633 309.68C313.32 308.898 312.863 308.309 312.262 307.91C311.66 307.504 310.945 307.301 310.117 307.301C309.289 307.301 308.578 307.504 307.984 307.91C307.39 308.309 306.933 308.898 306.613 309.68C306.293 310.453 306.133 311.398 306.133 312.516C306.133 313.633 306.293 314.578 306.613 315.352C306.933 316.117 307.39 316.703 307.984 317.109C308.578 317.516 309.289 317.723 310.117 317.73C310.945 317.723 311.66 317.516 312.262 317.109C312.863 316.703 313.32 316.117 313.633 315.352C313.953 314.578 314.113 313.633 314.113 312.516ZM319.827 304.031H326.846C328.081 304.031 329.127 304.211 329.987 304.57C330.854 304.922 331.506 305.422 331.944 306.07C332.381 306.719 332.6 307.473 332.6 308.332C332.6 308.973 332.467 309.547 332.202 310.055C331.936 310.555 331.565 310.973 331.088 311.309C330.612 311.645 330.065 311.875 329.448 312V312.164C330.127 312.195 330.76 312.383 331.346 312.727C331.94 313.07 332.409 313.547 332.752 314.156C333.096 314.766 333.268 315.469 333.268 316.266C333.26 317.188 333.022 318.004 332.553 318.715C332.092 319.418 331.42 319.977 330.538 320.391C329.655 320.797 328.6 321 327.374 321H319.827V304.031ZM326.424 317.766C327.026 317.766 327.522 317.688 327.913 317.531C328.311 317.367 328.604 317.145 328.792 316.863C328.987 316.574 329.085 316.223 329.085 315.809C329.085 315.371 328.979 314.988 328.768 314.66C328.565 314.324 328.268 314.07 327.877 313.898C327.495 313.719 327.038 313.629 326.506 313.629H323.811V317.766H326.424ZM326.167 311.039C326.627 311.031 327.038 310.949 327.397 310.793C327.756 310.637 328.034 310.414 328.229 310.125C328.432 309.836 328.534 309.488 328.534 309.082C328.534 308.707 328.44 308.379 328.252 308.098C328.065 307.809 327.799 307.59 327.456 307.441C327.112 307.293 326.706 307.219 326.237 307.219H323.811V311.039H326.167ZM333.732 321L339.474 304.031H344.759L350.513 321H346.224L342.193 308.227H342.052L338.021 321H333.732ZM346.693 314.309V317.367H337.493V314.309H346.693ZM351.598 304.031H355.582V317.742H362.695V321H351.598V304.031ZM368.744 304.031H375.681C376.939 304.031 378.033 304.277 378.962 304.77C379.892 305.254 380.607 305.938 381.107 306.82C381.607 307.703 381.857 308.723 381.857 309.879C381.857 311.043 381.603 312.062 381.095 312.938C380.595 313.805 379.869 314.48 378.915 314.965C377.962 315.441 376.845 315.68 375.564 315.68H371.24V312.516H374.849C375.466 312.516 375.99 312.41 376.419 312.199C376.849 311.98 377.173 311.672 377.392 311.273C377.611 310.875 377.72 310.41 377.72 309.879C377.72 309.34 377.611 308.875 377.392 308.484C377.173 308.094 376.845 307.793 376.408 307.582C375.978 307.371 375.455 307.266 374.837 307.266H372.728V321H368.744V304.031ZM390.207 311.18H382.262V308.273H390.207V311.18ZM387.91 305.227V317.004C387.91 317.27 387.949 317.48 388.027 317.637C388.113 317.785 388.235 317.895 388.391 317.965C388.547 318.035 388.742 318.07 388.977 318.07C389.078 318.078 389.219 318.082 389.399 318.082C389.578 318.074 389.758 318.062 389.938 318.047L390.383 318.012V321.035C389.813 321.137 389.16 321.188 388.426 321.188C387.481 321.188 386.672 321.055 386 320.789C385.336 320.516 384.828 320.105 384.477 319.559C384.125 319.004 383.953 318.309 383.961 317.473V305.227H387.91ZM397.327 321.234C396.007 321.234 394.862 320.973 393.893 320.449C392.932 319.926 392.194 319.172 391.679 318.188C391.163 317.203 390.905 316.035 390.905 314.684C390.905 313.387 391.163 312.238 391.679 311.238C392.202 310.238 392.936 309.469 393.882 308.93C394.835 308.383 395.944 308.109 397.21 308.109C398.405 308.109 399.46 308.359 400.374 308.859C401.296 309.359 402.018 310.098 402.542 311.074C403.065 312.043 403.327 313.215 403.327 314.59V315.609H392.335V313.277H399.647C399.64 312.832 399.534 312.434 399.331 312.082C399.128 311.73 398.847 311.457 398.487 311.262C398.136 311.066 397.733 310.969 397.28 310.969C396.811 310.969 396.39 311.074 396.015 311.285C395.64 311.488 395.343 311.773 395.124 312.141C394.913 312.5 394.804 312.902 394.796 313.348V315.68C394.796 316.227 394.901 316.703 395.112 317.109C395.331 317.508 395.632 317.82 396.015 318.047C396.405 318.266 396.866 318.375 397.397 318.375C397.749 318.375 398.073 318.324 398.37 318.223C398.667 318.121 398.917 317.984 399.12 317.812C399.323 317.633 399.479 317.422 399.589 317.18H403.28C403.116 318 402.776 318.719 402.261 319.336C401.745 319.945 401.065 320.414 400.222 320.742C399.378 321.07 398.413 321.234 397.327 321.234ZM406.861 321.234C406.478 321.234 406.123 321.141 405.795 320.953C405.466 320.758 405.205 320.5 405.009 320.18C404.822 319.852 404.732 319.492 404.74 319.102C404.732 318.727 404.822 318.379 405.009 318.059C405.205 317.738 405.466 317.484 405.795 317.297C406.123 317.109 406.478 317.016 406.861 317.016C407.228 317.016 407.572 317.109 407.892 317.297C408.22 317.484 408.482 317.742 408.677 318.07C408.873 318.391 408.974 318.734 408.982 319.102C408.974 319.492 408.873 319.852 408.677 320.18C408.482 320.5 408.22 320.758 407.892 320.953C407.572 321.141 407.228 321.234 406.861 321.234ZM414.573 304.031H418.558V317.742H425.671V321H414.573V304.031ZM433.576 311.18H425.631V308.273H433.576V311.18ZM431.279 305.227V317.004C431.279 317.27 431.318 317.48 431.396 317.637C431.482 317.785 431.603 317.895 431.76 317.965C431.916 318.035 432.111 318.07 432.345 318.07C432.447 318.078 432.588 318.082 432.767 318.082C432.947 318.074 433.127 318.062 433.306 318.047L433.752 318.012V321.035C433.181 321.137 432.529 321.188 431.795 321.188C430.849 321.188 430.041 321.055 429.369 320.789C428.705 320.516 428.197 320.105 427.845 319.559C427.494 319.004 427.322 318.309 427.33 317.473V305.227H431.279ZM439.43 321.188C438.469 321.188 437.602 320.938 436.829 320.438C436.063 319.93 435.454 319.188 435 318.211C434.555 317.227 434.332 316.035 434.332 314.637C434.332 313.207 434.563 312 435.024 311.016C435.485 310.031 436.098 309.301 436.864 308.824C437.629 308.348 438.481 308.109 439.418 308.109C440.02 308.109 440.551 308.207 441.012 308.402C441.481 308.598 441.864 308.852 442.161 309.164C442.465 309.477 442.715 309.836 442.911 310.242C442.934 310.289 442.95 310.324 442.957 310.348C442.965 310.363 442.981 310.398 443.004 310.453H443.098V304.031H447.047V321H443.145V318.949H443.004L442.934 319.09C442.739 319.496 442.485 319.852 442.172 320.156C441.86 320.461 441.473 320.711 441.012 320.906C440.551 321.094 440.024 321.188 439.43 321.188ZM440.766 318.094C441.266 318.094 441.7 317.949 442.067 317.66C442.434 317.371 442.711 316.969 442.899 316.453C443.094 315.938 443.196 315.328 443.204 314.625C443.196 313.922 443.094 313.312 442.899 312.797C442.711 312.281 442.434 311.887 442.067 311.613C441.707 311.34 441.274 311.203 440.766 311.203C440.266 311.203 439.836 311.344 439.477 311.625C439.118 311.898 438.84 312.293 438.645 312.809C438.457 313.324 438.364 313.93 438.364 314.625C438.364 315.328 438.461 315.938 438.657 316.453C438.852 316.969 439.125 317.371 439.477 317.66C439.836 317.949 440.266 318.094 440.766 318.094ZM451.12 321.234C450.738 321.234 450.382 321.141 450.054 320.953C449.726 320.758 449.464 320.5 449.269 320.18C449.081 319.852 448.991 319.492 448.999 319.102C448.991 318.727 449.081 318.379 449.269 318.059C449.464 317.738 449.726 317.484 450.054 317.297C450.382 317.109 450.738 317.016 451.12 317.016C451.488 317.016 451.831 317.109 452.152 317.297C452.48 317.484 452.741 317.742 452.937 318.07C453.132 318.391 453.234 318.734 453.241 319.102C453.234 319.492 453.132 319.852 452.937 320.18C452.741 320.5 452.48 320.758 452.152 320.953C451.831 321.141 451.488 321.234 451.12 321.234Z" fill="#6B1FFF"/>
<defs>
<clipPath id="clip0_336_4472">
<rect width="324" height="26" fill="white" transform="translate(168 137)"/>
</clipPath>
</defs>
</svg>
