<svg width="330" height="350" viewBox="0 0 330 350" fill="none" xmlns="http://www.w3.org/2000/svg">
<path d="M165.706 101.696C166.225 101.684 166.742 101.627 167.251 101.526C167.787 101.422 168.314 101.277 168.827 101.091C169.362 100.894 169.882 100.657 170.382 100.382C170.898 100.098 171.39 99.7734 171.855 99.4114L172.085 99.2378C172.615 98.8264 173.104 98.3649 173.545 97.8596C173.95 97.386 174.306 96.872 174.607 96.3256C174.891 95.8141 175.117 95.2722 175.28 94.7101C175.434 94.1845 175.522 93.6419 175.542 93.0946C175.559 92.5826 175.643 92.0751 175.794 91.5854C175.95 91.0684 176.167 90.5714 176.438 90.1046C176.73 89.5984 177.073 89.1236 177.462 88.6875C177.886 88.2161 178.352 87.7844 178.854 87.3979C179.302 87.0527 179.776 86.7413 180.271 86.4661C180.759 86.1936 181.267 85.9568 181.79 85.7576C182.307 85.5577 182.837 85.3932 183.377 85.2652C183.908 85.139 184.448 85.0503 184.992 84.9995C185.566 84.9453 186.144 84.937 186.72 84.9747C187.282 85.0086 187.839 85.094 188.385 85.2297C188.915 85.3605 189.43 85.5457 189.922 85.7824C190.407 86.0165 190.863 86.3079 191.279 86.6504C191.913 87.1674 192.416 87.8264 192.749 88.5741C193.07 89.3111 193.214 90.113 193.17 90.9158C193.117 91.789 192.885 92.6417 192.487 93.4206C192.031 94.3156 191.421 95.1228 190.684 95.8048C190.16 96.2991 189.588 96.7394 188.977 97.1192C188.374 97.4987 187.739 97.8225 187.078 98.0864C186.429 98.3451 185.76 98.5489 185.077 98.6957C184.417 98.8355 183.746 98.9173 183.072 98.9402H182.771H182.474H182.18L181.886 98.9189L181.571 98.9012C181.464 98.9012 181.362 98.9012 181.255 98.9012H180.94H180.625C179.441 98.9429 178.27 99.1663 177.154 99.5637C176.595 99.7567 176.053 99.9936 175.532 100.272C175.009 100.555 174.51 100.881 174.04 101.246L173.807 101.427C172.888 102.133 172.095 102.99 171.462 103.96C170.883 104.849 170.475 105.838 170.258 106.876C170.05 107.87 170.059 108.897 170.283 109.887C170.524 110.916 171.01 111.871 171.699 112.672L171.869 112.881C172.227 113.302 172.634 113.679 173.081 114.004C173.543 114.338 174.039 114.622 174.561 114.851C175.108 115.087 175.676 115.27 176.258 115.396C176.873 115.532 177.499 115.611 178.128 115.634H178.482H178.836H179.19L179.545 115.609L179.863 115.588H180.186H180.504H180.823C181.456 115.609 182.086 115.69 182.704 115.828C183.963 116.102 185.156 116.618 186.217 117.348C186.77 117.73 187.282 118.168 187.744 118.656C188.709 119.67 189.436 120.888 189.869 122.22C190.3 123.549 190.439 124.955 190.276 126.343C190.109 127.795 189.636 129.194 188.888 130.449C187.713 132.405 185.968 133.954 183.887 134.888C183.266 135.165 182.621 135.384 181.96 135.544C181.312 135.699 180.652 135.795 179.987 135.831C179.335 135.866 178.68 135.842 178.032 135.76C177.44 135.687 176.856 135.561 176.286 135.384C175.163 135.045 174.109 134.506 173.176 133.794C172.713 133.437 172.284 133.039 171.894 132.603C171.035 131.646 170.379 130.525 169.965 129.307C169.551 128.089 169.388 126.8 169.486 125.518C169.544 124.704 169.701 123.899 169.953 123.123C170.184 122.408 170.34 121.67 170.417 120.923C170.488 120.223 170.478 119.516 170.385 118.819C170.297 118.159 170.126 117.514 169.875 116.898C169.629 116.3 169.3 115.74 168.898 115.233L168.728 115.021C168.065 114.186 167.216 113.519 166.248 113.072C165.779 112.855 165.287 112.689 164.782 112.576C164.271 112.462 163.75 112.398 163.227 112.385C162.691 112.371 162.155 112.407 161.626 112.491C161.079 112.579 160.54 112.713 160.015 112.892C159.47 113.084 158.941 113.321 158.435 113.6C157.905 113.891 157.398 114.223 156.919 114.592L156.682 114.78C156.12 115.216 155.602 115.706 155.134 116.243C154.672 116.773 154.261 117.344 153.905 117.951C153.194 119.159 152.713 120.489 152.488 121.872C152.38 122.542 152.208 123.199 151.975 123.835C151.727 124.505 151.419 125.152 151.054 125.766C150.287 127.066 149.282 128.21 148.093 129.139C147.591 129.53 147.057 129.877 146.495 130.177C145.976 130.454 145.432 130.683 144.87 130.86C144.35 131.023 143.814 131.133 143.272 131.186C142.767 131.239 142.257 131.233 141.753 131.169C141.24 131.108 140.739 130.976 140.262 130.779C139.8 130.59 139.368 130.334 138.98 130.021C138.584 129.707 138.238 129.335 137.952 128.919C137.648 128.481 137.404 128.005 137.226 127.502C136.931 126.641 136.799 125.733 136.837 124.823C136.875 123.867 137.05 122.921 137.357 122.014C138.013 120.088 139.148 118.361 140.655 116.994C141.146 116.545 141.676 116.139 142.238 115.782C142.755 115.452 143.302 115.169 143.871 114.939C144.401 114.725 144.952 114.563 145.514 114.457C146.042 114.357 146.579 114.316 147.115 114.333H147.353L147.586 114.355L147.816 114.387L148.047 114.426L148.295 114.468L148.55 114.5L148.805 114.525H149.063C149.565 114.542 150.068 114.513 150.565 114.436C151.088 114.353 151.602 114.225 152.102 114.054C152.629 113.873 153.139 113.649 153.629 113.384C154.141 113.108 154.629 112.789 155.088 112.431L155.325 112.25C156.247 111.537 157.052 110.684 157.709 109.721C158.305 108.857 158.752 107.899 159.03 106.887C159.28 105.991 159.341 105.054 159.211 104.134C159.088 103.289 158.746 102.492 158.219 101.82L158.091 101.661C157.837 101.34 157.538 101.057 157.202 100.821C156.875 100.584 156.517 100.39 156.14 100.244C155.743 100.093 155.331 99.9849 154.911 99.9215C154.465 99.8553 154.015 99.8304 153.565 99.8471H153.321L153.069 99.8648L152.821 99.8932L152.566 99.9286L152.339 99.9605L152.113 99.9853L151.89 100.003H151.667C151.248 100.019 150.829 99.9926 150.416 99.9251C150.033 99.8651 149.659 99.7605 149.301 99.6133C148.964 99.4731 148.647 99.2897 148.358 99.0677C148.075 98.8481 147.826 98.5878 147.618 98.2954C147.198 97.6838 146.96 96.9647 146.935 96.2229C146.912 95.4242 147.054 94.6294 147.353 93.8882C147.684 93.0507 148.144 92.2701 148.716 91.5748C149.644 90.4534 150.78 89.5232 152.063 88.8362C152.442 88.6344 152.834 88.4569 153.236 88.3048C153.621 88.1615 154.015 88.0432 154.415 87.9506C154.798 87.8573 155.188 87.7921 155.58 87.7557C155.927 87.7211 156.277 87.7128 156.625 87.7309C156.957 87.7491 157.286 87.7953 157.61 87.8691C157.919 87.9389 158.22 88.0398 158.509 88.1702C158.791 88.2964 159.056 88.4558 159.299 88.6449C159.673 88.9358 159.987 89.2968 160.224 89.7078C160.457 90.1088 160.615 90.5496 160.688 91.008C160.762 91.4988 160.762 91.998 160.688 92.4888C160.606 93.033 160.453 93.5641 160.234 94.0689C160.027 94.5547 159.873 95.0621 159.777 95.5816C159.685 96.0659 159.656 96.5602 159.692 97.0519C159.726 97.5229 159.829 97.9863 160.001 98.4265C160.169 98.8673 160.408 99.2778 160.709 99.6416L160.843 99.7975C161.118 100.121 161.434 100.406 161.782 100.648C162.141 100.895 162.529 101.099 162.937 101.254C163.367 101.419 163.813 101.538 164.268 101.608C164.752 101.683 165.242 101.715 165.731 101.704M194.3 77.8466L151.203 82.9801C150.367 83.0883 149.551 83.3162 148.78 83.6567C147.185 84.3549 145.779 85.4223 144.678 86.7708C144.155 87.4114 143.732 88.1282 143.425 88.8965L127.617 129.351C127.183 130.442 126.919 131.592 126.834 132.763C126.759 133.793 126.879 134.828 127.189 135.813C127.467 136.705 127.967 137.512 128.641 138.158C129.335 138.808 130.204 139.239 131.141 139.398L188.321 149.718C189.998 150.028 191.722 149.973 193.376 149.555C194.955 149.159 196.429 148.424 197.697 147.402C198.965 146.38 199.995 145.095 200.718 143.635C201.455 142.128 201.854 140.478 201.887 138.8L203.179 83.306C203.199 82.409 202.953 81.5262 202.471 80.7694C201.978 80.0083 201.31 79.3766 200.523 78.9272C199.646 78.4236 198.687 78.0805 197.69 77.914C196.561 77.7227 195.411 77.6976 194.275 77.8396" fill="#6B1FFF"/>
<path fill-rule="evenodd" clip-rule="evenodd" d="M119.525 167.62H133.863L153.665 203.048H143.04L137.773 193.627H115.615L110.348 203.048H99.7227L119.525 167.62ZM126.694 173.802L119.504 186.669H133.884L126.694 173.802ZM236.622 181.794V174.709H271.75V167.623H225.996V203.051H271.75V195.965H236.622V189.057H268.208V181.794H236.622ZM68.8756 174.708V181.793H100.462V189.056H68.8756V203.05H58.25V167.622H104.004V174.708H68.8756ZM220.683 203.051V167.623H203.36L189.284 195.777L175.209 167.623H157.886V203.051H168.511V173.355L183.355 203.051H195.213L210.057 173.355V203.051H220.683ZM65.8261 222.001V217.877H60.4531V222.001H58.25V212.138H60.4531V215.946H65.8261V212.138H68.0326V221.987L65.8261 222.001ZM77.1008 218.068V222.001L79.3038 221.987V218.054L83.4691 212.138H81.0854L78.2483 216.276L75.4149 212.138H72.9355L77.1008 218.068ZM88.3643 222.001V212.138H93.1493C95.9073 212.138 97.2862 213.218 97.2862 215.379C97.2862 216.485 96.932 217.303 96.2237 217.842C95.5153 218.38 94.435 218.649 92.9828 218.649H90.5425V221.987L88.3643 222.001ZM92.9687 216.938C93.5323 216.983 94.0957 216.851 94.5802 216.559C94.7552 216.419 94.8931 216.238 94.982 216.033C95.0709 215.827 95.1081 215.603 95.0903 215.379C95.1091 215.163 95.0737 214.944 94.9871 214.745C94.9005 214.545 94.7656 214.37 94.5944 214.235C94.1094 213.96 93.5529 213.836 92.997 213.881H90.5425V216.942L92.9687 216.938ZM102.774 212.138V222.001L111.048 222.008L111.324 220.201H104.981V217.842H110.729V216.035H104.981V213.945H111.02V212.138H102.774ZM124.107 222.001L121.954 218.32H119.074V222.001H116.949V212.138H121.787C124.536 212.138 125.91 213.163 125.91 215.213C125.931 215.8 125.769 216.38 125.446 216.871C125.087 217.349 124.594 217.709 124.029 217.905L126.509 221.987L124.107 222.001ZM121.628 216.623C122.185 216.658 122.742 216.535 123.232 216.269C123.405 216.153 123.544 215.994 123.635 215.807C123.726 215.62 123.765 215.413 123.75 215.206C123.77 215.001 123.736 214.795 123.65 214.608C123.564 214.421 123.43 214.26 123.261 214.143C122.765 213.892 122.21 213.782 121.656 213.824H119.078V216.598L121.628 216.623ZM148.955 220.118C149.227 219.651 149.396 219.131 149.449 218.593L147.218 218.618C147.099 219.188 146.762 219.689 146.279 220.014C145.692 220.346 145.022 220.503 144.349 220.467C143.913 220.492 143.477 220.426 143.069 220.272C142.66 220.119 142.288 219.883 141.976 219.578C141.419 218.871 141.116 217.998 141.116 217.098C141.116 216.198 141.419 215.325 141.976 214.618C142.282 214.308 142.65 214.067 143.056 213.91C143.462 213.753 143.897 213.684 144.331 213.708C144.95 213.677 145.565 213.826 146.102 214.136C146.586 214.482 146.939 214.982 147.104 215.553L149.297 215.291C148.707 213.038 147.047 211.911 144.317 211.911C143.304 211.887 142.301 212.112 141.395 212.567C140.598 212.974 139.939 213.607 139.5 214.388C139.05 215.214 138.824 216.143 138.845 217.084C138.819 218.056 139.051 219.018 139.518 219.872C139.964 220.643 140.633 221.261 141.437 221.643C142.343 222.064 143.333 222.271 144.331 222.249C145.797 222.249 146.978 221.933 147.873 221.3C148.314 220.988 148.683 220.585 148.955 220.118ZM165.972 217.077C165.993 218.03 165.757 218.971 165.289 219.801C164.824 220.585 164.138 221.214 163.316 221.608C162.362 222.026 161.333 222.244 160.292 222.249C159.251 222.254 158.22 222.045 157.263 221.636C156.442 221.253 155.751 220.637 155.276 219.865C154.816 219.021 154.572 218.077 154.567 217.116C154.563 216.155 154.796 215.208 155.248 214.359C155.712 213.575 156.399 212.946 157.22 212.553C158.174 212.134 159.203 211.916 160.244 211.911C161.285 211.906 162.316 212.115 163.273 212.524C164.096 212.906 164.787 213.522 165.26 214.296C165.753 215.138 165.999 216.101 165.972 217.077ZM163.681 217.077C163.708 216.624 163.643 216.171 163.489 215.744C163.334 215.318 163.095 214.927 162.785 214.597C162.071 214.024 161.183 213.712 160.268 213.712C159.353 213.712 158.465 214.024 157.752 214.597C157.173 215.293 156.856 216.171 156.856 217.077C156.856 217.983 157.173 218.86 157.752 219.557C158.465 220.13 159.353 220.442 160.268 220.442C161.183 220.442 162.071 220.13 162.785 219.557C163.095 219.226 163.335 218.836 163.489 218.409C163.643 217.983 163.708 217.529 163.681 217.077ZM173.693 215.117L179.388 222.001L181.4 221.987V212.138H179.275V219.021L173.579 212.138H171.567V222.001H173.693V215.117ZM195.422 222.001L189.731 215.117V222.001H187.605V212.138H189.617L195.313 219.021V212.138H197.438V221.987L195.422 222.001ZM203.657 212.138V222.001L211.949 222.008L212.225 220.201H205.882V217.842H211.63V216.035H205.882V213.945H211.903V212.138H203.657ZM227.979 218.593C227.926 219.131 227.757 219.65 227.485 220.117C227.213 220.584 226.844 220.987 226.403 221.299C225.504 221.932 224.323 222.249 222.861 222.249C221.862 222.271 220.871 222.064 219.964 221.643C219.161 221.26 218.493 220.643 218.048 219.872C217.581 219.018 217.349 218.056 217.375 217.084C217.355 216.144 217.579 215.214 218.027 214.388C218.468 213.608 219.128 212.974 219.925 212.567C220.831 212.112 221.834 211.887 222.847 211.911C225.579 211.911 227.239 213.038 227.827 215.291L225.635 215.553C225.469 214.981 225.116 214.482 224.632 214.136C224.096 213.825 223.481 213.676 222.861 213.707C222.432 213.686 222.003 213.754 221.601 213.908C221.2 214.063 220.835 214.3 220.531 214.604C219.974 215.31 219.671 216.184 219.671 217.084C219.671 217.983 219.974 218.857 220.531 219.563C220.843 219.868 221.215 220.105 221.624 220.258C222.032 220.411 222.468 220.477 222.904 220.453C223.577 220.488 224.247 220.331 224.834 219.999C225.316 219.673 225.653 219.173 225.773 218.603L227.979 218.593ZM236.116 213.987V222.001L238.315 221.987V213.973H242.172V212.138H232.255V213.987H236.116ZM247.368 222.001V212.138H255.614V213.945H249.592V216.035H255.316V217.842H249.564V220.201H255.908L255.631 222.008L247.368 222.001ZM261.542 212.138V222.001L265.721 221.987C267.646 221.987 269.129 221.559 270.17 220.704C271.211 219.849 271.732 218.635 271.732 217.062C271.73 215.466 271.236 214.246 270.251 213.403C269.267 212.559 267.83 212.138 265.941 212.138H261.542ZM268.555 219.379C267.956 219.904 267.035 220.166 265.831 220.166H263.734V213.987H266.026C268.324 213.99 269.472 215.015 269.472 217.062C269.472 218.083 269.153 218.855 268.555 219.379Z" fill="#6B1FFF"/>
<path d="M73.5375 304.781C73.5375 306.07 73.2133 307.246 72.5648 308.309C71.9242 309.363 70.9516 310.254 69.6469 310.98C68.35 311.699 66.7641 312.176 64.8891 312.41L63.6469 309.797C65.2328 309.609 66.5453 309.254 67.5844 308.73C68.6312 308.199 69.3969 307.594 69.8812 306.914C70.3656 306.227 70.6117 305.516 70.6195 304.781V304.219H73.5375V304.781ZM74.5336 304.781C74.5336 305.516 74.7719 306.227 75.2484 306.914C75.7328 307.594 76.4984 308.199 77.5453 308.73C78.5922 309.254 79.9164 309.609 81.518 309.797L80.3109 312.41C78.4125 312.176 76.8109 311.699 75.5062 310.98C74.2016 310.254 73.2211 309.363 72.5648 308.309C71.9164 307.246 71.5922 306.07 71.5922 304.781V304.219H74.5336V304.781ZM74.1703 323.25H70.8305V315.422H74.1703V323.25ZM82.3734 316.16H62.768V313.488H82.3734V316.16ZM80.6391 305.426H64.5023V302.812H80.6391V305.426ZM90.5011 304.77C90.4933 306.176 90.2667 307.488 89.8214 308.707C89.3839 309.918 88.7003 310.977 87.7706 311.883C86.8409 312.781 85.6808 313.445 84.2902 313.875L82.6144 311.238C83.8019 310.871 84.7745 310.348 85.5323 309.668C86.2902 308.988 86.837 308.23 87.173 307.395C87.5167 306.559 87.6925 305.684 87.7003 304.77V302.707H90.5011V304.77ZM91.2159 304.77C91.2081 305.668 91.3683 306.516 91.6964 307.312C92.0245 308.109 92.5558 308.824 93.2902 309.457C94.0245 310.082 94.9737 310.562 96.1378 310.898L94.4737 313.559C93.0987 313.129 91.9581 312.488 91.0519 311.637C90.1534 310.777 89.4855 309.766 89.048 308.602C88.6183 307.438 88.4034 306.16 88.4034 304.77V302.707H91.2159V304.77ZM100.849 323.238H97.462V318.094H85.9777V315.41H100.849V323.238ZM100.849 314.531H97.462V301.723H100.849V314.531ZM111.496 318.34H108.133V314.859H111.496V318.34ZM121 323.238H117.648V301.723H121V323.238ZM103.726 317.062C106.398 317.047 108.734 317.004 110.734 316.934C112.742 316.863 114.68 316.703 116.547 316.453L116.758 318.938C114.695 319.297 112.582 319.531 110.418 319.641C108.262 319.742 105.894 319.793 103.316 319.793L102.883 317.062H103.726ZM116.324 306.691H103.305V304.055H116.324V306.691ZM109.808 307.406C110.863 307.406 111.805 307.578 112.633 307.922C113.469 308.266 114.117 308.746 114.578 309.363C115.039 309.973 115.269 310.676 115.269 311.473C115.269 312.262 115.039 312.965 114.578 313.582C114.117 314.191 113.469 314.668 112.633 315.012C111.805 315.348 110.863 315.516 109.808 315.516C108.754 315.516 107.816 315.348 106.996 315.012C106.183 314.668 105.543 314.191 105.074 313.582C104.613 312.965 104.387 312.262 104.394 311.473C104.387 310.676 104.613 309.973 105.074 309.363C105.543 308.746 106.183 308.266 106.996 307.922C107.816 307.578 108.754 307.406 109.808 307.406ZM109.808 309.949C109.371 309.957 108.988 310.016 108.66 310.125C108.332 310.234 108.074 310.406 107.887 310.641C107.699 310.867 107.605 311.145 107.605 311.473C107.605 311.801 107.695 312.078 107.875 312.305C108.062 312.523 108.32 312.691 108.648 312.809C108.984 312.918 109.371 312.973 109.808 312.973C110.262 312.973 110.656 312.918 110.992 312.809C111.336 312.691 111.598 312.523 111.777 312.305C111.957 312.078 112.047 311.801 112.047 311.473C112.047 311.145 111.957 310.867 111.777 310.641C111.598 310.406 111.336 310.234 110.992 310.125C110.656 310.016 110.262 309.957 109.808 309.949ZM111.531 305.578H108.133V301.852H111.531V305.578ZM130.311 306.305C130.311 308.219 130.104 309.996 129.69 311.637C129.276 313.277 128.624 314.73 127.733 315.996C126.85 317.262 125.725 318.227 124.358 318.891L122.307 316.137C123.526 315.59 124.526 314.809 125.307 313.793C126.096 312.77 126.67 311.621 127.03 310.348C127.389 309.074 127.573 307.727 127.581 306.305V303.316H130.311V306.305ZM130.956 306.305C130.948 307.68 131.112 308.977 131.448 310.195C131.792 311.414 132.331 312.516 133.065 313.5C133.799 314.477 134.741 315.242 135.889 315.797L133.862 318.469C132.549 317.828 131.479 316.898 130.651 315.68C129.823 314.453 129.217 313.051 128.835 311.473C128.452 309.887 128.264 308.164 128.272 306.305V303.316H130.956V306.305ZM139.885 323.238H136.499V301.723H139.885V323.238ZM142.932 312.738H139.147V309.891H142.932V312.738ZM166.395 323.238H163.184V301.723H166.395V323.238ZM159.738 312.457H157.043V309.457H159.738V312.457ZM162.023 322.254H158.848V302.121H162.023V322.254ZM157.488 306.773H147.668V304.078H157.488V306.773ZM147.293 315.715C149.293 315.715 151.184 315.684 152.965 315.621C154.754 315.559 156.371 315.426 157.816 315.223L158.039 317.625C156.539 317.961 154.895 318.184 153.105 318.293C151.316 318.402 149.5 318.453 147.656 318.445L147.293 315.715ZM151.91 316.465H148.898V305.789H151.91V316.465ZM156.281 316.465H153.211V305.789H156.281V316.465ZM185.608 313.863H182.221V301.77H185.608V313.863ZM185.608 323.027H171.065V314.777H185.608V323.027ZM174.393 320.32H182.303V317.426H174.393V320.32ZM173.772 302.695C174.882 302.695 175.889 302.918 176.796 303.363C177.71 303.801 178.425 304.418 178.94 305.215C179.464 306.012 179.725 306.914 179.725 307.922C179.725 308.891 179.464 309.77 178.94 310.559C178.425 311.348 177.71 311.973 176.796 312.434C175.889 312.887 174.882 313.113 173.772 313.113C172.655 313.113 171.643 312.887 170.737 312.434C169.831 311.973 169.116 311.348 168.592 310.559C168.077 309.77 167.819 308.891 167.819 307.922C167.819 306.914 168.077 306.012 168.592 305.215C169.116 304.418 169.831 303.801 170.737 303.363C171.643 302.918 172.655 302.695 173.772 302.695ZM173.772 305.52C173.249 305.52 172.784 305.609 172.378 305.789C171.979 305.969 171.667 306.242 171.44 306.609C171.214 306.977 171.104 307.414 171.112 307.922C171.104 308.406 171.214 308.824 171.44 309.176C171.667 309.527 171.979 309.797 172.378 309.984C172.784 310.172 173.249 310.266 173.772 310.266C174.28 310.266 174.729 310.172 175.12 309.984C175.518 309.797 175.827 309.527 176.046 309.176C176.272 308.824 176.385 308.406 176.385 307.922C176.385 307.414 176.276 306.977 176.057 306.609C175.839 306.242 175.53 305.969 175.132 305.789C174.733 305.609 174.28 305.52 173.772 305.52ZM195.294 323.238H191.849V315.387H195.294V323.238ZM202.771 323.238H199.349V315.387H202.771V323.238ZM207.201 316.312H187.548V313.605H207.201V316.312ZM197.31 302.414C198.849 302.414 200.22 302.617 201.423 303.023C202.626 303.422 203.56 303.992 204.224 304.734C204.896 305.477 205.232 306.336 205.232 307.312C205.232 308.266 204.896 309.105 204.224 309.832C203.56 310.551 202.626 311.109 201.423 311.508C200.22 311.898 198.849 312.094 197.31 312.094C195.771 312.094 194.404 311.898 193.208 311.508C192.013 311.109 191.083 310.551 190.419 309.832C189.755 309.105 189.423 308.266 189.423 307.312C189.423 306.336 189.755 305.477 190.419 304.734C191.083 303.992 192.013 303.422 193.208 303.023C194.404 302.617 195.771 302.414 197.31 302.414ZM197.31 305.098C196.388 305.105 195.599 305.191 194.943 305.355C194.287 305.52 193.783 305.77 193.431 306.105C193.08 306.434 192.908 306.836 192.915 307.312C192.908 307.773 193.08 308.164 193.431 308.484C193.783 308.797 194.287 309.035 194.943 309.199C195.599 309.355 196.388 309.434 197.31 309.434C198.232 309.434 199.025 309.355 199.689 309.199C200.353 309.035 200.861 308.797 201.212 308.484C201.564 308.164 201.74 307.773 201.74 307.312C201.74 306.836 201.564 306.434 201.212 306.105C200.861 305.77 200.353 305.52 199.689 305.355C199.033 305.191 198.24 305.105 197.31 305.098ZM225.77 323.238H222.418V301.723H225.77V323.238ZM212 317.145H208.66V303.773H212V317.145ZM210.606 315.164C212.277 315.156 213.977 315.082 215.703 314.941C217.43 314.793 219.137 314.559 220.824 314.238L221.246 317.016C219.481 317.375 217.711 317.633 215.938 317.789C214.172 317.945 212.395 318.02 210.606 318.012H208.66V315.164H210.606ZM245.85 323.297H242.499V301.723H245.85V323.297ZM243.448 311.906H237.811V309.188H243.448V311.906ZM231.729 308.484H235.573V303.398H238.89V318.293H228.378V303.398H231.729V308.484ZM235.573 315.621V311.109H231.729V315.621H235.573ZM258.478 304.465C258.486 306.043 258.142 307.523 257.447 308.906C256.759 310.289 255.732 311.477 254.365 312.469C253.005 313.461 251.365 314.145 249.443 314.52L248.013 311.719C249.638 311.438 251.017 310.914 252.15 310.148C253.283 309.383 254.127 308.504 254.681 307.512C255.236 306.512 255.517 305.496 255.525 304.465V302.953H258.478V304.465ZM259.123 304.465C259.123 305.52 259.4 306.547 259.955 307.547C260.509 308.539 261.353 309.414 262.486 310.172C263.619 310.93 265.013 311.445 266.67 311.719L265.216 314.52C263.287 314.145 261.646 313.469 260.295 312.492C258.951 311.508 257.935 310.328 257.248 308.953C256.56 307.578 256.22 306.082 256.228 304.465V302.953H259.123V304.465ZM267.291 320.695H247.638V317.941H267.291V320.695ZM20.6634 338.531C20.6712 336.406 20.9916 334.418 21.6244 332.566C22.2572 330.715 23.1673 328.961 24.3548 327.305H28.1752C27.6048 328.125 27.0619 329.152 26.5462 330.387C26.0306 331.621 25.6048 332.953 25.2689 334.383C24.9408 335.812 24.7767 337.195 24.7767 338.531C24.7767 339.867 24.9408 341.25 25.2689 342.68C25.6048 344.109 26.0306 345.445 26.5462 346.688C27.0619 347.93 27.6048 348.961 28.1752 349.781H24.3548C23.1673 348.117 22.2572 346.359 21.6244 344.508C20.9916 342.648 20.6712 340.656 20.6634 338.531ZM29.2012 328.031H40.7091V331.289H33.1856V334.887H39.9708V338.133H33.1856V345H29.2012V328.031ZM39.1219 345L44.8641 328.031H50.1492L55.9031 345H51.6141L47.5828 332.227H47.4422L43.4109 345H39.1219ZM52.0828 338.309V341.367H42.8836V338.309H52.0828ZM61.9214 328.031L66.3159 338.707H66.5152L70.8862 328.031H75.8433V345H71.9527V334.441H71.812L67.6636 344.895H65.1558L61.0191 334.406H60.8784V345H56.9878V328.031H61.9214ZM77.7131 328.031H89.467V331.289H81.6975V334.887H88.8577V338.133H81.6975V341.742H89.467V345H77.7131V328.031ZM110.257 328.031V338.988C110.257 340.238 109.961 341.332 109.367 342.27C108.773 343.207 107.933 343.934 106.847 344.449C105.761 344.957 104.511 345.211 103.097 345.211C101.683 345.211 100.437 344.957 99.3591 344.449C98.2809 343.934 97.445 343.207 96.8512 342.27C96.2575 341.332 95.9606 340.238 95.9606 338.988V328.031H99.945V338.648C99.945 339.25 100.078 339.785 100.343 340.254C100.609 340.715 100.98 341.078 101.457 341.344C101.933 341.609 102.48 341.742 103.097 341.742C103.722 341.742 104.273 341.609 104.75 341.344C105.234 341.078 105.605 340.715 105.863 340.254C106.129 339.785 106.261 339.25 106.261 338.648V328.031H110.257ZM126.471 345H123.073L116.205 335.039H116.077V345H112.092V328.031H115.549L122.346 337.98H122.498V328.031H126.471V345ZM132.325 345H128.341V328.031H132.325V345ZM141.719 340.547H141.871L145.715 328.031H150.191L144.437 345H139.152L133.41 328.031H137.875L141.719 340.547ZM151.276 328.031H163.03V331.289H155.26V334.887H162.42V338.133H155.26V341.742H163.03V345H151.276V328.031ZM164.853 328.031H171.79C173.056 328.031 174.15 328.262 175.072 328.723C176.001 329.176 176.716 329.828 177.216 330.68C177.716 331.523 177.966 332.52 177.966 333.668C177.966 334.816 177.712 335.805 177.204 336.633C176.704 337.453 175.982 338.078 175.036 338.508C174.091 338.938 172.97 339.152 171.673 339.152H167.22V335.977H170.958C171.583 335.977 172.107 335.895 172.529 335.73C172.958 335.559 173.283 335.305 173.501 334.969C173.72 334.625 173.829 334.191 173.829 333.668C173.829 333.137 173.72 332.691 173.501 332.332C173.283 331.965 172.958 331.695 172.529 331.523C172.107 331.352 171.579 331.266 170.947 331.266H168.837V345H164.853V328.031ZM178.552 345H174.158L170.044 337.254H174.322L178.552 345ZM188.66 333.07C188.621 332.656 188.496 332.301 188.285 332.004C188.074 331.707 187.773 331.484 187.383 331.336C187 331.18 186.539 331.102 186 331.102C185.477 331.102 185.031 331.172 184.664 331.312C184.297 331.453 184.02 331.652 183.832 331.91C183.645 332.16 183.551 332.445 183.551 332.766C183.535 333.266 183.742 333.664 184.172 333.961C184.602 334.25 185.234 334.488 186.07 334.676L187.547 335.004C189.242 335.379 190.527 335.984 191.402 336.82C192.277 337.648 192.719 338.734 192.727 340.078C192.727 341.148 192.461 342.07 191.93 342.844C191.398 343.609 190.625 344.195 189.609 344.602C188.602 345.008 187.402 345.211 186.012 345.211C184.574 345.219 183.336 345.004 182.297 344.566C181.258 344.129 180.449 343.48 179.871 342.621C179.293 341.762 178.992 340.691 178.969 339.41H182.812C182.844 339.949 182.992 340.406 183.258 340.781C183.523 341.156 183.883 341.438 184.336 341.625C184.797 341.805 185.336 341.895 185.953 341.895C186.516 341.895 187 341.816 187.406 341.66C187.812 341.504 188.121 341.289 188.332 341.016C188.543 340.742 188.652 340.426 188.66 340.066C188.652 339.746 188.551 339.469 188.355 339.234C188.168 338.992 187.875 338.789 187.477 338.625C187.078 338.453 186.555 338.293 185.906 338.145L184.125 337.723C182.609 337.371 181.445 336.812 180.633 336.047C179.82 335.281 179.418 334.277 179.426 333.035C179.418 332.004 179.695 331.09 180.258 330.293C180.82 329.496 181.602 328.883 182.602 328.453C183.602 328.016 184.742 327.797 186.023 327.797C187.312 327.797 188.441 328.016 189.41 328.453C190.387 328.891 191.141 329.512 191.672 330.316C192.211 331.113 192.484 332.031 192.492 333.07H188.66ZM194.069 328.031H205.823V331.289H198.053V334.887H205.214V338.133H198.053V341.742H205.823V345H194.069V328.031ZM223.578 334.137C223.508 333.559 223.324 333.059 223.027 332.637C222.738 332.207 222.352 331.879 221.867 331.652C221.391 331.418 220.844 331.301 220.227 331.301C219.391 331.301 218.672 331.508 218.07 331.922C217.469 332.336 217.004 332.934 216.676 333.715C216.348 334.488 216.184 335.422 216.184 336.516C216.184 337.641 216.348 338.59 216.676 339.363C217.004 340.137 217.465 340.723 218.059 341.121C218.66 341.52 219.371 341.723 220.192 341.73C220.793 341.723 221.332 341.613 221.809 341.402C222.285 341.184 222.672 340.879 222.969 340.488C223.274 340.09 223.477 339.613 223.578 339.059L227.633 339.094C227.516 340.148 227.149 341.145 226.531 342.082C225.914 343.012 225.055 343.77 223.953 344.355C222.86 344.941 221.582 345.234 220.121 345.234C218.574 345.234 217.195 344.891 215.985 344.203C214.774 343.516 213.824 342.516 213.137 341.203C212.449 339.891 212.106 338.328 212.106 336.516C212.106 334.695 212.453 333.129 213.149 331.816C213.852 330.496 214.809 329.496 216.02 328.816C217.231 328.137 218.598 327.797 220.121 327.797C221.481 327.797 222.699 328.047 223.777 328.547C224.863 329.039 225.742 329.766 226.414 330.727C227.086 331.68 227.492 332.816 227.633 334.137H223.578ZM245.147 336.516C245.147 338.336 244.796 339.902 244.093 341.215C243.39 342.52 242.429 343.516 241.21 344.203C239.991 344.891 238.612 345.234 237.073 345.234C235.534 345.234 234.155 344.891 232.936 344.203C231.718 343.516 230.757 342.516 230.054 341.203C229.358 339.891 229.011 338.328 229.011 336.516C229.011 334.695 229.358 333.129 230.054 331.816C230.757 330.496 231.718 329.496 232.936 328.816C234.155 328.137 235.534 327.797 237.073 327.797C238.612 327.797 239.991 328.137 241.21 328.816C242.429 329.496 243.39 330.496 244.093 331.816C244.796 333.129 245.147 334.695 245.147 336.516ZM241.069 336.516C241.069 335.398 240.909 334.453 240.589 333.68C240.276 332.898 239.819 332.309 239.218 331.91C238.616 331.504 237.901 331.301 237.073 331.301C236.245 331.301 235.534 331.504 234.94 331.91C234.347 332.309 233.89 332.898 233.569 333.68C233.249 334.453 233.089 335.398 233.089 336.516C233.089 337.633 233.249 338.578 233.569 339.352C233.89 340.117 234.347 340.703 234.94 341.109C235.534 341.516 236.245 341.723 237.073 341.73C237.901 341.723 238.616 341.516 239.218 341.109C239.819 340.703 240.276 340.117 240.589 339.352C240.909 338.578 241.069 337.633 241.069 336.516ZM247.92 345.234C247.537 345.234 247.181 345.141 246.853 344.953C246.525 344.758 246.263 344.5 246.068 344.18C245.88 343.852 245.791 343.492 245.798 343.102C245.791 342.727 245.88 342.379 246.068 342.059C246.263 341.738 246.525 341.484 246.853 341.297C247.181 341.109 247.537 341.016 247.92 341.016C248.287 341.016 248.63 341.109 248.951 341.297C249.279 341.484 249.541 341.742 249.736 342.07C249.931 342.391 250.033 342.734 250.041 343.102C250.033 343.492 249.931 343.852 249.736 344.18C249.541 344.5 249.279 344.758 248.951 344.953C248.63 345.141 248.287 345.234 247.92 345.234ZM254.02 349.98H251.289L252.403 343.219H256.106L254.02 349.98ZM262.037 328.031H266.021V341.742H273.135V345H262.037V328.031ZM281.04 335.18H273.094V332.273H281.04V335.18ZM278.743 329.227V341.004C278.743 341.27 278.782 341.48 278.86 341.637C278.946 341.785 279.067 341.895 279.223 341.965C279.379 342.035 279.575 342.07 279.809 342.07C279.911 342.078 280.051 342.082 280.231 342.082C280.411 342.074 280.59 342.062 280.77 342.047L281.215 342.012V345.035C280.645 345.137 279.993 345.188 279.258 345.188C278.313 345.188 277.504 345.055 276.833 344.789C276.168 344.516 275.661 344.105 275.309 343.559C274.958 343.004 274.786 342.309 274.793 341.473V329.227H278.743ZM286.894 345.188C285.933 345.188 285.066 344.938 284.292 344.438C283.527 343.93 282.917 343.188 282.464 342.211C282.019 341.227 281.796 340.035 281.796 338.637C281.796 337.207 282.027 336 282.487 335.016C282.948 334.031 283.562 333.301 284.327 332.824C285.093 332.348 285.945 332.109 286.882 332.109C287.484 332.109 288.015 332.207 288.476 332.402C288.945 332.598 289.327 332.852 289.624 333.164C289.929 333.477 290.179 333.836 290.374 334.242C290.398 334.289 290.413 334.324 290.421 334.348C290.429 334.363 290.445 334.398 290.468 334.453H290.562V328.031H294.511V345H290.609V342.949H290.468L290.398 343.09C290.202 343.496 289.948 343.852 289.636 344.156C289.323 344.461 288.937 344.711 288.476 344.906C288.015 345.094 287.487 345.188 286.894 345.188ZM288.23 342.094C288.73 342.094 289.163 341.949 289.53 341.66C289.898 341.371 290.175 340.969 290.362 340.453C290.558 339.938 290.659 339.328 290.667 338.625C290.659 337.922 290.558 337.312 290.362 336.797C290.175 336.281 289.898 335.887 289.53 335.613C289.171 335.34 288.737 335.203 288.23 335.203C287.73 335.203 287.3 335.344 286.941 335.625C286.581 335.898 286.304 336.293 286.109 336.809C285.921 337.324 285.827 337.93 285.827 338.625C285.827 339.328 285.925 339.938 286.12 340.453C286.316 340.969 286.589 341.371 286.941 341.66C287.3 341.949 287.73 342.094 288.23 342.094ZM298.584 345.234C298.201 345.234 297.846 345.141 297.518 344.953C297.189 344.758 296.928 344.5 296.732 344.18C296.545 343.852 296.455 343.492 296.463 343.102C296.455 342.727 296.545 342.379 296.732 342.059C296.928 341.738 297.189 341.484 297.518 341.297C297.846 341.109 298.201 341.016 298.584 341.016C298.951 341.016 299.295 341.109 299.615 341.297C299.943 341.484 300.205 341.742 300.4 342.07C300.596 342.391 300.697 342.734 300.705 343.102C300.697 343.492 300.596 343.852 300.4 344.18C300.205 344.5 299.943 344.758 299.615 344.953C299.295 345.141 298.951 345.234 298.584 345.234ZM309.337 338.531C309.329 336.406 309.008 334.418 308.376 332.566C307.743 330.715 306.833 328.961 305.645 327.305H301.825C302.395 328.125 302.938 329.152 303.454 330.387C303.969 331.621 304.391 332.953 304.719 334.383C305.055 335.812 305.223 337.195 305.223 338.531C305.223 339.867 305.055 341.25 304.719 342.68C304.391 344.109 303.969 345.445 303.454 346.688C302.938 347.93 302.395 348.961 301.825 349.781H305.645C306.833 348.117 307.743 346.359 308.376 344.508C309.008 342.648 309.329 340.656 309.337 338.531Z" fill="#6B1FFF"/>
</svg>
