<svg width="330" height="348" viewBox="0 0 330 348" fill="none" xmlns="http://www.w3.org/2000/svg">
<g clip-path="url(#clip0_336_4501)">
<path d="M64.5131 172.924C63.2302 174.046 61.6326 174.752 59.9344 174.948C58.2361 175.144 56.518 174.82 55.0102 174.02C53.5024 173.22 52.2767 171.981 51.4973 170.471C50.7178 168.96 50.4218 167.249 50.6488 165.566C50.8358 164.277 50.7207 162.963 50.3124 161.725C49.9042 160.487 49.2137 159.36 48.2949 158.431L48.0948 158.232C47.3184 157.46 46.3964 156.848 45.3816 156.431C44.3669 156.013 43.2792 155.798 42.1807 155.798C41.0822 155.798 39.9945 156.013 38.9797 156.431C37.9649 156.848 37.043 157.46 36.2666 158.232L36.0665 158.431C35.1468 159.366 34.4562 160.499 34.048 161.742C33.6398 162.984 33.5251 164.304 33.7126 165.597C33.9396 167.324 33.6158 169.078 32.7868 170.613C31.9577 172.148 30.6651 173.386 29.0906 174.154C27.5161 174.921 25.7389 175.18 24.0088 174.893C22.2787 174.606 20.6826 173.788 19.445 172.554C18.2073 171.32 17.3903 169.732 17.1088 168.013C16.8273 166.294 17.0954 164.53 17.8755 162.971C18.6555 161.411 19.9083 160.133 21.4577 159.316C23.0071 158.5 24.7753 158.186 26.5137 158.419C27.812 158.605 29.1361 158.491 30.3827 158.085C31.6293 157.68 32.7649 156.994 33.7008 156.082L33.897 155.883C34.6742 155.112 35.2907 154.196 35.7114 153.189C36.132 152.181 36.3485 151.101 36.3485 150.01C36.3485 148.919 36.132 147.839 35.7114 146.831C35.2907 145.823 34.6742 144.907 33.897 144.136L33.7008 143.937C32.7591 143.024 31.6181 142.338 30.3662 141.933C29.1144 141.527 27.7854 141.414 26.4823 141.6C24.7426 141.825 22.9758 141.503 21.4299 140.68C19.884 139.857 18.6367 138.573 17.8633 137.01C17.0898 135.447 16.8291 133.682 17.1176 131.964C17.4061 130.246 18.2294 128.661 19.4719 127.431C20.7144 126.202 22.3136 125.389 24.045 125.109C25.7763 124.828 27.5527 125.092 29.1248 125.865C30.6969 126.638 31.9855 127.881 32.8098 129.418C33.6341 130.956 33.9525 132.711 33.7204 134.438C33.5337 135.727 33.649 137.041 34.0572 138.278C34.4655 139.516 35.1557 140.644 36.0743 141.573L36.2744 141.772C37.0508 142.543 37.9727 143.155 38.9875 143.573C40.0023 143.99 41.09 144.205 42.1885 144.205C43.287 144.205 44.3747 143.99 45.3895 143.573C46.4043 143.155 47.3262 142.543 48.1026 141.772L48.3027 141.573C49.2224 140.638 49.913 139.505 50.3212 138.262C50.7293 137.019 50.8441 135.7 50.6566 134.406C50.4319 132.68 50.7574 130.927 51.5875 129.394C52.4175 127.861 53.7104 126.624 55.2846 125.858C56.8588 125.092 58.6352 124.834 60.3643 125.121C62.0935 125.409 63.6886 126.227 64.9256 127.46C66.1626 128.694 66.9794 130.281 67.2613 131.999C67.5432 133.717 67.2761 135.479 66.4974 137.039C65.7188 138.598 64.4676 139.877 62.9198 140.694C61.3719 141.511 59.6051 141.827 57.8673 141.597C56.569 141.411 55.2449 141.525 53.9983 141.93C52.7516 142.335 51.6161 143.021 50.6801 143.933L50.484 144.132C49.7068 144.903 49.0902 145.819 48.6696 146.827C48.2489 147.835 48.0324 148.915 48.0324 150.006C48.0324 151.097 48.2489 152.177 48.6696 153.185C49.0902 154.193 49.7068 155.108 50.484 155.879L50.6801 156.078C51.6224 156.991 52.7635 157.676 54.0151 158.082C55.2668 158.487 56.5955 158.601 57.8987 158.415C59.6816 158.186 61.4914 158.532 63.0617 159.401C64.6321 160.27 65.88 161.616 66.6219 163.242C67.3638 164.868 67.5604 166.687 67.1829 168.432C66.8054 170.177 65.8737 171.756 64.5249 172.936L64.5131 172.924Z" fill="#6B1FFF"/>
<path d="M274.655 138.484V146.161H309.136V154.029H274.655V161.516H313V169.193H263.059V130.807H313V138.484H274.655Z" fill="#6B1FFF"/>
<path d="M162.489 130.811H146.84L125.224 169.193H136.824L142.572 158.988H166.758L172.509 169.193H184.106L162.489 130.811ZM146.797 151.455L154.643 137.515L162.489 151.455H146.797Z" fill="#6B1FFF"/>
<path d="M91.5553 138.484V146.161H126.032V154.029H91.5553V169.193H79.9546V130.807H129.896V138.484H91.5553Z" fill="#6B1FFF"/>
<path d="M257.26 130.807V169.193H245.66V137.02L229.457 169.193H216.515L200.312 137.02V169.193H188.711V130.807H207.621L222.984 161.317L238.351 130.807H257.26Z" fill="#6B1FFF"/>
</g>
<path d="M112.037 312.516L114.24 308.273H118.248L114.674 314.625L118.365 321H114.404L112.037 316.734L109.728 321H105.709L109.412 314.625L105.885 308.273H109.904L112.037 312.516ZM119.368 304.031H130.875V307.289H123.352V310.887H130.137V314.133H123.352V321H119.368V304.031ZM129.288 321L135.03 304.031H140.316L146.07 321H141.78L137.749 308.227H137.609L133.577 321H129.288ZM142.249 314.309V317.367H133.05V314.309H142.249ZM152.088 304.031L156.482 314.707H156.682L161.053 304.031H166.01V321H162.119V310.441H161.978L157.83 320.895H155.322L151.185 310.406H151.045V321H147.154V304.031H152.088ZM167.88 304.031H179.633V307.289H171.864V310.887H179.024V314.133H171.864V317.742H179.633V321H167.88V304.031ZM190.111 321H186.127V304.031H190.111V321ZM195.907 321H191.958V308.273H195.708V310.582H195.837C196.126 309.809 196.61 309.203 197.29 308.766C197.97 308.328 198.774 308.109 199.704 308.109C200.587 308.109 201.36 308.309 202.024 308.707C202.696 309.098 203.212 309.656 203.571 310.383C203.938 311.102 204.122 311.934 204.122 312.879V321H200.173V313.641C200.173 313.172 200.091 312.766 199.927 312.422C199.77 312.078 199.532 311.812 199.212 311.625C198.899 311.438 198.524 311.344 198.087 311.344C197.649 311.344 197.266 311.441 196.938 311.637C196.61 311.824 196.356 312.098 196.177 312.457C195.997 312.809 195.907 313.227 195.907 313.711V321ZM211.804 321.234C210.492 321.234 209.351 320.961 208.382 320.414C207.421 319.867 206.683 319.102 206.167 318.117C205.66 317.125 205.406 315.977 205.406 314.672C205.406 313.375 205.664 312.23 206.179 311.238C206.695 310.246 207.433 309.477 208.394 308.93C209.355 308.383 210.488 308.109 211.792 308.109C212.941 308.109 213.957 308.32 214.839 308.742C215.722 309.156 216.406 309.75 216.89 310.523C217.382 311.289 217.644 312.188 217.675 313.219H213.972C213.917 312.789 213.796 312.418 213.609 312.105C213.429 311.793 213.187 311.551 212.882 311.379C212.585 311.207 212.246 311.117 211.863 311.109C211.371 311.117 210.941 311.258 210.574 311.531C210.214 311.797 209.933 312.195 209.73 312.727C209.527 313.25 209.425 313.883 209.425 314.625C209.425 315.383 209.523 316.027 209.718 316.559C209.921 317.082 210.203 317.484 210.562 317.766C210.929 318.039 211.363 318.172 211.863 318.164C212.238 318.172 212.574 318.094 212.871 317.93C213.167 317.758 213.414 317.52 213.609 317.215C213.804 316.902 213.925 316.523 213.972 316.078H217.675C217.636 317.109 217.375 318.016 216.89 318.797C216.406 319.57 215.726 320.172 214.851 320.602C213.984 321.023 212.968 321.234 211.804 321.234ZM221.221 321.234C220.838 321.234 220.483 321.141 220.155 320.953C219.826 320.758 219.565 320.5 219.369 320.18C219.182 319.852 219.092 319.492 219.1 319.102C219.092 318.727 219.182 318.379 219.369 318.059C219.565 317.738 219.826 317.484 220.155 317.297C220.483 317.109 220.838 317.016 221.221 317.016C221.588 317.016 221.932 317.109 222.252 317.297C222.58 317.484 222.842 317.742 223.037 318.07C223.233 318.391 223.334 318.734 223.342 319.102C223.334 319.492 223.233 319.852 223.037 320.18C222.842 320.5 222.58 320.758 222.252 320.953C221.932 321.141 221.588 321.234 221.221 321.234Z" fill="#6B1FFF"/>
<defs>
<clipPath id="clip0_336_4501">
<rect width="296" height="50" fill="white" transform="translate(17 125)"/>
</clipPath>
</defs>
</svg>
