<svg width="241" height="98" viewBox="0 0 241 98" fill="none" xmlns="http://www.w3.org/2000/svg">
<path fill-rule="evenodd" clip-rule="evenodd" d="M132.305 7.78471H127.434L122.153 16.5515H138.676L129.248 32.1994H132.305C133.908 32.1994 135.495 31.8836 136.976 31.2701C138.457 30.6567 139.803 29.7575 140.937 28.6239C142.07 27.4904 142.969 26.1447 143.583 24.6636C144.196 23.1825 144.512 21.5951 144.512 19.9921C144.512 18.389 144.196 16.8016 143.583 15.3205C142.969 13.8394 142.07 12.4937 140.937 11.3602C139.803 10.2266 138.457 9.32742 136.976 8.71394C135.495 8.10046 133.908 7.78471 132.305 7.78471ZM114.11 16.5515L119.391 7.78471H88.1939L84.1992 0.903564H132.269C137.332 0.903564 142.187 2.91466 145.767 6.49445C149.346 10.0742 151.357 14.9295 151.357 19.9921C151.357 25.0546 149.346 29.9099 145.767 33.4896C142.187 37.0694 137.332 39.0805 132.269 39.0805H125.066L115.522 54.9161L111.581 48.1243L117.086 39.0627H106.362L102.367 32.1815H121.223L126.505 23.4147H97.2823L93.2788 16.5515H114.11ZM88.346 90.564C88.2842 90.6393 88.2064 90.6999 88.1183 90.7417C88.0303 90.7834 87.9341 90.8051 87.8366 90.8053H76.0672L77.2736 86.6409H84.0833C84.4497 86.6409 84.6821 86.7392 84.7804 86.9268C84.8897 87.1578 84.9241 87.4171 84.8787 87.6686H85.3165L87.3452 80.6891H86.9073C86.7823 80.9688 86.6031 81.221 86.38 81.4309C86.1287 81.6353 85.8096 81.7374 85.4863 81.7168H78.6856L79.7669 78.0082H91.5006C91.5819 77.997 91.6643 78.0165 91.732 78.0627C91.7998 78.1089 91.8479 78.1787 91.867 78.2584C91.9115 78.5934 91.8872 78.934 91.7955 79.2593H92.2334L94.4944 71.4845H94.0565C93.9374 71.8416 93.7657 72.1789 93.5471 72.4854C93.4865 72.5628 93.4093 72.6255 93.3211 72.6688C93.2329 72.7121 93.136 72.7349 93.0377 72.7356H73.8241L73.5739 73.4416C74.3067 73.5399 75.1914 74.3352 75.1646 74.9608L69.5793 94.3442C69.2665 95.3272 67.363 95.4881 67.2737 95.4881L67.0681 96.2477H86.2549C86.3277 96.2386 86.4016 96.2459 86.4712 96.2691C86.5407 96.2923 86.6042 96.3308 86.657 96.3817C86.7285 96.4711 86.7285 96.7124 86.657 97.0966H87.0949L89.3112 89.447H88.8733C88.7489 89.8375 88.5683 90.2077 88.3371 90.5461L88.346 90.564ZM71.1125 74.2237C71.2146 74.1618 71.3015 74.0777 71.3666 73.9777L71.7688 74.1118L66.6928 81.4933L66.4605 81.1806C66.5052 81.0912 66.5588 80.984 66.5945 80.8857C66.6303 80.7874 66.6749 80.6533 66.7196 80.5103C66.7508 80.38 66.7456 80.2435 66.7047 80.1159C66.6637 79.9883 66.5885 79.8743 66.4873 79.7865C66.2018 79.5136 65.8686 79.2955 65.5043 79.143C65.0093 78.929 64.4945 78.7644 63.9672 78.6515C63.3334 78.5113 62.686 78.4423 62.0369 78.446C61.3115 78.4579 60.5907 78.563 59.8921 78.7588C59.086 78.9795 58.3199 79.3264 57.6222 79.7865C56.8438 80.2991 56.1604 80.9432 55.6025 81.6899C54.9569 82.5529 54.4781 83.5288 54.1906 84.5675C53.8836 85.497 53.7949 86.4847 53.9314 87.454C54.0317 88.1638 54.3431 88.827 54.8251 89.3575C55.2863 89.8358 55.8613 90.1894 56.4962 90.3852C57.1309 90.5927 57.7945 90.6983 58.4622 90.698C58.932 90.6753 59.3987 90.6095 59.8563 90.5014C60.5299 90.3601 61.1929 90.172 61.8403 89.9384C62.4788 89.7238 63.0977 89.4547 63.6901 89.1341C64.1252 88.961 64.475 88.6241 64.6642 88.1958C64.6927 88.0783 64.6927 87.9558 64.6642 87.8383C64.6578 87.7341 64.6578 87.6297 64.6642 87.5255L65.111 87.2128L66.4069 94.2547L65.9243 94.5675C65.9243 94.4156 65.8885 94.2816 65.826 94.2816C65.7522 94.2318 65.6646 94.2068 65.5757 94.2101C65.215 94.2782 64.8678 94.405 64.548 94.5854C63.8952 94.8952 63.2237 95.1638 62.5373 95.3897C61.6269 95.7006 60.6989 95.9572 59.7581 96.1582C58.6432 96.3832 57.5084 96.494 56.3711 96.4889C55.1103 96.497 53.8599 96.2603 52.6892 95.7918C51.5624 95.3435 50.5861 94.5842 49.8742 93.6024C49.0967 92.4883 48.6196 91.1924 48.4891 89.8401C48.3225 88.0679 48.517 86.2803 49.061 84.5854C49.5859 82.7075 50.4227 80.9312 51.5364 79.3307C52.5299 77.9049 53.7354 76.6392 55.111 75.5774C56.356 74.6154 57.7428 73.8527 59.2219 73.3164C60.5358 72.8323 61.9235 72.5783 63.3237 72.5657C64.4113 72.5462 65.4981 72.636 66.5677 72.8338C67.3206 72.9885 68.059 73.2068 68.775 73.4862C69.3291 73.7275 69.767 73.9241 70.0619 74.0939C70.2786 74.2281 70.5232 74.3106 70.7768 74.3352C70.8957 74.3237 71.0104 74.2856 71.1125 74.2237ZM23.9495 82.2622C23.2226 82.7152 22.374 82.9335 21.5188 82.8877H15.9602L17.4526 77.7403H23.0112C23.7547 77.6511 24.5034 77.8599 25.0934 78.3211C25.2824 78.5924 25.3967 78.9086 25.4249 79.2379C25.4532 79.5673 25.3943 79.8984 25.2542 80.1978C25.0732 81.0145 24.6115 81.7419 23.9495 82.2532V82.2622ZM27.0415 85.4078C27.8293 84.7287 28.5048 83.9294 29.0434 83.0396C29.5868 82.152 30.0105 81.1965 30.3034 80.1978C30.5836 79.2774 30.7134 78.3178 30.6877 77.356C30.6802 76.5222 30.4685 75.703 30.0711 74.9699C29.6664 74.2695 29.0673 73.7014 28.3463 73.3345C27.4567 72.9023 26.4751 72.6937 25.4866 72.7268H23.1095H0.5L1.80473 75.515H12.6537L11.7064 78.7769H2.19794L3.50267 81.5651H10.8575L9.91911 84.827H3.85121L5.16488 87.6062H9.10588L7.1488 94.3623C6.82708 95.3542 4.93252 95.5151 4.84315 95.5151L4.62868 96.2747H13.1005L13.2614 95.7385C12.8146 95.6759 12.5554 95.5776 12.4839 95.4525C12.4199 95.2856 12.4199 95.101 12.4839 94.9342L14.6019 87.642H21.1881C22.2868 87.6493 23.3765 87.443 24.3963 87.0343C25.3713 86.6471 26.2768 86.1038 27.0773 85.4257L27.0415 85.4078ZM33.8335 87.5882L40.1784 76.9448L40.6342 87.5972L33.8335 87.5882ZM46.5234 95.4703C46.4104 95.1238 46.3502 94.7623 46.3446 94.3979C46.2821 93.2629 46.2195 91.9761 46.1659 90.5462C46.1288 89.5568 46.0789 88.5504 46.0279 87.5238C46.0053 87.0668 45.9824 86.6058 45.9604 86.1405L45.9366 85.6392C45.8732 84.3051 45.8114 83.0039 45.7638 81.7169C45.7102 80.2692 45.6655 78.9734 45.6297 77.8206L45.6063 77.0578C45.5816 76.2526 45.561 75.5799 45.5404 75.0234C45.5182 74.4262 45.5326 74.0662 45.5383 73.9234V73.9233L45.5383 73.9232L45.5384 73.9216C45.5396 73.8923 45.5404 73.8724 45.5404 73.8617C45.5588 73.7696 45.5961 73.6824 45.6499 73.6055C45.7037 73.5286 45.773 73.4637 45.8531 73.4149C46.0214 73.3542 46.1949 73.3093 46.3715 73.2808L46.5234 72.7446H35.2365L34.9773 73.4417C35.871 73.5578 36.863 74.5587 36.4966 75.229L35.451 77.0163L33.5028 80.2602C32.77 81.4518 32.0253 82.688 31.2687 83.9689C30.5121 85.2498 29.7614 86.495 29.0167 87.7044L26.9881 91.0378C26.8435 91.2759 26.7054 91.502 26.5739 91.7174L26.5725 91.7196C26.1518 92.4086 25.7971 92.9894 25.5046 93.5132C25.1576 94.1345 24.9272 94.5008 24.82 94.6713L24.7897 94.7196C24.195 95.1784 23.4753 95.4464 22.7253 95.4881L22.5108 96.2477H29.8835L30.0354 95.7115C29.7673 95.7115 29.6065 95.7115 29.535 95.5954C29.5068 95.5448 29.492 95.4879 29.492 95.43C29.492 95.3722 29.5068 95.3153 29.535 95.2647C29.5707 95.161 29.6187 95.062 29.678 94.9698L30.0444 94.3264C30.2172 94.0226 30.4495 93.6204 30.7414 93.12L31.9032 91.145H40.5627C40.5438 91.4277 40.5438 91.7113 40.5627 91.9939V93.3166V94.5677C40.5761 94.767 40.5761 94.9671 40.5627 95.1664C40.4644 95.4971 40.1873 95.6758 39.7137 95.7026L39.5529 96.2388H46.7647L46.9166 95.7026C46.8224 95.7096 46.7283 95.6876 46.6469 95.6397C46.5654 95.5918 46.5005 95.5202 46.4608 95.4345L46.5234 95.4703ZM115.675 94.9162C115.606 95.0822 115.606 95.2685 115.675 95.4345V95.4255C115.746 95.5596 116.005 95.649 116.452 95.7115L116.291 96.2477H108.972L109.133 95.7115C109.467 95.7029 109.792 95.6008 110.071 95.4166C110.225 95.2807 110.336 95.1041 110.393 94.9072L115.201 78.455L115.156 78.3657L103.539 95.7115L102.243 78.2048H102.163L97.3101 94.9251C97.2461 95.0919 97.2461 95.2766 97.3101 95.4434C97.3816 95.5775 97.6407 95.6758 98.0876 95.7294L97.9267 96.2656H90.563L90.7685 95.506C90.8579 95.506 92.7346 95.3451 93.0652 94.371L98.6952 74.9698C98.7221 74.3353 97.8463 73.5489 97.1045 73.4416L97.3548 72.7356H107.882L107.73 73.2719C107.481 73.2603 107.234 73.3335 107.032 73.4795C106.829 73.6255 106.681 73.8358 106.613 74.0761C106.613 74.0822 106.613 74.0937 106.612 74.1108C106.611 74.1945 106.606 74.4127 106.613 74.791C106.622 75.2468 106.649 75.8009 106.693 76.4533L106.721 76.8541C106.757 77.3923 106.795 77.9646 106.845 78.5712C106.897 79.1954 106.942 79.7955 106.986 80.3813L107.015 80.7607C107.035 81.0263 107.056 81.2793 107.075 81.5201L107.076 81.5306L107.076 81.5342C107.107 81.9279 107.136 82.289 107.158 82.6195C107.176 82.8875 107.198 83.1109 107.216 83.2896V83.2898L107.216 83.29C107.234 83.4686 107.248 83.6025 107.248 83.6919C107.989 82.5659 108.749 81.4577 109.491 80.3853C109.728 80.0415 109.962 79.7059 110.189 79.3795L110.19 79.3775L110.191 79.376C110.671 78.6857 111.122 78.0363 111.528 77.4363C111.739 77.1241 111.944 76.8419 112.136 76.5776L112.136 76.5776C112.487 76.0929 112.795 75.6684 113.021 75.229C113.369 74.5498 112.341 73.5578 111.501 73.4416L111.752 72.7356H123.137L122.976 73.2719C122.642 73.2805 122.317 73.3826 122.038 73.5667C121.882 73.6992 121.772 73.8775 121.725 74.0761L115.675 94.9162ZM129.115 87.5793L135.46 76.9448L135.915 87.5882L129.115 87.5793ZM141.805 95.4613C141.692 95.1148 141.631 94.7533 141.626 94.3889C141.563 93.254 141.501 91.976 141.447 90.5372C141.41 89.5449 141.36 88.544 141.31 87.5228L141.309 87.5186C141.287 87.0606 141.264 86.5987 141.242 86.1315L141.218 85.6338C141.155 84.2984 141.093 82.9961 141.045 81.708C140.991 80.2602 140.947 78.9644 140.911 77.8205C140.901 77.5031 140.892 77.2015 140.883 76.9161C140.86 76.173 140.841 75.5399 140.822 75.0234C140.799 74.4268 140.814 74.0543 140.82 73.9161V73.9157L140.821 73.8786L140.822 73.8617C140.838 73.7688 140.874 73.6807 140.928 73.6034C140.982 73.5262 141.053 73.4619 141.134 73.4148C141.3 73.346 141.474 73.3008 141.653 73.2808L141.805 72.7356H130.553L130.348 73.4595C131.188 73.5757 132.207 74.5587 131.867 75.2468L130.804 77.0341C130.356 77.7949 129.851 78.6349 129.299 79.5541L128.864 80.2781C128.564 80.7787 128.259 81.2855 127.951 81.7979L127.936 81.8221L127.932 81.8296C127.503 82.5416 127.068 83.2642 126.63 83.9957C125.871 85.2647 125.12 86.5069 124.378 87.7222L122.305 91.002C122.172 91.2208 122.045 91.4293 121.923 91.6289C121.488 92.3424 121.122 92.9416 120.822 93.4863C120.533 94.0094 120.325 94.3412 120.202 94.5385C120.178 94.576 120.158 94.6086 120.141 94.6368L120.131 94.6527C120.122 94.6674 120.114 94.6807 120.107 94.6928C119.511 95.1575 118.788 95.4288 118.033 95.4702L117.819 96.2299H125.2L125.352 95.6937C125.178 95.7169 125.001 95.679 124.852 95.5864C124.824 95.5343 124.809 95.4759 124.809 95.4166C124.809 95.3573 124.824 95.299 124.852 95.2468C124.888 95.1462 124.936 95.0502 124.995 94.9609L125.361 94.3085L126.058 93.1021L127.211 91.136H135.88C135.864 91.4188 135.864 91.7022 135.88 91.985V91.9854C135.88 92.4053 135.88 92.8788 135.924 93.3076C135.955 93.6003 135.944 93.9097 135.934 94.1902V94.1904V94.1906V94.1908V94.191V94.1911V94.1913V94.1914C135.929 94.3216 135.924 94.4455 135.924 94.5587C135.938 94.761 135.938 94.9641 135.924 95.1664C135.826 95.4881 135.54 95.6669 135.031 95.7026L134.87 96.2388H142.073L142.234 95.7026C142.139 95.7109 142.044 95.6895 141.963 95.6414C141.881 95.5934 141.816 95.521 141.778 95.4345L141.805 95.4613ZM163.136 81.4312L166.639 95.0684L166.604 95.1041C166.693 95.4616 166.818 95.6761 166.97 95.7297C167.162 95.7967 167.365 95.827 167.569 95.819L167.408 96.3552H159.034L159.195 95.819C159.374 95.8229 159.552 95.7988 159.722 95.7475C159.857 95.7029 159.973 95.5331 160.053 95.2382C160.066 94.967 160.036 94.6955 159.964 94.4339C159.874 93.987 159.749 93.4419 159.597 92.7806L159.581 92.7112C159.434 92.07 159.277 91.3874 159.079 90.6716C158.874 89.9298 158.686 89.2149 158.525 88.5268C158.364 87.8387 158.203 87.2489 158.06 86.7395C158.007 86.5494 157.954 86.3829 157.908 86.2396C157.831 85.999 157.774 85.8238 157.774 85.7118L153.047 89.6439L151.492 95.0058C151.428 95.1726 151.428 95.3573 151.492 95.5241C151.563 95.6552 151.823 95.7535 152.269 95.819L152.117 96.2927H143.663L143.869 95.5331C143.958 95.5331 145.844 95.3722 146.175 94.3981L151.787 75.0237C151.823 74.3981 150.938 73.6027 150.196 73.5044L150.446 72.7985H158.945L158.793 73.3346C158.457 73.3475 158.13 73.4493 157.846 73.6296C157.698 73.7686 157.59 73.9444 157.533 74.139L155.192 82.1819H155.451C156.425 81.2882 157.479 80.3945 158.588 79.5009C159.696 78.5715 160.717 77.7136 161.653 76.9272C162.588 76.1407 163.375 75.4705 164.012 74.9164C164.394 74.6344 164.731 74.2971 165.013 73.9155C165.138 73.6475 165.12 73.4419 165.013 73.4419C164.872 73.3894 164.725 73.3534 164.575 73.3346L164.727 72.7985H174.012L173.86 73.3346C173.642 73.3591 173.426 73.404 173.217 73.4687C173.033 73.5348 172.859 73.6249 172.698 73.7368L172.135 74.1658L171.394 74.7645L163.136 81.4312ZM190.161 90.564C190.097 90.639 190.017 90.6994 189.928 90.741C189.838 90.7827 189.741 90.8046 189.642 90.8053H177.909L179.115 86.6409H185.916C186.282 86.6409 186.515 86.7392 186.613 86.9268C186.727 87.1563 186.762 87.4173 186.711 87.6686H187.149L189.178 80.6891H188.74C188.618 80.9707 188.439 81.2235 188.213 81.4309C187.962 81.6369 187.642 81.7392 187.319 81.7168H180.518L181.591 78.0082H193.333C193.414 78.0008 193.494 78.0218 193.561 78.0674C193.628 78.1131 193.677 78.1806 193.7 78.2584C193.739 78.5935 193.715 78.9331 193.628 79.2593H194.066L196.318 71.4845H195.88C195.761 71.8416 195.589 72.1789 195.371 72.4854C195.311 72.5632 195.233 72.6263 195.145 72.6697C195.057 72.7131 194.96 72.7356 194.861 72.7356H175.666L175.415 73.4416C176.264 73.5578 177.301 74.5587 176.935 75.2289L171.394 94.3442C171.072 95.3272 169.178 95.4881 169.088 95.4881L168.874 96.2477H188.061C188.133 96.2386 188.207 96.2459 188.277 96.2691C188.346 96.2923 188.41 96.3308 188.463 96.3817C188.534 96.4711 188.543 96.7124 188.463 97.0966H188.901L191.126 89.447H190.688C190.564 89.8375 190.383 90.2077 190.152 90.5461L190.161 90.564ZM211.465 81.9314C211.99 81.4742 212.371 80.8753 212.564 80.2067C212.664 79.9287 212.707 79.6336 212.69 79.3388C212.673 79.044 212.597 78.7556 212.466 78.4909C212.252 77.9994 211.537 77.7491 210.464 77.7491H204.325L202.895 82.6642H209.034C209.908 82.7342 210.776 82.4726 211.465 81.9314ZM218.016 74.5945C218.879 75.798 218.945 77.6687 218.212 80.2067L218.185 80.2335C217.714 82.0888 216.71 83.766 215.299 85.0592C214.007 86.2058 212.483 87.0593 210.831 87.5615L212.993 94.9877C213.127 95.5239 213.404 95.792 213.815 95.792L213.663 96.3282H206.05L206.21 95.792C206.45 95.7998 206.685 95.7237 206.874 95.5768C207.063 95.43 207.195 95.2216 207.247 94.9877C207.243 94.775 207.207 94.5641 207.14 94.3622C207.12 94.2899 207.099 94.2139 207.078 94.1346L207.035 93.9752L207.035 93.9742L207.034 93.9728C206.96 93.6982 206.877 93.3896 206.782 93.0574C206.688 92.728 206.579 92.3791 206.464 92.0135L206.393 91.7878C206.356 91.6705 206.319 91.5515 206.282 91.431C206.172 91.0736 206.059 90.7229 205.948 90.3812C205.879 90.1675 205.811 89.9572 205.746 89.7509C205.576 89.2147 205.433 88.7411 205.308 88.3211C205.293 88.2701 205.278 88.2213 205.263 88.1745C205.251 88.134 205.238 88.0951 205.227 88.0577L205.206 87.9928C205.13 87.7516 205.075 87.5802 205.075 87.4721H201.501L199.32 94.9788C199.286 95.0609 199.268 95.149 199.268 95.238C199.268 95.327 199.286 95.4151 199.32 95.4971C199.392 95.6312 199.642 95.7295 200.089 95.7831L199.937 96.3282H191.465L191.68 95.5686C191.769 95.5686 193.655 95.4078 193.976 94.4337L199.606 75.0413C199.633 74.4068 198.757 73.6204 198.016 73.5132L198.266 72.8072H212.654C215.335 72.8072 217.122 73.3791 218.016 74.5945ZM235.916 83.2898C235.425 82.7543 234.812 82.3464 234.128 82.1013C233.385 81.8289 232.62 81.6196 231.841 81.4757C231.036 81.3238 230.241 81.2166 229.455 81.1361C228.668 81.0557 227.989 80.9663 227.39 80.8502C226.897 80.7699 226.429 80.5773 226.023 80.2872C225.861 80.1505 225.749 79.965 225.702 79.7586C225.655 79.5522 225.677 79.3362 225.764 79.1433C225.998 78.5305 226.445 78.0229 227.024 77.7134C227.996 77.2023 229.091 76.9704 230.187 77.0432C230.952 77.0467 231.715 77.1215 232.466 77.2666C233.157 77.3988 233.835 77.587 234.495 77.8296C234.995 78.0056 235.463 78.2622 235.88 78.5892C236.229 78.8752 236.354 79.1522 236.282 79.4203L236.139 79.9118L236.452 80.1799L240.5 73.9243L240.196 73.7456C240.044 73.9149 239.88 74.0732 239.705 74.2192C239.54 74.3512 239.335 74.4209 239.124 74.4158C238.778 74.3857 238.441 74.2886 238.132 74.1299C237.685 73.9333 237.131 73.7188 236.461 73.4775C235.689 73.2094 234.901 72.9916 234.102 72.8251C233.11 72.6268 232.101 72.5309 231.09 72.5392C228.797 72.5282 226.563 73.2655 224.727 74.6393C223.826 75.3072 223.039 76.1159 222.395 77.0342C221.737 77.9725 221.241 79.0148 220.929 80.1174C220.501 81.2027 220.501 82.4101 220.929 83.4954C221.358 84.3159 222.041 84.9746 222.877 85.372C223.814 85.822 224.815 86.1235 225.844 86.2657L228.945 86.7125C229.742 86.8085 230.527 86.9883 231.287 87.2487C231.876 87.4721 232.1 87.8475 231.948 88.3926C231.815 88.8682 231.589 89.3126 231.282 89.6993C230.975 90.0861 230.594 90.4075 230.161 90.6446C228.978 91.2313 227.663 91.5022 226.345 91.431C225.528 91.4342 224.716 91.3198 223.932 91.0915C223.246 90.8998 222.589 90.6205 221.975 90.2603C221.496 89.9898 221.069 89.6357 220.715 89.2148C220.585 89.0845 220.488 88.9244 220.434 88.7485C220.379 88.5726 220.368 88.386 220.402 88.2049C220.487 87.8826 220.6 87.5685 220.742 87.2666L220.482 87.0432L215.755 95.0056L216.112 95.1308L216.541 94.7376C216.591 94.6825 216.652 94.6383 216.719 94.6076C216.787 94.5768 216.86 94.5602 216.935 94.5588C217.225 94.5913 217.503 94.6991 217.739 94.8716C218.203 95.1385 218.687 95.3686 219.187 95.5597C219.94 95.8563 220.721 96.0749 221.519 96.2121C222.661 96.4075 223.819 96.4972 224.977 96.4802C226.541 96.5104 228.099 96.284 229.589 95.81C230.807 95.4204 231.945 94.815 232.949 94.0226C233.844 93.3029 234.606 92.4318 235.201 91.4489C235.746 90.5378 236.175 89.5621 236.479 88.5445C236.827 87.5163 236.943 86.4237 236.818 85.3452C236.725 84.5882 236.415 83.8743 235.925 83.2898H235.916ZM135.174 54.9161V51.4398H136.416V50.7428H133.029V51.4398H134.28V54.9161H135.174ZM141.894 50.7428V54.9161H141.063V51.3504L141.045 51.3415L139.884 54.9161H139.142L138.034 51.3415L138.025 51.3504V54.9161H137.185V50.7428H138.65L139.526 53.7812H139.535L140.482 50.7428H141.894Z" fill="#8F8F8F"/>
</svg>
