<svg width="345" height="280" viewBox="0 0 345 280" fill="none" xmlns="http://www.w3.org/2000/svg">
<g clip-path="url(#clip0_336_2382)">
<path fill-rule="evenodd" clip-rule="evenodd" d="M232.488 199.988H112.5V80H232.488V199.988ZM115.954 196.534H229.034V83.4542H115.954V196.534ZM128.539 129.05C128.692 129.678 129.068 130.23 129.598 130.601C130.128 130.971 130.775 131.137 131.418 131.065C133.122 131.065 133.778 130.351 133.778 129.303C133.778 128.256 133.225 127.737 130.992 127.185C127.376 126.31 126.662 125.204 126.662 123.523C126.662 121.842 127.94 120.012 131.268 120.012C134.595 120.012 135.874 121.888 135.989 123.592H133.686C133.561 123.031 133.231 122.536 132.76 122.206C132.289 121.876 131.712 121.734 131.141 121.808C129.529 121.808 129.046 122.568 129.046 123.328C129.046 124.088 129.529 124.606 131.74 125.135C135.54 126.033 136.254 127.311 136.254 129.131C136.254 131.261 134.572 132.884 131.371 132.884C128.171 132.884 126.524 131.238 126.225 129.05H128.539ZM143.623 130.938C141.596 130.938 140.445 129.2 140.445 126.897H149.058C149.076 126.559 149.076 126.221 149.058 125.884C149.058 123.166 147.733 120.012 143.715 120.012C139.938 120.012 138.062 122.89 138.062 126.586C138.062 129.764 139.674 132.884 143.577 132.884C144.752 132.969 145.92 132.643 146.881 131.963C147.843 131.283 148.539 130.29 148.85 129.154H146.432C146.239 129.728 145.854 130.218 145.343 130.543C144.832 130.867 144.225 131.007 143.623 130.938ZM143.669 121.842C145.684 121.842 146.639 123.385 146.639 125.296H140.514C140.71 123.27 141.654 121.842 143.669 121.842ZM162.575 126.425C162.575 130.006 160.502 132.884 156.714 132.884C153.145 132.884 150.957 130.167 150.957 126.471C150.957 122.775 153.087 120.012 156.829 120.012C160.364 120.012 162.575 122.533 162.575 126.425ZM153.364 126.425C153.364 129.062 154.653 130.915 156.749 130.915C158.844 130.915 160.088 129.142 160.088 126.436C160.088 123.731 158.936 121.934 156.703 121.934C154.469 121.934 153.456 123.685 153.456 126.448L153.364 126.425ZM175.333 132.596V129.016V120.311H172.903V126.747C172.903 129.718 172.074 130.869 169.955 130.869C168.021 130.869 167.526 129.453 167.526 127.887V120.311H165.223V128.371C165.223 131.733 167.135 132.884 169.288 132.884C170.035 132.962 170.788 132.807 171.444 132.441C172.099 132.074 172.625 131.513 172.949 130.835C172.956 131.235 172.98 131.638 173 131.973V131.973L173 131.973C173.016 132.235 173.03 132.455 173.03 132.596H175.333ZM178.786 132.596V114.888H181.158V132.596H178.786ZM184.129 128.9V132.596H186.639V128.9H184.129ZM128.539 158.031C128.69 158.661 129.066 159.213 129.596 159.585C130.126 159.956 130.774 160.12 131.418 160.046C133.122 160.046 133.778 159.332 133.778 158.284C133.778 157.237 133.225 156.718 130.992 156.177C127.376 155.291 126.662 154.185 126.662 152.504C126.662 150.823 127.94 149.05 131.268 149.05C134.595 149.05 135.874 150.927 135.989 152.631H133.686C133.561 152.069 133.231 151.575 132.76 151.245C132.289 150.914 131.712 150.772 131.141 150.846C129.529 150.846 129.046 151.606 129.046 152.366C129.046 153.126 129.529 153.656 131.74 154.174C135.54 155.072 136.254 156.35 136.254 158.169C136.254 160.311 134.572 161.934 131.371 161.934C128.171 161.934 126.524 160.288 126.225 158.089L128.539 158.031ZM141.043 151.03V143.869H138.729V161.589H141.101V154.899C141.101 152.47 141.964 151.019 144.106 151.019C145.833 151.019 146.651 152.113 146.651 154.116V161.589H148.953V153.725C148.953 150.144 146.858 148.992 144.82 148.992C144.063 148.947 143.309 149.114 142.642 149.474C141.974 149.834 141.421 150.373 141.043 151.03ZM153.455 149.292C153.636 149.988 153.806 150.647 153.968 151.27C155.108 155.665 155.781 158.263 155.943 159.413C156.173 158.261 156.933 155.371 158.637 149.292H160.94C162.759 156.074 163.242 158.043 163.496 159.194C163.795 157.893 164.267 156.039 166.086 149.292H168.481L164.716 161.589H162.16C161.713 159.829 161.275 158.176 160.893 156.731C160.292 154.46 159.828 152.704 159.673 151.859C159.489 153.022 158.743 155.717 157.722 159.403L157.722 159.403L157.721 159.403L157.721 159.403C157.529 160.098 157.327 160.828 157.117 161.589H154.492L150.934 149.292H153.455ZM170.416 149.292V152.631L170.427 161.554H172.799V155.694C172.799 152.539 174.388 151.353 176.898 151.295V148.993C176.016 148.971 175.149 149.223 174.415 149.714C173.681 150.204 173.117 150.909 172.799 151.733C172.799 151.024 172.765 150.344 172.741 149.865L172.741 149.865L172.741 149.864C172.728 149.605 172.719 149.405 172.719 149.292H170.416ZM178.867 152.47V149.303H181.17C181.17 149.452 181.187 149.698 181.207 149.977L181.207 149.978C181.233 150.345 181.262 150.771 181.262 151.111C181.587 150.455 182.094 149.906 182.724 149.533C183.353 149.159 184.077 148.975 184.809 149.004C185.525 148.954 186.238 149.135 186.843 149.52C187.448 149.906 187.914 150.476 188.171 151.146C188.555 150.461 189.123 149.897 189.811 149.519C190.499 149.14 191.279 148.962 192.063 149.004C194.089 149.004 195.943 150.155 195.943 153.518V161.577H193.64V153.782C193.64 152.412 193.145 150.996 191.337 150.996C189.53 150.996 188.632 152.389 188.632 154.519V161.577H186.329V153.863C186.329 152.343 185.914 151.007 184.026 151.007C182.138 151.007 181.274 152.458 181.274 154.75V161.577H178.971L178.867 152.47ZM198.729 157.893V161.589H201.228V157.893H198.729Z" fill="#D9D9D9"/>
</g>
<defs>
<clipPath id="clip0_336_2382">
<rect width="120" height="120" fill="white" transform="translate(112.5 80)"/>
</clipPath>
</defs>
</svg>
