<svg width="145" height="144" viewBox="0 0 145 144" fill="none" xmlns="http://www.w3.org/2000/svg">
<g clip-path="url(#clip0_180_2018)">
<path fill-rule="evenodd" clip-rule="evenodd" d="M144.486 143.986H0.5V0H144.486V143.986ZM4.64508 139.841H140.341V4.14508H4.64508V139.841ZM19.7469 58.8601C19.9303 59.6142 20.3822 60.2756 21.0179 60.7207C21.6537 61.1657 22.4298 61.3639 23.2011 61.2781C25.246 61.2781 26.0337 60.4214 26.0337 59.1641C26.0337 57.9067 25.3704 57.285 22.6899 56.6218C18.3514 55.5717 17.4947 54.2452 17.4947 52.228C17.4947 50.2107 19.0284 48.0138 23.0215 48.0138C27.0146 48.0138 28.5482 50.266 28.6864 52.3109H25.923C25.7735 51.6371 25.3771 51.0436 24.812 50.6472C24.2469 50.2509 23.554 50.0804 22.8695 50.1693C20.9352 50.1693 20.3549 51.0812 20.3549 51.9931C20.3549 52.905 20.9352 53.5268 23.588 54.1624C28.1476 55.2401 29.0043 56.7738 29.0043 58.9568C29.0043 61.513 26.9869 63.4611 23.1458 63.4611C19.3047 63.4611 17.3289 61.4853 16.9697 58.8601H19.7469ZM37.8474 61.1261C35.4156 61.1261 34.0339 59.0397 34.0339 56.2764H44.3691C44.3907 55.8713 44.3907 55.4655 44.3691 55.0605C44.3691 51.7997 42.7801 48.0138 37.958 48.0138C33.4261 48.0138 31.1738 51.468 31.1738 55.9033C31.1738 59.7167 33.1083 63.4611 37.7922 63.4611C39.2021 63.5626 40.6035 63.1719 41.7575 62.3555C42.9115 61.5391 43.7466 60.3477 44.1203 58.9845H41.2188C40.9865 59.6731 40.5251 60.2613 39.9116 60.6511C39.2981 61.0408 38.5695 61.2084 37.8474 61.1261ZM37.9027 50.2107C40.3206 50.2107 41.4674 52.0622 41.4674 54.3558H34.1169C34.3517 51.924 35.4847 50.2107 37.9027 50.2107ZM60.5898 55.7099C60.5898 60.0069 58.1026 63.4611 53.5569 63.4611C49.2736 63.4611 46.6484 60.2004 46.6484 55.7651C46.6484 51.3299 49.2047 48.0138 53.6952 48.0138C57.937 48.0138 60.5898 51.0397 60.5898 55.7099ZM49.5363 55.7099C49.5363 58.8739 51.0837 61.0984 53.5984 61.0984C56.113 61.0984 57.6053 58.9707 57.6053 55.7237C57.6053 52.4767 56.2235 50.3213 53.543 50.3213C50.8625 50.3213 49.6467 52.4214 49.6467 55.7375L49.5363 55.7099ZM75.8991 63.1157V58.8187V48.3731H72.9837V56.0967C72.9837 59.6615 71.9888 61.0432 69.4465 61.0432C67.1252 61.0432 66.5311 59.3437 66.5311 57.4646V48.3731H63.7678V58.0449C63.7678 62.0795 66.0614 63.4611 68.6452 63.4611C69.5418 63.555 70.4456 63.369 71.2323 62.9286C72.019 62.4883 72.6502 61.8151 73.039 61.0017C73.0468 61.4818 73.0762 61.9662 73.1006 62.3674V62.3676C73.1197 62.6822 73.1357 62.9457 73.1357 63.1157H75.8991ZM80.0438 63.1156V41.8652H82.8902V63.1156H80.0438ZM86.455 58.6804V63.1157H89.467V58.6804H86.455ZM19.7469 93.6372C19.9276 94.3928 20.3788 95.0561 21.0152 95.5016C21.6517 95.9471 22.4293 96.1441 23.2011 96.0552C25.246 96.0552 26.0337 95.1986 26.0337 93.9412C26.0337 92.6839 25.3704 92.0621 22.6899 91.4127C18.3514 90.3488 17.4947 89.0224 17.4947 87.0051C17.4947 84.9879 19.0284 82.8601 23.0215 82.8601C27.0146 82.8601 28.5482 85.1122 28.6864 87.1572H25.923C25.7735 86.4833 25.3771 85.8898 24.812 85.4935C24.2469 85.0972 23.554 84.9266 22.8695 85.0155C20.9352 85.0155 20.3549 85.9274 20.3549 86.8393C20.3549 87.7513 20.9352 88.3868 23.588 89.0086C28.1476 90.0863 29.0043 91.62 29.0043 93.8031C29.0043 96.373 26.9869 98.3212 23.1458 98.3212C19.3047 98.3212 17.3289 96.3454 16.9697 93.7064L19.7469 93.6372ZM34.7519 85.2366V76.6424H31.9747V97.9067H34.821V89.879C34.821 86.9637 35.8573 85.2227 38.4272 85.2227C40.4998 85.2227 41.4807 86.5354 41.4807 88.9395V97.9067H44.2441V88.4697C44.2441 84.1727 41.7295 82.791 39.2839 82.791C38.3758 82.7369 37.4705 82.937 36.6699 83.369C35.8693 83.8011 35.2051 84.4478 34.7519 85.2366ZM49.6466 83.1502C49.8627 83.9854 50.0677 84.7762 50.2615 85.5237L50.2616 85.524C51.629 90.7978 52.4374 93.9157 52.6311 95.2952C52.9074 93.9136 53.8193 90.4455 55.8642 83.1502H58.6276C60.8106 91.2883 61.3909 93.651 61.6949 95.0327C62.0541 93.4714 62.6206 91.2469 64.8037 83.1502H67.6777L63.1596 97.9067H60.0922C59.555 95.7953 59.0303 93.8114 58.5717 92.0775C57.8509 89.3522 57.2935 87.2447 57.1077 86.2314C56.8869 87.6264 55.9911 90.8604 54.766 95.2831L54.766 95.2833L54.7659 95.2836L54.7658 95.284L54.7649 95.2871C54.5343 96.1196 54.292 96.9943 54.0404 97.9067H50.8901L46.6207 83.1502H49.6466ZM69.9989 83.1503V87.1572L70.0127 97.8653H72.8591V90.8325C72.8591 87.0466 74.7657 85.6235 77.7778 85.5544V82.791C76.719 82.7656 75.6783 83.0679 74.7979 83.6565C73.9174 84.2451 73.2403 85.0913 72.8591 86.0794C72.8591 85.229 72.8184 84.4134 72.7898 83.8392L72.7898 83.8389L72.7898 83.8386C72.7742 83.5269 72.7622 83.2864 72.7622 83.1503H69.9989ZM80.1409 86.9637V83.164H82.9043C82.9043 83.3429 82.9249 83.6376 82.9484 83.9726L82.9484 83.9728C82.9792 84.414 83.015 84.925 83.015 85.3333C83.4041 84.5457 84.0132 83.8877 84.7684 83.439C85.5237 82.9903 86.3927 82.77 87.2705 82.8048C88.1296 82.7446 88.9853 82.9619 89.7116 83.4245C90.4379 83.8872 90.9965 84.5708 91.3051 85.3748C91.7658 84.5529 92.4475 83.8766 93.2729 83.4223C94.0983 82.9681 95.0345 82.7542 95.9753 82.8048C98.407 82.8048 100.632 84.1865 100.632 88.221V97.8929H97.8682V88.5388C97.8682 86.8946 97.274 85.1951 95.1048 85.1951C92.9355 85.1951 91.8578 86.867 91.8578 89.4231V97.8929H89.0945V88.6355C89.0945 86.8117 88.597 85.209 86.3311 85.209C84.0651 85.209 83.0288 86.9499 83.0288 89.6995V97.8929H80.2654L80.1409 86.9637ZM103.975 93.4715V97.9068H106.973V93.4715H103.975Z" fill="#8F8F8F"/>
</g>
<defs>
<clipPath id="clip0_180_2018">
<rect width="144" height="144" fill="white" transform="translate(0.5)"/>
</clipPath>
</defs>
</svg>
