<svg width="907" height="155" viewBox="0 0 907 155" fill="none" xmlns="http://www.w3.org/2000/svg">
<g clip-path="url(#clip0_148_493)">
<path d="M145.589 148.565C141.658 152.043 136.763 154.232 131.559 154.84C126.355 155.447 121.091 154.443 116.47 151.962C111.85 149.482 108.095 145.643 105.706 140.959C103.318 136.276 102.411 130.971 103.106 125.756C103.679 121.76 103.327 117.685 102.076 113.848C100.825 110.012 98.709 106.517 95.8934 103.636L95.2803 103.02C92.9013 100.628 90.0762 98.7306 86.9667 97.4362C83.8573 96.1417 80.5243 95.4754 77.1583 95.4754C73.7924 95.4754 70.4594 96.1417 67.35 97.4362C64.2405 98.7306 61.4154 100.628 59.0364 103.02L58.4233 103.636C55.6052 106.535 53.489 110.047 52.2383 113.899C50.9876 117.752 50.636 121.842 51.2105 125.853C51.9061 131.206 50.914 136.644 48.3736 141.401C45.8333 146.159 41.8725 149.998 37.048 152.377C32.2234 154.757 26.7777 155.559 21.4762 154.669C16.1748 153.779 11.2842 151.243 7.49184 147.418C3.69947 143.592 1.19597 138.668 0.333337 133.34C-0.529295 128.011 0.292294 122.545 2.68255 117.709C5.07281 112.874 8.91158 108.912 13.6593 106.381C18.407 103.85 23.825 102.877 29.1517 103.599C33.13 104.176 37.1872 103.822 41.0071 102.565C44.827 101.309 48.3065 99.1834 51.1745 96.3546L51.7756 95.7388C54.1571 93.3481 56.0463 90.5097 57.3352 87.3854C58.6242 84.2611 59.2876 80.9124 59.2876 77.5305C59.2876 74.1486 58.6242 70.7999 57.3352 67.6757C56.0463 64.5514 54.1571 61.7128 51.7756 59.3221L51.1745 58.7063C48.2887 55.8743 44.7925 53.7478 40.9567 52.4915C37.1209 51.2351 33.0486 50.8827 29.0555 51.4616C23.7249 52.1585 18.311 51.1607 13.5741 48.6082C8.83722 46.0558 5.0153 42.0771 2.64528 37.2309C0.275252 32.3848 -0.523813 26.9146 0.360265 21.5888C1.24434 16.263 3.76716 11.3492 7.57438 7.5375C11.3816 3.72584 16.282 1.20782 21.5871 0.33718C26.8923 -0.533463 32.3356 0.28709 37.1527 2.68339C41.9697 5.07969 45.9185 8.93133 48.4442 13.6975C50.9699 18.4637 51.9457 23.905 51.2346 29.2568C50.6624 33.2527 51.0155 37.3273 52.2665 41.1638C53.5175 45.0004 55.6326 48.4954 58.4473 51.3772L59.0604 51.993C61.4395 54.3847 64.2645 56.2819 67.3739 57.5764C70.4834 58.8709 73.8164 59.5372 77.1824 59.5372C80.5484 59.5372 83.8813 58.8709 86.9908 57.5764C90.1003 56.2819 92.9253 54.3847 95.3044 51.993L95.9174 51.3772C98.7354 48.4776 100.852 44.9657 102.102 41.1133C103.353 37.2608 103.705 33.1709 103.13 29.1601C102.442 23.8086 103.439 18.3749 105.983 13.622C108.526 8.86915 112.488 5.03581 117.311 2.66025C122.135 0.284684 127.578 -0.513841 132.876 0.376976C138.175 1.26779 143.063 3.80315 146.853 7.62697C150.643 11.4508 153.146 16.3711 154.01 21.6968C154.874 27.0226 154.056 32.4864 151.669 37.321C149.283 42.1556 145.45 46.118 140.707 48.652C135.964 51.1861 130.55 52.1645 125.225 51.4497C121.247 50.8731 117.19 51.2268 113.37 52.4834C109.55 53.74 106.07 55.8656 103.202 58.6944L102.601 59.31C100.22 61.7007 98.3306 64.5393 97.0416 67.6636C95.7527 70.7878 95.0892 74.1366 95.0892 77.5184C95.0892 80.9003 95.7527 84.2491 97.0416 87.3733C98.3306 90.4976 100.22 93.3361 102.601 95.7267L103.202 96.3425C106.09 99.1722 109.586 101.297 113.421 102.554C117.257 103.81 121.328 104.163 125.321 103.587C130.785 102.878 136.33 103.949 141.142 106.643C145.954 109.336 149.778 113.51 152.051 118.55C154.324 123.59 154.927 129.23 153.77 134.639C152.613 140.049 149.758 144.943 145.625 148.601L145.589 148.565Z" fill="#6B1FFF"/>
<path d="M789.505 41.8018V65.6006H895.159V89.9911H789.505V113.198H907V136.997H753.97V18.0031H907V41.8018H789.505Z" fill="#6B1FFF"/>
<path d="M445.807 18.0151H397.854L331.617 136.997H367.164L384.775 105.362H458.886L476.509 136.997H512.043L445.807 18.0151ZM397.722 82.0098L421.764 38.7953L445.807 82.0098H397.722Z" fill="#6B1FFF"/>
<path d="M228.451 41.8018V65.6006H334.093V89.9911H228.451V136.997H192.904V18.0031H345.934V41.8018H228.451Z" fill="#6B1FFF"/>
<path d="M736.203 18.0031V136.997H700.656V37.2618L651.008 136.997H611.351L561.703 37.2618V136.997H526.156V18.0031H584.098L631.173 112.582L678.261 18.0031H736.203Z" fill="#6B1FFF"/>
</g>
<defs>
<clipPath id="clip0_148_493">
<rect width="907" height="155" fill="white"/>
</clipPath>
</defs>
</svg>
