<svg width="550" height="349" viewBox="0 0 550 349" fill="none" xmlns="http://www.w3.org/2000/svg">
<path d="M348.604 85.1309H285.507C282.717 85.1309 280.043 86.2388 278.07 88.211C276.098 90.1832 274.99 92.8581 274.99 95.6471V158.745C274.99 161.534 276.098 164.209 278.07 166.181C280.043 168.153 282.717 169.261 285.507 169.261H348.604C351.393 169.261 354.068 168.153 356.04 166.181C358.013 164.209 359.121 161.534 359.121 158.745V95.6471C359.121 92.8581 358.013 90.1832 356.04 88.211C354.068 86.2388 351.393 85.1309 348.604 85.1309ZM345.033 156.124C343.425 157.538 341.423 158.428 339.296 158.674C337.169 158.92 335.017 158.511 333.129 157.501C331.241 156.491 329.706 154.929 328.729 153.023C327.752 151.117 327.381 148.959 327.664 146.836C327.898 145.21 327.755 143.551 327.244 141.989C326.733 140.427 325.869 139.004 324.72 137.83L324.471 137.582C322.506 135.616 319.84 134.512 317.06 134.512C314.28 134.512 311.614 135.616 309.648 137.582L309.4 137.83C308.248 139.011 307.383 140.44 306.872 142.009C306.362 143.577 306.219 145.242 306.455 146.874C306.738 149.053 306.331 151.266 305.292 153.202C304.253 155.138 302.633 156.7 300.66 157.669C298.688 158.637 296.462 158.963 294.294 158.601C292.127 158.239 290.127 157.207 288.576 155.651C287.025 154.094 286.001 152.091 285.647 149.922C285.293 147.753 285.628 145.528 286.603 143.559C287.579 141.59 289.147 139.976 291.087 138.944C293.027 137.912 295.241 137.514 297.419 137.805C299.045 138.04 300.703 137.896 302.265 137.385C303.826 136.875 305.249 136.011 306.421 134.86L306.674 134.612C308.639 132.646 309.744 129.98 309.744 127.2C309.744 124.42 308.639 121.754 306.674 119.788L306.421 119.54C305.242 118.388 303.813 117.523 302.245 117.013C300.677 116.502 299.013 116.359 297.382 116.596C295.202 116.879 292.989 116.472 291.053 115.433C289.117 114.393 287.555 112.774 286.587 110.801C285.619 108.829 285.293 106.602 285.655 104.435C286.016 102.267 287.048 100.268 288.605 98.7169C290.162 97.166 292.165 96.1417 294.334 95.7878C296.502 95.434 298.727 95.7684 300.696 96.744C302.665 97.7197 304.279 99.2876 305.311 101.228C306.343 103.167 306.742 105.382 306.451 107.56C306.214 109.187 306.357 110.846 306.868 112.408C307.379 113.97 308.244 115.393 309.395 116.566L309.643 116.814C311.609 118.78 314.275 119.884 317.055 119.884C319.835 119.884 322.501 118.78 324.467 116.814L324.715 116.566C325.867 115.386 326.732 113.956 327.243 112.388C327.753 110.819 327.896 109.154 327.66 107.522C327.377 105.343 327.784 103.13 328.823 101.194C329.862 99.2578 331.482 97.6959 333.455 96.7276C335.427 95.7593 337.653 95.4332 339.821 95.7951C341.988 96.157 343.988 97.1888 345.539 98.7455C347.09 100.302 348.114 102.306 348.468 104.474C348.822 106.643 348.487 108.868 347.512 110.837C346.536 112.806 344.968 114.42 343.028 115.452C341.088 116.484 338.874 116.882 336.696 116.591C335.069 116.357 333.41 116.5 331.848 117.011C330.286 117.522 328.863 118.386 327.689 119.536L327.441 119.784C325.476 121.75 324.371 124.416 324.371 127.196C324.371 129.976 325.476 132.642 327.441 134.608L327.689 134.856C328.87 136.008 330.3 136.873 331.868 137.383C333.436 137.894 335.101 138.037 336.733 137.801C338.968 137.511 341.236 137.946 343.204 139.043C345.171 140.139 346.735 141.839 347.665 143.891C348.594 145.943 348.84 148.239 348.366 150.442C347.893 152.644 346.724 154.636 345.033 156.124Z" fill="#6B1FFF"/>
<path d="M158.727 179.777H95.6296C92.8405 179.777 90.1656 180.885 88.1934 182.857C86.2212 184.83 85.1133 187.505 85.1133 190.294V253.391C85.1133 256.18 86.2212 258.855 88.1934 260.827C90.1656 262.8 92.8405 263.908 95.6296 263.908H158.727C161.516 263.908 164.191 262.8 166.163 260.827C168.136 258.855 169.244 256.18 169.244 253.391V190.294C169.244 187.505 168.136 184.83 166.163 182.857C164.191 180.885 161.516 179.777 158.727 179.777ZM155.169 250.754C153.561 252.168 151.56 253.057 149.433 253.303C147.306 253.549 145.155 253.14 143.267 252.131C141.379 251.122 139.844 249.56 138.867 247.655C137.89 245.75 137.518 243.592 137.8 241.47C138.036 239.844 137.893 238.186 137.382 236.624C136.871 235.063 136.006 233.64 134.855 232.468L134.603 232.216C133.63 231.243 132.475 230.471 131.203 229.944C129.932 229.417 128.569 229.146 127.193 229.146C125.817 229.146 124.454 229.417 123.183 229.944C121.912 230.471 120.756 231.243 119.783 232.216L119.535 232.468C118.383 233.647 117.518 235.076 117.007 236.644C116.496 238.212 116.354 239.876 116.591 241.508C116.874 243.687 116.467 245.9 115.428 247.836C114.388 249.772 112.769 251.334 110.796 252.302C108.824 253.271 106.597 253.597 104.43 253.235C102.262 252.873 100.263 251.841 98.712 250.285C97.1611 248.728 96.1367 246.725 95.7829 244.556C95.429 242.387 95.7634 240.162 96.7391 238.193C97.7147 236.224 99.2826 234.61 101.223 233.578C103.162 232.546 105.377 232.148 107.555 232.439C109.181 232.674 110.839 232.531 112.401 232.02C113.962 231.509 115.385 230.645 116.557 229.494L116.805 229.242C117.778 228.269 118.55 227.114 119.077 225.842C119.604 224.571 119.875 223.208 119.875 221.832C119.875 220.456 119.604 219.093 119.077 217.822C118.55 216.55 117.778 215.395 116.805 214.422L116.557 214.174C115.377 213.022 113.947 212.157 112.379 211.646C110.81 211.135 109.145 210.993 107.513 211.229C105.334 211.512 103.121 211.106 101.185 210.066C99.2487 209.027 97.6868 207.407 96.7184 205.435C95.7501 203.462 95.424 201.236 95.7859 199.069C96.1479 196.901 97.1796 194.902 98.7363 193.351C100.293 191.8 102.296 190.776 104.465 190.422C106.634 190.068 108.859 190.402 110.828 191.378C112.797 192.354 114.411 193.921 115.443 195.861C116.475 197.801 116.873 200.016 116.582 202.194C116.348 203.82 116.491 205.478 117.002 207.039C117.513 208.6 118.377 210.023 119.527 211.196L119.775 211.444C120.748 212.417 121.903 213.189 123.175 213.716C124.446 214.242 125.809 214.513 127.185 214.513C128.561 214.513 129.924 214.242 131.195 213.716C132.466 213.189 133.621 212.417 134.594 211.444L134.847 211.196C135.998 210.015 136.863 208.585 137.373 207.017C137.884 205.449 138.027 203.784 137.791 202.152C137.508 199.973 137.915 197.76 138.954 195.824C139.994 193.887 141.613 192.326 143.586 191.357C145.559 190.389 147.785 190.063 149.952 190.425C152.12 190.787 154.119 191.818 155.67 193.375C157.221 194.932 158.245 196.935 158.599 199.104C158.953 201.273 158.619 203.498 157.643 205.467C156.667 207.436 155.099 209.049 153.16 210.082C151.22 211.114 149.005 211.512 146.827 211.221C145.201 210.986 143.543 211.13 141.982 211.64C140.42 212.151 138.998 213.015 137.825 214.166L137.573 214.414C136.6 215.387 135.828 216.542 135.301 217.813C134.774 219.085 134.503 220.447 134.503 221.824C134.503 223.2 134.774 224.562 135.301 225.834C135.828 227.105 136.6 228.26 137.573 229.233L137.825 229.486C139.005 230.637 140.434 231.501 142.002 232.012C143.569 232.522 145.233 232.666 146.865 232.43C149.099 232.14 151.368 232.574 153.337 233.67C155.306 234.766 156.87 236.466 157.8 238.518C158.73 240.57 158.977 242.867 158.503 245.07C158.029 247.273 156.86 249.265 155.169 250.754Z" fill="#6B1FFF"/>
<path d="M402.115 198.707V207.12H439.628V215.743H402.115V223.946H443.835V232.359H389.495V190.294H443.835V198.707H402.115Z" fill="#6B1FFF"/>
<path d="M280.078 190.294H263.05L239.531 232.359H252.151L258.406 221.174H284.73L290.985 232.359H303.605L280.078 190.294ZM263.025 212.912L271.564 197.655L280.103 212.912H263.025Z" fill="#6B1FFF"/>
<path d="M202.891 198.707V207.12H240.405V215.743H202.891V232.359H190.271V190.294H244.611V198.707H202.891Z" fill="#6B1FFF"/>
<path d="M383.187 190.294V232.359H370.567V197.1L352.938 232.359H338.854L321.225 197.1V232.359H308.605V190.294H329.18L345.896 223.727L362.613 190.294H383.187Z" fill="#6B1FFF"/>
<path d="M199.282 254.864V249.968H192.892V254.864H190.271V243.17H192.892V247.713H199.282V243.17H201.902V254.864H199.282Z" fill="#6B1FFF"/>
<path d="M212.659 254.864V250.195L207.717 243.17H210.661L214.027 248.083L217.417 243.17H220.248L215.28 250.195V254.864H212.659Z" fill="#6B1FFF"/>
<path d="M226.04 254.864V243.17H231.727C235.003 243.17 236.64 244.453 236.64 247.019C236.64 248.328 236.22 249.303 235.379 249.942C234.537 250.582 233.254 250.901 231.53 250.901H228.631V254.864H226.04ZM231.509 248.853C232.178 248.904 232.846 248.747 233.422 248.403C233.63 248.237 233.794 248.022 233.9 247.778C234.005 247.534 234.049 247.267 234.028 247.002C234.05 246.745 234.007 246.486 233.905 246.249C233.802 246.012 233.642 245.804 233.439 245.643C232.863 245.314 232.2 245.167 231.538 245.223H228.623V248.857L231.509 248.853Z" fill="#6B1FFF"/>
<path d="M243.156 254.864V243.17H252.949V245.315H245.777V247.772H252.604V249.917H245.777V252.719H253.311L252.983 254.864H243.156Z" fill="#6B1FFF"/>
<path d="M268.492 254.864L265.934 250.489H262.514V254.864H259.99V243.17H265.736C269.003 243.17 270.637 244.387 270.637 246.821C270.661 247.517 270.468 248.204 270.086 248.786C269.661 249.355 269.075 249.783 268.403 250.014L271.348 254.864H268.492ZM265.547 248.474C266.207 248.522 266.867 248.384 267.453 248.075C267.657 247.937 267.822 247.748 267.93 247.526C268.038 247.305 268.085 247.059 268.067 246.813C268.091 246.57 268.05 246.325 267.947 246.103C267.845 245.881 267.686 245.691 267.486 245.551C266.896 245.257 266.238 245.128 265.581 245.176H262.518V248.466L265.547 248.474Z" fill="#6B1FFF"/>
<path d="M298.612 250.818C298.548 251.456 298.348 252.073 298.024 252.627C297.701 253.181 297.261 253.659 296.735 254.027C295.673 254.779 294.27 255.156 292.529 255.159C291.342 255.185 290.165 254.939 289.088 254.439C288.134 253.985 287.341 253.251 286.812 252.336C286.248 251.323 285.965 250.177 285.992 249.017C285.969 247.901 286.237 246.797 286.77 245.816C287.294 244.89 288.078 244.138 289.025 243.654C290.1 243.114 291.292 242.847 292.495 242.876C295.74 242.876 297.711 244.213 298.41 246.889L295.802 247.2C295.608 246.521 295.19 245.928 294.615 245.517C293.978 245.149 293.248 244.972 292.512 245.008C292.002 244.982 291.492 245.062 291.015 245.246C290.538 245.429 290.105 245.711 289.744 246.073C289.083 246.912 288.724 247.949 288.724 249.017C288.724 250.085 289.083 251.123 289.744 251.962C290.115 252.324 290.557 252.605 291.042 252.786C291.528 252.968 292.045 253.047 292.563 253.018C293.363 253.06 294.159 252.872 294.855 252.475C295.428 252.091 295.829 251.497 295.97 250.822L298.612 250.818Z" fill="#6B1FFF"/>
<path d="M318.21 249.017C318.235 250.148 317.956 251.265 317.402 252.252C316.85 253.183 316.035 253.929 315.059 254.397C313.927 254.896 312.704 255.158 311.467 255.166C310.23 255.174 309.004 254.928 307.866 254.443C306.889 253.99 306.068 253.258 305.506 252.34C304.923 251.341 304.632 250.198 304.665 249.042C304.639 247.911 304.918 246.794 305.472 245.807C306.024 244.876 306.839 244.129 307.815 243.662C308.948 243.165 310.17 242.906 311.406 242.9C312.643 242.895 313.867 243.142 315.004 243.628C315.98 244.084 316.8 244.815 317.364 245.732C317.943 246.728 318.236 247.865 318.21 249.017ZM315.492 249.017C315.525 248.479 315.448 247.941 315.265 247.434C315.082 246.928 314.797 246.464 314.428 246.072C313.58 245.392 312.526 245.021 311.439 245.021C310.352 245.021 309.298 245.392 308.451 246.072C307.763 246.899 307.386 247.941 307.386 249.017C307.386 250.092 307.763 251.134 308.451 251.961C309.298 252.642 310.352 253.013 311.439 253.013C312.526 253.013 313.58 252.642 314.428 251.961C314.796 251.569 315.081 251.105 315.264 250.599C315.447 250.092 315.524 249.554 315.492 249.017Z" fill="#6B1FFF"/>
<path d="M334.148 254.864L327.384 246.691V254.864H324.86V243.17H327.25L334.014 251.343V243.17H336.538V254.864H334.148Z" fill="#6B1FFF"/>
<path d="M353.191 254.864L346.427 246.691V254.864H343.924V243.17H346.313L353.077 251.343V243.17H355.601V254.864H353.191Z" fill="#6B1FFF"/>
<path d="M362.971 254.864V243.17H372.763V245.315H365.587V247.772H372.419V249.917H365.587V252.719H373.121L372.797 254.864H362.971Z" fill="#6B1FFF"/>
<path d="M391.856 250.817C391.792 251.455 391.591 252.072 391.268 252.626C390.944 253.18 390.505 253.658 389.98 254.026C388.914 254.778 387.512 255.155 385.773 255.158C384.582 255.188 383.401 254.943 382.32 254.443C381.366 253.988 380.572 253.255 380.044 252.34C379.487 251.328 379.21 250.187 379.241 249.033C379.218 247.917 379.486 246.814 380.019 245.832C380.542 244.906 381.326 244.154 382.273 243.67C383.349 243.13 384.541 242.863 385.744 242.892C388.988 242.892 390.958 244.229 391.654 246.905L389.05 247.216C388.855 246.538 388.437 245.945 387.864 245.534C387.227 245.165 386.496 244.988 385.761 245.025C385.25 244.998 384.74 245.079 384.263 245.262C383.786 245.445 383.354 245.727 382.993 246.089C382.332 246.928 381.972 247.965 381.972 249.033C381.972 250.102 382.332 251.139 382.993 251.978C383.363 252.34 383.805 252.621 384.291 252.803C384.776 252.984 385.294 253.063 385.811 253.034C386.612 253.076 387.407 252.888 388.104 252.491C388.677 252.108 389.076 251.514 389.214 250.838L391.856 250.817Z" fill="#6B1FFF"/>
<path d="M401.519 254.864V245.349H396.934V243.17H408.712V245.349H404.127V254.864H401.519Z" fill="#6B1FFF"/>
<path d="M414.883 254.864V243.17H424.676V245.315H417.503V247.772H424.335V249.917H417.503V252.719H425.037L424.709 254.864H414.883Z" fill="#6B1FFF"/>
<path d="M431.717 254.864V243.17H436.958C439.202 243.17 440.908 243.669 442.077 244.667C443.247 245.666 443.833 247.116 443.836 249.017C443.836 250.885 443.216 252.326 441.976 253.341C440.737 254.356 438.977 254.864 436.697 254.864H431.717ZM436.811 252.685C438.241 252.685 439.319 252.374 440.046 251.751C440.772 251.129 441.135 250.212 441.135 249C441.135 246.566 439.771 245.349 437.042 245.349H434.321V252.685H436.811Z" fill="#6B1FFF"/>
<path opacity="0.5" d="M85.1303 85.1304H1V348.016H85.1303V85.1304Z" fill="#8D8D8D"/>
<path opacity="0.5" d="M549 85.1304H464.87V348.016H549V85.1304Z" fill="#8D8D8D"/>
<path opacity="0.5" d="M443.841 85.1303V1L189.94 1V85.1303L443.841 85.1303Z" fill="#8D8D8D"/>
<path opacity="0.5" d="M443.836 348.021V263.891H189.935V348.021H443.836Z" fill="#8D8D8D"/>
<path opacity="0.5" d="M231.094 232.359L254.612 190.294H263.025L239.507 232.359H231.094Z" fill="#8D8D8D"/>
<path opacity="0.5" d="M244.612 190.294H240.405V232.359H244.612V190.294Z" fill="#8D8D8D"/>
<path opacity="0.5" d="M389.495 190.294H383.186V232.359H389.495V190.294Z" fill="#8D8D8D"/>
<path opacity="0.5" d="M308.61 190.294H303.596V232.359H308.61V190.294Z" fill="#8D8D8D"/>
<path d="M3.32129 169.261H548.494" stroke="#8D8D8D" stroke-miterlimit="10"/>
<path d="M3.32129 85.1304H548.494" stroke="#8D8D8D" stroke-miterlimit="10"/>
<path d="M1 1L548.999 1" stroke="#8D8D8D" stroke-miterlimit="10"/>
<path d="M1 348.093L548.999 348.017" stroke="#8D8D8D" stroke-miterlimit="10"/>
<path d="M3.32129 263.887H548.494" stroke="#8D8D8D" stroke-miterlimit="10"/>
<path d="M3.32129 179.777H548.494" stroke="#8D8D8D" stroke-miterlimit="10"/>
<path d="M3.32129 190.294H548.494" stroke="#8D8D8D" stroke-miterlimit="10"/>
<path d="M3.32129 232.359H548.494" stroke="#8D8D8D" stroke-miterlimit="10"/>
<path d="M3.5791 242.875H548.752" stroke="#8D8D8D" stroke-miterlimit="10"/>
<path d="M3.42773 254.863H548.605" stroke="#8D8D8D" stroke-miterlimit="10"/>
<path d="M239.53 232.359L263.049 190.294" stroke="#8D8D8D" stroke-miterlimit="10"/>
<path d="M231.117 232.359L254.636 190.294" stroke="#8D8D8D" stroke-miterlimit="10"/>
<path d="M303.596 232.359L280.077 190.294" stroke="#8D8D8D" stroke-miterlimit="10"/>
<path d="M312.009 232.359L288.49 190.294" stroke="#8D8D8D" stroke-miterlimit="10"/>
<path d="M244.612 232.359V190.294" stroke="#8D8D8D" stroke-miterlimit="10"/>
<path d="M240.405 190.294V232.359" stroke="#8D8D8D" stroke-miterlimit="10"/>
<path d="M389.496 190.294V232.359" stroke="#8D8D8D" stroke-miterlimit="10"/>
<path d="M383.186 190.294V232.359" stroke="#8D8D8D" stroke-miterlimit="10"/>
<path d="M308.604 190.294V232.359" stroke="#8D8D8D" stroke-miterlimit="10"/>
<path d="M303.596 190.294V232.359" stroke="#8D8D8D" stroke-miterlimit="10"/>
<path d="M169.239 1V348.016" stroke="#8D8D8D" stroke-miterlimit="10"/>
<path d="M85.1299 1V348.016" stroke="#8D8D8D" stroke-miterlimit="10"/>
<path d="M1 1V348.016" stroke="#8D8D8D" stroke-miterlimit="10"/>
<path d="M179.756 1V348.016" stroke="#8D8D8D" stroke-miterlimit="10"/>
<path d="M190.271 1V348.016" stroke="#8D8D8D" stroke-miterlimit="10"/>
<path d="M274.991 1V348.016" stroke="#8D8D8D" stroke-miterlimit="10"/>
<path d="M359.122 1V348.016" stroke="#8D8D8D" stroke-miterlimit="10"/>
<path d="M443.836 1V348.016" stroke="#8D8D8D" stroke-miterlimit="10"/>
<path d="M454.354 1V348.016" stroke="#8D8D8D" stroke-miterlimit="10"/>
<path d="M464.87 1V348.016" stroke="#8D8D8D" stroke-miterlimit="10"/>
<path d="M549 1V348.016" stroke="#8D8D8D" stroke-miterlimit="10"/>
</svg>
