<svg width="26" height="208" viewBox="0 0 26 208" fill="none" xmlns="http://www.w3.org/2000/svg">
<path fill-rule="evenodd" clip-rule="evenodd" d="M7.465 1.066C8.638 1.012 9.012 1 12 1C14.988 1 15.362 1.013 16.534 1.066C17.706 1.119 18.506 1.306 19.206 1.577C19.939 1.854 20.604 2.287 21.154 2.847C21.714 3.396 22.146 4.06 22.422 4.794C22.694 5.494 22.88 6.294 22.934 7.464C22.988 8.639 23 9.013 23 12C23 14.988 22.987 15.362 22.934 16.535C22.881 17.705 22.694 18.505 22.422 19.205C22.146 19.9391 21.7133 20.6042 21.154 21.154C20.604 21.714 19.939 22.146 19.206 22.422C18.506 22.694 17.706 22.88 16.536 22.934C15.362 22.988 14.988 23 12 23C9.012 23 8.638 22.987 7.465 22.934C6.295 22.881 5.495 22.694 4.795 22.422C4.06092 22.146 3.39582 21.7133 2.846 21.154C2.28638 20.6047 1.85331 19.9399 1.577 19.206C1.306 18.506 1.12 17.706 1.066 16.536C1.012 15.361 1 14.987 1 12C1 9.012 1.013 8.638 1.066 7.466C1.119 6.294 1.306 5.494 1.577 4.794C1.85372 4.06008 2.28712 3.39531 2.847 2.846C3.39604 2.2865 4.06047 1.85344 4.794 1.577C5.494 1.306 6.294 1.12 7.464 1.066H7.465ZM16.445 3.046C15.285 2.993 14.937 2.982 12 2.982C9.063 2.982 8.715 2.993 7.555 3.046C6.482 3.095 5.9 3.274 5.512 3.425C4.999 3.625 4.632 3.862 4.247 4.247C3.88205 4.60205 3.60118 5.03428 3.425 5.512C3.274 5.9 3.095 6.482 3.046 7.555C2.993 8.715 2.982 9.063 2.982 12C2.982 14.937 2.993 15.285 3.046 16.445C3.095 17.518 3.274 18.1 3.425 18.488C3.601 18.965 3.882 19.398 4.247 19.753C4.602 20.118 5.035 20.399 5.512 20.575C5.9 20.726 6.482 20.905 7.555 20.954C8.715 21.007 9.062 21.018 12 21.018C14.938 21.018 15.285 21.007 16.445 20.954C17.518 20.905 18.1 20.726 18.488 20.575C19.001 20.375 19.368 20.138 19.753 19.753C20.118 19.398 20.399 18.965 20.575 18.488C20.726 18.1 20.905 17.518 20.954 16.445C21.007 15.285 21.018 14.937 21.018 12C21.018 9.063 21.007 8.715 20.954 7.555C20.905 6.482 20.726 5.9 20.575 5.512C20.375 4.999 20.138 4.632 19.753 4.247C19.3979 3.88207 18.9657 3.60121 18.488 3.425C18.1 3.274 17.518 3.095 16.445 3.046ZM10.595 15.391C11.3797 15.7176 12.2534 15.7617 13.0669 15.5157C13.8805 15.2697 14.5834 14.7489 15.0556 14.0422C15.5278 13.3356 15.7401 12.4869 15.656 11.6411C15.572 10.7953 15.197 10.005 14.595 9.405C14.2112 9.02148 13.7472 8.72781 13.2363 8.54515C12.7255 8.36248 12.1804 8.29536 11.6405 8.34862C11.1006 8.40187 10.5792 8.57418 10.1138 8.85313C9.64845 9.13208 9.25074 9.51074 8.9493 9.96185C8.64786 10.413 8.45019 10.9253 8.37052 11.462C8.29084 11.9986 8.33115 12.5463 8.48854 13.0655C8.64593 13.5847 8.91648 14.0626 9.28072 14.4647C9.64496 14.8668 10.0938 15.1832 10.595 15.391ZM8.002 8.002C8.52702 7.47697 9.15032 7.0605 9.8363 6.77636C10.5223 6.49222 11.2575 6.34597 12 6.34597C12.7425 6.34597 13.4777 6.49222 14.1637 6.77636C14.8497 7.0605 15.473 7.47697 15.998 8.002C16.523 8.52702 16.9395 9.15032 17.2236 9.8363C17.5078 10.5223 17.654 11.2575 17.654 12C17.654 12.7425 17.5078 13.4777 17.2236 14.1637C16.9395 14.8497 16.523 15.473 15.998 15.998C14.9377 17.0583 13.4995 17.654 12 17.654C10.5005 17.654 9.06234 17.0583 8.002 15.998C6.94166 14.9377 6.34597 13.4995 6.34597 12C6.34597 10.5005 6.94166 9.06234 8.002 8.002ZM18.908 7.188C19.0381 7.06527 19.1423 6.91768 19.2143 6.75397C19.2863 6.59027 19.3248 6.41377 19.3274 6.23493C19.33 6.05609 19.2967 5.87855 19.2295 5.71281C19.1622 5.54707 19.0624 5.39651 18.936 5.27004C18.8095 5.14357 18.6589 5.04376 18.4932 4.97652C18.3275 4.90928 18.1499 4.87598 17.9711 4.87858C17.7922 4.88119 17.6157 4.91965 17.452 4.9917C17.2883 5.06374 17.1407 5.1679 17.018 5.298C16.7793 5.55103 16.6486 5.88712 16.6537 6.23493C16.6588 6.58274 16.7992 6.91488 17.0452 7.16084C17.2911 7.40681 17.6233 7.54723 17.9711 7.5523C18.3189 7.55737 18.655 7.42669 18.908 7.188Z" fill="#C4C4C4"/>
<g clip-path="url(#clip0_63_660)">
<path d="M21.317 49.492C19.787 48.802 18.147 48.292 16.432 48.002C16.4167 47.999 16.4009 48.0009 16.3868 48.0074C16.3726 48.0138 16.3608 48.0245 16.353 48.038C16.143 48.407 15.909 48.888 15.745 49.268C13.9261 48.9962 12.0769 48.9962 10.258 49.268C10.0753 48.8468 9.86934 48.4362 9.64099 48.038C9.63325 48.0244 9.62154 48.0134 9.60743 48.0066C9.59331 47.9998 9.57746 47.9975 9.56199 48C7.84799 48.29 6.20799 48.8 4.67699 49.491C4.66382 49.4965 4.65265 49.5059 4.64499 49.518C1.53299 54.093 0.679992 58.555 1.09899 62.961C1.10016 62.9718 1.10351 62.9822 1.10884 62.9917C1.11417 63.0011 1.12136 63.0094 1.12999 63.016C2.94638 64.3384 4.97233 65.3458 7.12299 65.996C7.13798 66.0006 7.15402 66.0006 7.16901 65.9959C7.18399 65.9913 7.19723 65.9823 7.20699 65.97C7.66979 65.351 8.07989 64.6944 8.43299 64.007C8.43789 63.9976 8.44072 63.9872 8.44127 63.9766C8.44183 63.9661 8.44011 63.9555 8.43622 63.9456C8.43233 63.9358 8.42637 63.9268 8.41874 63.9195C8.41111 63.9121 8.40199 63.9065 8.39199 63.903C7.746 63.6597 7.12008 63.3661 6.51999 63.025C6.50921 63.0188 6.50012 63.0101 6.49355 62.9995C6.48698 62.989 6.48312 62.977 6.48233 62.9646C6.48153 62.9522 6.48383 62.9398 6.48901 62.9286C6.49418 62.9173 6.50208 62.9075 6.51199 62.9C6.63799 62.807 6.76399 62.71 6.88399 62.613C6.89479 62.6043 6.9078 62.5987 6.92158 62.5969C6.93535 62.5952 6.94934 62.5973 6.96199 62.603C10.889 64.367 15.142 64.367 19.023 62.603C19.0357 62.5969 19.0498 62.5946 19.0638 62.5961C19.0778 62.5977 19.091 62.6032 19.102 62.612C19.222 62.71 19.347 62.807 19.474 62.9C19.484 62.9073 19.492 62.917 19.4974 62.9282C19.5027 62.9394 19.5052 62.9517 19.5046 62.9641C19.504 62.9765 19.5004 62.9885 19.494 62.9991C19.4876 63.0098 19.4787 63.0186 19.468 63.025C18.87 63.369 18.248 63.66 17.595 63.902C17.585 63.9056 17.5758 63.9114 17.5682 63.9188C17.5606 63.9263 17.5546 63.9353 17.5507 63.9452C17.5468 63.9551 17.5451 63.9658 17.5457 63.9764C17.5463 63.9871 17.5491 63.9975 17.554 64.007C17.914 64.694 18.326 65.348 18.779 65.969C18.7884 65.9817 18.8015 65.9912 18.8166 65.9963C18.8316 66.0013 18.8478 66.0015 18.863 65.997C21.0173 65.3486 23.0466 64.3407 24.865 63.016C24.8739 63.0098 24.8813 63.0017 24.8868 62.9924C24.8923 62.9831 24.8958 62.9727 24.897 62.962C25.397 57.868 24.059 53.442 21.348 49.52C21.3413 49.5072 21.3303 49.4973 21.317 49.492ZM9.01999 60.278C7.83799 60.278 6.86299 59.209 6.86299 57.898C6.86299 56.586 7.81899 55.518 9.01999 55.518C10.23 55.518 11.196 56.595 11.177 57.898C11.177 59.21 10.221 60.278 9.01999 60.278ZM16.995 60.278C15.812 60.278 14.838 59.209 14.838 57.898C14.838 56.586 15.793 55.518 16.995 55.518C18.205 55.518 19.171 56.595 19.152 57.898C19.152 59.21 18.206 60.278 16.995 60.278Z" fill="#C4C4C4"/>
</g>
<path d="M24.643 95.9371C23.808 96.3071 22.911 96.5571 21.968 96.6701C22.941 96.0879 23.669 95.1715 24.016 94.0921C23.1019 94.6351 22.1014 95.0173 21.058 95.2221C20.3564 94.4729 19.4271 93.9764 18.4143 93.8096C17.4016 93.6427 16.3621 93.8149 15.4572 94.2993C14.5524 94.7838 13.8328 95.5534 13.4102 96.4888C12.9875 97.4241 12.8855 98.4728 13.12 99.4721C11.2677 99.3791 9.45564 98.8976 7.80144 98.059C6.14723 97.2203 4.68785 96.0432 3.51801 94.6041C3.11801 95.2941 2.88801 96.0941 2.88801 96.9461C2.88757 97.7131 3.07644 98.4683 3.43789 99.1448C3.79934 99.8213 4.32217 100.398 4.96001 100.824C4.22029 100.801 3.49688 100.601 2.85001 100.241V100.301C2.84994 101.377 3.22204 102.419 3.90319 103.252C4.58434 104.085 5.53258 104.656 6.58701 104.869C5.9008 105.055 5.18135 105.082 4.48301 104.949C4.78051 105.875 5.36001 106.684 6.14038 107.264C6.92075 107.844 7.86293 108.165 8.83501 108.183C7.18484 109.478 5.1469 110.181 3.04901 110.178C2.67739 110.178 2.30609 110.156 1.93701 110.113C4.06649 111.482 6.54535 112.209 9.07701 112.206C17.647 112.206 22.332 105.108 22.332 98.9521C22.332 98.7521 22.327 98.5501 22.318 98.3501C23.2293 97.6911 24.0159 96.875 24.641 95.9401L24.643 95.9371Z" fill="#C4C4C4"/>
<path d="M21.6651 140.717L3.93509 147.554C2.72509 148.04 2.73209 148.715 3.71309 149.016L8.26509 150.436L18.7971 143.791C19.2951 143.488 19.7501 143.651 19.3761 143.983L10.8431 151.684H10.8411L10.8431 151.685L10.5291 156.377C10.9891 156.377 11.1921 156.166 11.4501 155.917L13.6611 153.767L18.2601 157.164C19.1081 157.631 19.7171 157.391 19.9281 156.379L22.9471 142.151C23.2561 140.912 22.4741 140.351 21.6651 140.717Z" fill="#C4C4C4"/>
<g clip-path="url(#clip1_63_660)">
<path d="M14.5375 195C14.5375 198.728 11.5075 201.75 7.768 201.75C6.8804 201.751 6.00125 201.578 5.18076 201.239C4.36026 200.9 3.61449 200.404 2.98603 199.777C2.35756 199.15 1.8587 198.405 1.51794 197.586C1.17718 196.766 1.00118 195.888 1 195C1 191.271 4.03 188.25 7.768 188.25C8.65573 188.249 9.53504 188.422 10.3557 188.761C11.1764 189.099 11.9223 189.596 12.5509 190.223C13.1796 190.85 13.6786 191.594 14.0194 192.414C14.3603 193.233 14.5363 194.112 14.5375 195ZM21.9625 195C21.9625 198.51 20.4475 201.354 18.5785 201.354C16.7095 201.354 15.1945 198.509 15.1945 195C15.1945 191.49 16.7095 188.646 18.5785 188.646C20.4475 188.646 21.9625 191.492 21.9625 195ZM25 195C25 198.144 24.4675 200.693 23.809 200.693C23.152 200.693 22.6195 198.143 22.6195 195C22.6195 191.856 23.152 189.308 23.8105 189.308C24.4675 189.308 25 191.856 25 195Z" fill="#C4C4C4"/>
</g>
<defs>
<clipPath id="clip0_63_660">
<rect width="24" height="24" fill="white" transform="translate(1 45)"/>
</clipPath>
<clipPath id="clip1_63_660">
<rect width="24" height="24" fill="white" transform="translate(1 183)"/>
</clipPath>
</defs>
</svg>
