<svg width="548" height="60" viewBox="0 0 548 60" fill="none" xmlns="http://www.w3.org/2000/svg">
<path fill-rule="evenodd" clip-rule="evenodd" d="M18.9579 2.665C21.8904 2.53 22.8254 2.5 30.2954 2.5C37.7654 2.5 38.7004 2.5325 41.6304 2.665C44.5604 2.7975 46.5604 3.265 48.3104 3.9425C50.1429 4.635 51.8054 5.7175 53.1804 7.1175C54.5804 8.49 55.6604 10.15 56.3504 11.985C57.0304 13.735 57.4954 15.735 57.6304 18.66C57.7654 21.5975 57.7954 22.5325 57.7954 30C57.7954 37.47 57.7629 38.405 57.6304 41.3375C57.4979 44.2625 57.0304 46.2625 56.3504 48.0125C55.6604 49.8477 54.5786 51.5105 53.1804 52.885C51.8054 54.285 50.1429 55.365 48.3104 56.055C46.5604 56.735 44.5604 57.2 41.6354 57.335C38.7004 57.47 37.7654 57.5 30.2954 57.5C22.8254 57.5 21.8904 57.4675 18.9579 57.335C16.0329 57.2025 14.0329 56.735 12.2829 56.055C10.4477 55.3649 8.78496 54.2831 7.41041 52.885C6.01136 51.5117 4.9287 49.8497 4.23791 48.015C3.56041 46.265 3.09541 44.265 2.96041 41.34C2.82541 38.4025 2.79541 37.4675 2.79541 30C2.79541 22.53 2.82791 21.595 2.96041 18.665C3.09291 15.735 3.56041 13.735 4.23791 11.985C4.92972 10.1502 6.01321 8.48828 7.41291 7.115C8.78551 5.71625 10.4466 4.63361 12.2804 3.9425C14.0304 3.265 16.0304 2.8 18.9554 2.665H18.9579ZM41.4079 7.615C38.5079 7.4825 37.6379 7.455 30.2954 7.455C22.9529 7.455 22.0829 7.4825 19.1829 7.615C16.5004 7.7375 15.0454 8.185 14.0754 8.5625C12.7929 9.0625 11.8754 9.655 10.9129 10.6175C10.0005 11.5051 9.29836 12.5857 8.85791 13.78C8.48041 14.75 8.03291 16.205 7.91041 18.8875C7.77791 21.7875 7.75041 22.6575 7.75041 30C7.75041 37.3425 7.77791 38.2125 7.91041 41.1125C8.03291 43.795 8.48041 45.25 8.85791 46.22C9.29791 47.4125 10.0004 48.495 10.9129 49.3825C11.8004 50.295 12.8829 50.9975 14.0754 51.4375C15.0454 51.815 16.5004 52.2625 19.1829 52.385C22.0829 52.5175 22.9504 52.545 30.2954 52.545C37.6404 52.545 38.5079 52.5175 41.4079 52.385C44.0904 52.2625 45.5454 51.815 46.5154 51.4375C47.7979 50.9375 48.7154 50.345 49.6779 49.3825C50.5904 48.495 51.2929 47.4125 51.7329 46.22C52.1104 45.25 52.5579 43.795 52.6804 41.1125C52.8129 38.2125 52.8404 37.3425 52.8404 30C52.8404 22.6575 52.8129 21.7875 52.6804 18.8875C52.5579 16.205 52.1104 14.75 51.7329 13.78C51.2329 12.4975 50.6404 11.58 49.6779 10.6175C48.7902 9.70518 47.7097 9.00303 46.5154 8.5625C45.5454 8.185 44.0904 7.7375 41.4079 7.615V7.615ZM26.7829 38.4775C28.7446 39.2941 30.9289 39.4043 32.9627 38.7893C34.9966 38.1743 36.7539 36.8723 37.9344 35.1056C39.115 33.3389 39.6455 31.2172 39.4355 29.1028C39.2255 26.9883 38.2879 25.0124 36.7829 23.5125C35.8235 22.5537 34.6634 21.8195 33.3862 21.3629C32.109 20.9062 30.7465 20.7384 29.3966 20.8715C28.0468 21.0047 26.7433 21.4354 25.5799 22.1328C24.4165 22.8302 23.4223 23.7769 22.6687 24.9046C21.9151 26.0324 21.4209 27.3132 21.2217 28.6549C21.0225 29.9966 21.1233 31.3657 21.5168 32.6638C21.9102 33.9619 22.5866 35.1565 23.4972 36.1618C24.4078 37.1671 25.53 37.958 26.7829 38.4775ZM20.3004 20.005C21.613 18.6924 23.1712 17.6513 24.8862 16.9409C26.6011 16.2306 28.4392 15.8649 30.2954 15.8649C32.1517 15.8649 33.9897 16.2305 35.7047 16.9409C37.4196 17.6513 38.9778 18.6924 40.2904 20.005C41.603 21.3176 42.6442 22.8758 43.3545 24.5907C44.0649 26.3057 44.4305 28.1438 44.4305 30C44.4305 31.8562 44.0649 33.6943 43.3545 35.4093C42.6442 37.1242 41.603 38.6824 40.2904 39.995C37.6396 42.6458 34.0443 44.1351 30.2954 44.1351C26.5466 44.1351 22.9512 42.6458 20.3004 39.995C17.6496 37.3442 16.1603 33.7489 16.1603 30C16.1603 26.2511 17.6496 22.6558 20.3004 20.005V20.005ZM47.5654 17.97C47.8907 17.6632 48.1511 17.2942 48.3312 16.8849C48.5113 16.4757 48.6074 16.0344 48.614 15.5873C48.6205 15.1402 48.5372 14.6964 48.3691 14.282C48.201 13.8677 47.9515 13.4913 47.6353 13.1751C47.3191 12.8589 46.9427 12.6094 46.5284 12.4413C46.114 12.2732 45.6702 12.1899 45.2231 12.1965C44.776 12.203 44.3347 12.2991 43.9255 12.4792C43.5162 12.6593 43.1472 12.9197 42.8404 13.245C42.2437 13.8776 41.917 14.7178 41.9297 15.5873C41.9423 16.4568 42.2934 17.2872 42.9083 17.9021C43.5232 18.517 44.3536 18.8681 45.2231 18.8807C46.0926 18.8934 46.9328 18.5667 47.5654 17.97V17.97Z" fill="#E9E9E9"/>
<g clip-path="url(#clip0_242_568)">
<path d="M172.838 11.23C169.013 9.505 164.913 8.23 160.625 7.505C160.587 7.49766 160.548 7.50239 160.512 7.51851C160.477 7.53464 160.447 7.56137 160.428 7.595C159.903 8.5175 159.318 9.72 158.908 10.67C154.361 9.99059 149.738 9.99059 145.19 10.67C144.734 9.61715 144.219 8.59056 143.648 7.595C143.629 7.56095 143.599 7.53362 143.564 7.51665C143.529 7.49967 143.489 7.49386 143.45 7.49999C139.165 8.22499 135.065 9.5 131.238 11.2275C131.205 11.2413 131.177 11.2649 131.158 11.295C123.378 22.7325 121.245 33.8875 122.293 44.9025C122.296 44.9295 122.304 44.9556 122.318 44.9792C122.331 45.0029 122.349 45.0235 122.37 45.04C126.911 48.3461 131.976 50.8645 137.353 52.49C137.39 52.5015 137.43 52.5015 137.468 52.4899C137.505 52.4783 137.538 52.4557 137.563 52.425C138.72 50.8777 139.745 49.2361 140.628 47.5175C140.64 47.494 140.647 47.4681 140.649 47.4417C140.65 47.4152 140.646 47.3888 140.636 47.3641C140.626 47.3395 140.611 47.3172 140.592 47.2988C140.573 47.2804 140.55 47.2663 140.525 47.2575C138.91 46.6493 137.346 45.9154 135.845 45.0625C135.818 45.0471 135.796 45.0253 135.779 44.9989C135.763 44.9726 135.753 44.9426 135.751 44.9116C135.749 44.8807 135.755 44.8497 135.768 44.8215C135.781 44.7933 135.801 44.7687 135.825 44.75C136.14 44.5175 136.455 44.275 136.755 44.0325C136.782 44.0107 136.815 43.9968 136.849 43.9924C136.884 43.988 136.919 43.9932 136.95 44.0075C146.768 48.4175 157.4 48.4175 167.103 44.0075C167.135 43.9924 167.17 43.9864 167.205 43.9904C167.24 43.9944 167.273 44.0081 167.3 44.03C167.6 44.275 167.913 44.5175 168.23 44.75C168.255 44.7683 168.275 44.7925 168.289 44.8205C168.302 44.8485 168.308 44.8793 168.307 44.9103C168.305 44.9412 168.296 44.9713 168.28 44.9979C168.264 45.0245 168.242 45.0467 168.215 45.0625C166.72 45.9225 165.165 46.65 163.533 47.255C163.508 47.2641 163.485 47.2784 163.466 47.2971C163.447 47.3157 163.432 47.3382 163.422 47.363C163.413 47.3879 163.408 47.4145 163.41 47.4411C163.411 47.4678 163.418 47.4938 163.43 47.5175C164.33 49.235 165.36 50.87 166.493 52.4225C166.516 52.4544 166.549 52.4782 166.587 52.4907C166.624 52.5032 166.665 52.5039 166.703 52.4925C172.089 50.8716 177.162 48.3519 181.708 45.04C181.73 45.0245 181.749 45.0044 181.762 44.9811C181.776 44.9579 181.785 44.9319 181.788 44.905C183.038 32.17 179.693 21.105 172.915 11.3C172.899 11.2681 172.871 11.2433 172.838 11.23ZM142.095 38.195C139.14 38.195 136.703 35.5225 136.703 32.245C136.703 28.965 139.093 26.295 142.095 26.295C145.12 26.295 147.535 28.9875 147.488 32.245C147.488 35.525 145.098 38.195 142.095 38.195V38.195ZM162.033 38.195C159.075 38.195 156.64 35.5225 156.64 32.245C156.64 28.965 159.028 26.295 162.033 26.295C165.058 26.295 167.473 28.9875 167.425 32.245C167.425 35.525 165.06 38.195 162.033 38.195V38.195Z" fill="#E9E9E9"/>
</g>
<path d="M302.903 12.3425C300.815 13.2675 298.573 13.8925 296.215 14.175C298.648 12.7195 300.468 10.4287 301.335 7.73001C299.05 9.08748 296.549 10.043 293.94 10.555C292.186 8.68217 289.863 7.44082 287.331 7.02369C284.799 6.60656 282.201 7.03699 279.939 8.24814C277.676 9.45929 275.877 11.3834 274.821 13.7218C273.764 16.0601 273.509 18.6819 274.095 21.18C269.465 20.9475 264.935 19.7439 260.799 17.6473C256.663 15.5507 253.015 12.6079 250.09 9.01001C249.09 10.735 248.515 12.735 248.515 14.865C248.514 16.7825 248.987 18.6706 249.89 20.3618C250.794 22.0531 252.101 23.4951 253.695 24.56C251.846 24.5012 250.038 24.0015 248.42 23.1025V23.2525C248.42 25.9419 249.351 28.5485 251.053 30.63C252.756 32.7115 255.127 34.1398 257.763 34.6725C256.047 35.1368 254.249 35.2052 252.503 34.8725C253.247 37.1865 254.695 39.2101 256.646 40.6598C258.597 42.1096 260.953 42.913 263.383 42.9575C259.258 46.196 254.163 47.9527 248.918 47.945C247.989 47.9453 247.061 47.891 246.138 47.7825C251.462 51.2054 257.659 53.0221 263.988 53.015C285.413 53.015 297.125 35.27 297.125 19.88C297.125 19.38 297.113 18.875 297.09 18.375C299.369 16.7274 301.335 14.6872 302.898 12.35L302.903 12.3425V12.3425Z" fill="#E9E9E9"/>
<path d="M417.208 9.29251L372.883 26.385C369.858 27.6 369.875 29.2875 372.328 30.04L383.708 33.59L410.038 16.9775C411.283 16.22 412.42 16.6275 411.485 17.4575L390.153 36.71H390.148L390.153 36.7125L389.368 48.4425C390.518 48.4425 391.025 47.915 391.67 47.2925L397.198 41.9175L408.695 50.41C410.815 51.5775 412.338 50.9775 412.865 48.4475L420.413 12.8775C421.185 9.78001 419.23 8.37751 417.208 9.29251V9.29251Z" fill="#E9E9E9"/>
<g clip-path="url(#clip1_242_568)">
<path d="M521.139 30C521.139 39.3187 513.564 46.875 504.215 46.875C501.996 46.8779 499.799 46.4438 497.747 45.5974C495.696 44.7509 493.832 43.5087 492.26 41.9417C490.689 40.3748 489.442 38.5136 488.59 36.4647C487.738 34.4157 487.298 32.219 487.295 30C487.295 20.6775 494.87 13.125 504.215 13.125C506.435 13.1215 508.633 13.5553 510.685 14.4015C512.736 15.2478 514.601 16.4899 516.173 18.0569C517.744 19.6239 518.992 21.4852 519.844 23.5344C520.696 25.5837 521.136 27.7807 521.139 30V30ZM539.702 30C539.702 38.775 535.914 45.885 531.242 45.885C526.569 45.885 522.782 38.7712 522.782 30C522.782 21.225 526.569 14.115 531.242 14.115C535.914 14.115 539.702 21.2287 539.702 30ZM547.295 30C547.295 37.86 545.964 44.2312 544.318 44.2312C542.675 44.2312 541.344 37.8562 541.344 30C541.344 22.14 542.675 15.7687 544.322 15.7687C545.964 15.7687 547.295 22.14 547.295 30Z" fill="#E9E9E9"/>
</g>
<defs>
<clipPath id="clip0_242_568">
<rect width="60" height="60" fill="white" transform="translate(122.045)"/>
</clipPath>
<clipPath id="clip1_242_568">
<rect width="60" height="60" fill="white" transform="translate(487.295)"/>
</clipPath>
</defs>
</svg>
