<svg width="24" height="22" viewBox="0 0 24 22" fill="none" xmlns="http://www.w3.org/2000/svg">
<path d="M7.95281 14.066C7.87281 14.229 7.87281 14.39 7.87281 14.552C7.95281 15.069 8.40081 15.449 8.92481 15.442H10.2188V20.218C10.2188 20.704 9.81481 21.108 9.32881 21.108H6.57681C6.34142 21.1056 6.11636 21.0109 5.95009 20.8443C5.78382 20.6777 5.68964 20.4524 5.68781 20.217V15.443H0.991814C0.263814 15.443 -0.222186 14.714 0.101814 14.066L7.06181 1.43899C7.15397 1.27271 7.28896 1.13413 7.45276 1.03764C7.61656 0.941147 7.8032 0.890259 7.99331 0.890259C8.18342 0.890259 8.37007 0.941147 8.53387 1.03764C8.69767 1.13413 8.83266 1.27271 8.92481 1.43899L11.8378 7.02399L7.95281 14.066ZM23.8978 14.066L16.9378 1.43899C16.8456 1.27295 16.7106 1.1346 16.5469 1.03828C16.3832 0.941954 16.1968 0.89116 16.0068 0.89116C15.8169 0.89116 15.6304 0.941954 15.4667 1.03828C15.303 1.1346 15.168 1.27295 15.0758 1.43899L12.0808 7.02499L15.9658 14.065C16.0468 14.229 16.0468 14.391 16.0468 14.552C15.9668 15.069 15.5178 15.449 14.9948 15.442H13.6988V20.218C13.7038 20.708 14.0988 21.105 14.5888 21.108H17.5028C17.7384 21.1059 17.9638 21.0115 18.1306 20.8451C18.2973 20.6787 18.3922 20.4536 18.3948 20.218V15.443H23.0068C23.7368 15.443 24.2208 14.714 23.8968 14.066H23.8978Z" fill="#3DD0B8"/>
</svg>
