<svg width="136" height="44" viewBox="0 0 136 44" fill="none" xmlns="http://www.w3.org/2000/svg">
<g clip-path="url(#clip0_336_2552)">
<path d="M57.8857 24.0571L63.1829 30.5714H59L54.2857 24.5886V30.5714H50.8571V13.4286H54.2857V23.5086L58.64 18.5714H63.0114L57.8857 24.0571V24.0571ZM44.1714 18.2286C43.4207 18.2399 42.6839 18.4329 42.0241 18.7911C41.3643 19.1494 40.8012 19.6622 40.3829 20.2857V18.5714H37.1429V30.5714H40.5714V24.9657C40.5264 24.5588 40.5656 24.147 40.6866 23.7559C40.8076 23.3649 41.0078 23.0029 41.2747 22.6925C41.5416 22.3822 41.8696 22.1301 42.2382 21.9519C42.6067 21.7738 43.008 21.6734 43.4171 21.6571C45.4057 21.6571 45.7143 23.6114 45.7143 24.9657V30.5714H49.1429V24.2114C49.1429 20.44 47.8914 18.2286 44.24 18.2286H44.1714V18.2286ZM74.8571 24.8457C74.8702 25.0969 74.8702 25.3487 74.8571 25.6H65.8571V25.72C66.0032 26.4349 66.3992 27.0743 66.9742 27.5235C67.5491 27.9728 68.2653 28.2025 68.9943 28.1714C69.5726 28.1965 70.15 28.1047 70.692 27.9015C71.234 27.6983 71.7294 27.3878 72.1486 26.9886L74.4286 28.7029C73.706 29.4404 72.8368 30.0181 71.8772 30.399C70.9175 30.7799 69.8887 30.9554 68.8571 30.9143C68.0027 30.9683 67.1467 30.8383 66.3469 30.5331C65.5471 30.228 64.822 29.7547 64.2208 29.1453C63.6196 28.5359 63.1561 27.8046 62.8617 27.0008C62.5673 26.1969 62.4488 25.3392 62.5143 24.4857C62.4968 23.6431 62.6529 22.8059 62.9731 22.0263C63.2933 21.2467 63.7707 20.5414 64.3754 19.9543C64.9801 19.3673 65.6993 18.9111 66.488 18.6142C67.2768 18.3173 68.1183 18.1861 68.96 18.2286C72.1829 18.2286 74.8571 20.5086 74.8571 24.8457ZM71.6686 23.3714C71.656 23.0318 71.5744 22.6984 71.4288 22.3914C71.2831 22.0844 71.0765 21.8103 70.8215 21.5857C70.5664 21.3612 70.2684 21.1909 69.9454 21.0853C69.6224 20.9797 69.2814 20.9409 68.9429 20.9714C67.4354 20.8084 66.0702 21.8703 65.8571 23.3714H71.6686ZM23.4286 13.4286H20V30.5714H30.2857V27.1431H23.4286V13.4286ZM85.1429 13.4286H88.5714V30.5714H85.3314V29.3714C84.92 29.8783 84.3956 30.2818 83.8003 30.5497C83.2049 30.8177 82.5552 30.9425 81.9029 30.9143C81.1061 30.8939 80.3219 30.7106 79.5984 30.376C78.875 30.0413 78.2276 29.5621 77.6962 28.9681C77.1647 28.374 76.7604 27.6775 76.508 26.9214C76.2556 26.1653 76.1606 25.3656 76.2286 24.5714C76.1477 23.7761 76.2332 22.9726 76.4797 22.2121C76.7262 21.4517 77.1283 20.7508 77.6604 20.1542C78.1925 19.5576 78.8429 19.0783 79.5704 18.7468C80.2978 18.4153 81.0863 18.2388 81.8857 18.2286C82.4811 18.2025 83.0757 18.2952 83.6349 18.5012C84.1941 18.7072 84.7068 19.0225 85.1429 19.4286V13.4286V13.4286ZM85.4 24.5714C85.4539 24.1755 85.4223 23.7727 85.3073 23.3901C85.1924 23.0075 84.9967 22.654 84.7335 22.3534C84.4703 22.0529 84.1457 21.8122 83.7816 21.6478C83.4176 21.4833 83.0224 21.3988 82.6229 21.4C80.9829 21.5191 79.7401 22.9294 79.8286 24.5714C79.7401 26.2133 80.9829 27.6239 82.6229 27.7429C83.0225 27.7441 83.4176 27.6596 83.7817 27.4951C84.1458 27.3307 84.4704 27.09 84.7336 26.7894C84.9968 26.4889 85.1924 26.1353 85.3074 25.7527C85.4224 25.3701 85.4539 24.9672 85.4 24.5714V24.5714ZM33.7143 13.0857C33.163 13.0935 32.6351 13.3102 32.2374 13.6921C31.8396 14.074 31.6016 14.5926 31.5714 15.1431C31.5714 16.3264 32.5308 17.2859 33.7143 17.2859C34.8978 17.2859 35.8569 16.3263 35.8569 15.1431C35.8266 14.5926 35.5886 14.0741 35.1909 13.6923C34.7932 13.3105 34.2654 13.0937 33.7141 13.0859L33.7143 13.0857ZM32 30.5714H35.4286V18.5714H32V30.5714ZM116 11.7143V32.2857C116 32.7404 115.819 33.1764 115.498 33.4979C115.176 33.8194 114.74 34 114.286 34H93.7143C93.2596 34 92.8236 33.8194 92.5021 33.4979C92.1806 33.1764 92 32.7404 92 32.2857V11.7143C92 11.2596 92.1806 10.8236 92.5021 10.5021C92.8236 10.1806 93.2596 10 93.7143 10H114.286C114.74 10 115.176 10.1806 115.498 10.5021C115.819 10.8236 116 11.2596 116 11.7143V11.7143ZM98.8571 18.5714H95.4286V30.5714H98.8571V18.5714ZM99.2857 15.1429C99.2857 13.9594 98.3262 13 97.1429 13C95.9594 13 95 13.9594 95 15.1429C95 16.3263 95.9594 17.2857 97.1429 17.2857C98.3262 17.2857 99.2857 16.3263 99.2857 15.1429V15.1429ZM112.571 24.2114C112.571 20.44 111.32 18.2286 107.669 18.2286C106.906 18.2287 106.156 18.4164 105.483 18.7751C104.81 19.1339 104.236 19.6526 103.811 20.2857V18.5714H100.571V30.5714H104V24.9657C103.955 24.5588 103.994 24.147 104.115 23.7559C104.236 23.3649 104.436 23.0029 104.703 22.6925C104.97 22.3822 105.298 22.1301 105.667 21.9519C106.035 21.7738 106.437 21.6734 106.846 21.6571C108.834 21.6571 109.143 23.6114 109.143 24.9657V30.5714H112.571V24.2114Z" fill="#0A66C2"/>
</g>
<rect x="0.5" y="0.5" width="135" height="43" rx="21.5" stroke="#0A66C2"/>
<defs>
<clipPath id="clip0_336_2552">
<rect width="96" height="24" fill="white" transform="translate(20 10)"/>
</clipPath>
</defs>
</svg>
