<svg width="228" height="154" viewBox="0 0 228 154" fill="none" xmlns="http://www.w3.org/2000/svg">
<path fill-rule="evenodd" clip-rule="evenodd" d="M114.549 25.5215C115.101 25.5087 115.652 25.448 116.195 25.3403C116.766 25.2296 117.328 25.0743 117.875 24.8759C118.446 24.6666 119 24.4141 119.532 24.1207C120.082 23.818 120.608 23.4721 121.103 23.0862L121.348 22.9012C121.913 22.4628 122.434 21.971 122.904 21.4325C123.336 20.9278 123.716 20.3799 124.037 19.7977C124.34 19.2525 124.58 18.675 124.754 18.076C124.918 17.5158 125.012 16.9375 125.033 16.3543C125.051 15.8086 125.141 15.2678 125.301 14.7459C125.468 14.1948 125.699 13.6652 125.989 13.1677C126.3 12.6283 126.665 12.1222 127.08 11.6574C127.531 11.1551 128.028 10.695 128.564 10.2831C129.042 9.91523 129.547 9.58332 130.074 9.29011C130.595 8.99963 131.136 8.74726 131.694 8.53499C132.245 8.32196 132.81 8.14662 133.385 8.01018C133.952 7.87577 134.527 7.78115 135.107 7.72701C135.719 7.66927 136.335 7.66043 136.949 7.70058C137.548 7.7368 138.142 7.8278 138.724 7.97242C139.289 8.1118 139.838 8.30918 140.362 8.56142C140.88 8.81096 141.365 9.12152 141.808 9.48645C142.484 10.0374 143.021 10.7398 143.375 11.5366C143.718 12.322 143.872 13.1767 143.825 14.0323C143.768 14.9628 143.52 15.8716 143.096 16.7017C142.61 17.6555 141.96 18.5158 141.174 19.2426C140.616 19.7694 140.006 20.2387 139.354 20.6434C138.713 21.0479 138.035 21.3929 137.331 21.6742C136.639 21.9499 135.925 22.1671 135.197 22.3236C134.494 22.4726 133.779 22.5597 133.06 22.5841H132.739H132.422H132.109L131.796 22.5614L131.46 22.5425H131.123H130.787H130.451C129.189 22.5869 127.941 22.8251 126.751 23.2486C126.156 23.4543 125.578 23.7068 125.022 24.0037C124.464 24.3054 123.933 24.6526 123.433 25.042L123.183 25.2346C122.204 25.987 121.359 26.8997 120.684 27.9341C120.067 28.8811 119.631 29.9349 119.4 31.0415C119.179 32.1008 119.188 33.1952 119.427 34.2507C119.684 35.347 120.202 36.365 120.937 37.2184L121.118 37.4411C121.5 37.8896 121.933 38.2914 122.409 38.638C122.902 38.9942 123.431 39.2968 123.988 39.5404C124.57 39.7927 125.176 39.9874 125.796 40.1218C126.452 40.2664 127.119 40.3511 127.79 40.3748H128.167H128.545H128.922L129.3 40.3484L129.64 40.3257H129.983H130.323H130.663C131.338 40.3486 132.009 40.4346 132.668 40.5824C134.01 40.874 135.282 41.4242 136.413 42.2022C137.003 42.6087 137.548 43.0756 138.04 43.5954C139.07 44.6765 139.844 45.9743 140.306 47.3937C140.765 48.8103 140.913 50.3094 140.74 51.7885C140.561 53.3353 140.057 54.8268 139.26 56.1644C138.007 58.2485 136.147 59.8994 133.929 60.8953C133.267 61.1898 132.579 61.4236 131.875 61.5938C131.184 61.7589 130.481 61.8613 129.772 61.8996C129.076 61.9369 128.379 61.9116 127.688 61.8241C127.057 61.7464 126.434 61.6124 125.826 61.4239C124.629 61.0619 123.506 60.4877 122.511 59.7286C122.017 59.3489 121.56 58.9242 121.145 58.46C120.229 57.44 119.529 56.245 119.088 54.9472C118.647 53.6493 118.473 52.2756 118.577 50.9088C118.639 50.041 118.807 49.1839 119.075 48.3564C119.322 47.5943 119.488 46.8085 119.57 46.0118C119.646 45.2654 119.635 44.5128 119.536 43.7691C119.442 43.0667 119.259 42.3791 118.992 41.7227C118.73 41.0852 118.379 40.4879 117.95 39.9481L117.769 39.7216C117.063 38.8321 116.158 38.1208 115.126 37.645C114.625 37.4139 114.101 37.2367 113.563 37.1164C113.018 36.9952 112.463 36.9269 111.906 36.9125C111.334 36.898 110.763 36.9359 110.199 37.0258C109.615 37.1193 109.041 37.262 108.481 37.4525C107.9 37.6581 107.337 37.9106 106.797 38.2076C106.232 38.5176 105.692 38.8711 105.181 39.2648L104.928 39.4649C104.329 39.9302 103.777 40.4524 103.278 41.0242C102.786 41.5889 102.347 42.1981 101.968 42.8441C101.21 44.1315 100.698 45.5488 100.458 47.0237C100.343 47.7368 100.16 48.4373 99.9104 49.1154C99.6467 49.8298 99.3181 50.5185 98.9288 51.1731C98.1111 52.5584 97.0404 53.7777 95.7724 54.7675C95.2376 55.1845 94.6679 55.5546 94.0696 55.8737C93.5157 56.1697 92.9355 56.4137 92.3365 56.6024C91.7823 56.7762 91.2117 56.8926 90.6337 56.9498C90.0949 57.006 89.5514 56.9997 89.014 56.9309C88.4676 56.8659 87.9328 56.7262 87.4244 56.5156C86.9321 56.314 86.4716 56.0418 86.0577 55.7076C85.6364 55.3728 85.2674 54.977 84.9628 54.5334C84.6382 54.067 84.3778 53.559 84.1888 53.0231C83.8739 52.1058 83.733 51.1378 83.7734 50.1688C83.8143 49.1493 84.0012 48.141 84.3285 47.1747C85.0275 45.1221 86.2371 43.281 87.8436 41.8246C88.3673 41.3458 88.9321 40.9137 89.5312 40.5334C90.0825 40.1807 90.6651 39.8799 91.2718 39.6348C91.8373 39.4059 92.4242 39.2339 93.0237 39.1213C93.5859 39.0144 94.1583 38.9701 94.7303 38.9891H94.9832L95.2325 39.0118L95.4779 39.0458L95.7233 39.0873L95.9876 39.1326L96.2594 39.1666L96.5313 39.193H96.8069C97.3423 39.2118 97.8783 39.1802 98.4077 39.0986C98.9647 39.0105 99.513 38.8741 100.046 38.6909C100.608 38.499 101.152 38.2603 101.674 37.9773C102.22 37.6828 102.74 37.3431 103.229 36.9616L103.482 36.7691C104.465 36.009 105.323 35.0994 106.023 34.0733C106.659 33.1528 107.135 32.1316 107.431 31.0528C107.698 30.0987 107.763 29.0998 107.624 28.1191C107.493 27.219 107.129 26.3689 106.567 25.6536L106.431 25.4837C106.16 25.1414 105.841 24.84 105.483 24.5889C105.134 24.3358 104.753 24.1289 104.351 23.9735C103.927 23.8127 103.488 23.6975 103.04 23.6299C102.566 23.5593 102.085 23.5328 101.606 23.5506H101.345L101.077 23.5695L100.813 23.5997L100.541 23.6375L100.299 23.6714L100.058 23.6979L99.8198 23.7168H99.5819C99.136 23.7335 98.6896 23.7056 98.2492 23.6337C97.8411 23.5698 97.4419 23.4583 97.0598 23.3014C96.7012 23.152 96.3636 22.9566 96.0555 22.72C95.7534 22.4859 95.4875 22.2086 95.2664 21.8969C94.8181 21.2451 94.5653 20.4788 94.5377 19.6882C94.5135 18.837 94.6651 17.9899 94.9832 17.2C95.3363 16.3074 95.8268 15.4756 96.4369 14.7346C97.4256 13.5394 98.6374 12.5482 100.005 11.816C100.409 11.6009 100.826 11.4118 101.255 11.2497C101.665 11.0969 102.085 10.9708 102.512 10.8721C102.92 10.7727 103.335 10.7033 103.754 10.6644C104.124 10.6276 104.496 10.6187 104.868 10.638C105.221 10.6574 105.572 10.7067 105.917 10.7853C106.247 10.8597 106.568 10.9672 106.876 11.1062C107.176 11.2406 107.459 11.4105 107.718 11.6121C108.117 11.9221 108.452 12.3068 108.704 12.7448C108.953 13.1722 109.121 13.642 109.198 14.1305C109.278 14.6535 109.278 15.1856 109.198 15.7087C109.111 16.2886 108.949 16.8546 108.715 17.3926C108.494 17.9104 108.33 18.4511 108.228 19.0048C108.129 19.5208 108.099 20.0477 108.138 20.5717C108.173 21.0737 108.284 21.5675 108.466 22.0366C108.646 22.5064 108.901 22.9439 109.221 23.3316L109.365 23.4978C109.657 23.842 109.994 24.1466 110.365 24.4039C110.748 24.6678 111.161 24.8846 111.596 25.0496C112.054 25.2257 112.53 25.3523 113.016 25.4271C113.531 25.5073 114.053 25.5414 114.575 25.5291L114.549 25.5215ZM145.029 0.104034L99.0873 5.5749C98.1964 5.69025 97.3267 5.93312 96.5048 6.29605C94.805 7.04009 93.3064 8.17763 92.1327 9.61482C91.5744 10.2975 91.1236 11.0614 90.7961 11.8802L73.9455 54.994C73.4828 56.1561 73.2013 57.3824 73.1111 58.6299C73.0304 59.7276 73.1585 60.8307 73.4886 61.8807C73.7855 62.8311 74.318 63.691 75.0366 64.3802C75.7766 65.0722 76.7035 65.5317 77.7022 65.7016L138.656 76.7C140.443 77.0303 142.281 76.9711 144.044 76.5264C145.727 76.1038 147.299 75.3209 148.65 74.2316C150.001 73.1423 151.1 71.7727 151.87 70.2173C152.657 68.6108 153.082 66.8518 153.116 65.0636L154.495 5.92226C154.516 4.96629 154.253 4.02549 153.739 3.21892C153.214 2.40781 152.502 1.73453 151.663 1.25559C150.728 0.71889 149.705 0.353225 148.642 0.175771C147.439 -0.0280675 146.213 -0.0547766 145.003 0.0964865L145.029 0.104034ZM190.144 103.333V110.884H223.815V118.625H190.144V125.987H227.591V133.538H178.817V95.782H227.591V103.333H190.144ZM65.3182 95.7782H80.6019L101.711 133.534H90.3846L84.7702 123.495H61.1499L55.5356 133.534H44.2087L65.3182 95.7782ZM72.9601 102.367L65.2956 116.08H80.6246L72.9601 102.367ZM11.3269 103.333V110.884H44.9978V118.625H11.3269V133.538H5.53069e-06V95.782H48.7735V103.333H11.3269ZM173.154 133.538V95.782H154.687L139.683 125.787L124.679 95.782H106.212V133.538H117.539V101.891L133.362 133.538H146.003L161.827 101.891V133.538H173.154ZM8.07605 153.734V149.339H2.34845V153.734H0V143.223H2.34845V147.281H8.07605V143.223H10.4283V153.719L8.07605 153.734ZM20.0939 149.543V153.734L22.4423 153.719V149.528L26.8824 143.223H24.3414L21.3172 147.633L18.2967 143.223H15.6537L20.0939 149.543ZM32.1003 153.734V143.223H37.2012C40.1411 143.223 41.6111 144.374 41.6111 146.677C41.6111 147.855 41.2335 148.728 40.4784 149.301C39.7233 149.875 38.5717 150.162 37.0237 150.162H34.4223V153.719L32.1003 153.734ZM37.0086 148.339C37.6094 148.386 38.2101 148.245 38.7265 147.935C38.913 147.785 39.0601 147.593 39.1548 147.374C39.2496 147.154 39.2892 146.915 39.2702 146.677C39.2903 146.446 39.2525 146.214 39.1602 146.001C39.068 145.788 38.9241 145.601 38.7416 145.458C38.2246 145.164 37.6314 145.033 37.0388 145.08H34.4223V148.342L37.0086 148.339ZM47.4633 143.223V153.734L56.2832 153.742L56.5777 151.816H49.8155V149.301H55.9434V147.376H49.8155V145.148H56.2529V143.223H47.4633ZM70.2039 153.734L67.9083 149.811H64.8387V153.734H62.5733V143.223H67.7308C70.6607 143.223 72.1257 144.315 72.1257 146.5C72.148 147.126 71.9752 147.743 71.6311 148.267C71.2487 148.777 70.7228 149.161 70.1208 149.369L72.7637 153.719L70.2039 153.734ZM67.5609 148.003C68.1552 148.04 68.748 147.909 69.2713 147.625C69.4552 147.502 69.6032 147.332 69.7001 147.133C69.7969 146.934 69.8392 146.713 69.8225 146.492C69.8448 146.274 69.8082 146.054 69.7166 145.855C69.625 145.656 69.4816 145.485 69.3015 145.36C68.773 145.093 68.1816 144.975 67.5911 145.02H64.8425V147.976L67.5609 148.003ZM96.6918 151.727C96.9817 151.229 97.1613 150.675 97.2184 150.102L94.8398 150.128C94.7134 150.736 94.3543 151.27 93.8392 151.616C93.2133 151.97 92.4995 152.137 91.7815 152.099C91.3172 152.125 90.8524 152.055 90.4169 151.892C89.9814 151.729 89.5846 151.476 89.2519 151.151C88.6584 150.398 88.3357 149.467 88.3357 148.509C88.3357 147.55 88.6584 146.619 89.2519 145.866C89.578 145.536 89.9704 145.278 90.4032 145.111C90.836 144.944 91.2993 144.87 91.7627 144.895C92.4228 144.862 93.0784 145.021 93.6505 145.352C94.1663 145.721 94.5427 146.253 94.7189 146.862L97.0561 146.583C96.4268 144.182 94.6573 142.981 91.7475 142.981C90.6677 142.955 89.598 143.195 88.6327 143.68C87.7829 144.113 87.0802 144.788 86.6127 145.62C86.1326 146.5 85.8917 147.491 85.9142 148.493C85.8862 149.53 86.1338 150.555 86.6316 151.465C87.1071 152.287 87.8206 152.945 88.678 153.353C89.6432 153.801 90.6986 154.022 91.7627 153.998C93.3258 153.998 94.5843 153.661 95.5383 152.986C96.0086 152.654 96.4019 152.224 96.6918 151.727ZM114.832 148.486C114.854 149.502 114.602 150.504 114.103 151.389C113.608 152.225 112.876 152.895 112 153.315C110.984 153.761 109.887 153.993 108.777 153.998C107.667 154.004 106.568 153.781 105.547 153.345C104.672 152.936 103.936 152.28 103.429 151.457C102.939 150.558 102.679 149.552 102.674 148.527C102.669 147.503 102.918 146.494 103.399 145.59C103.894 144.754 104.626 144.084 105.502 143.664C106.519 143.219 107.615 142.986 108.725 142.981C109.835 142.976 110.934 143.198 111.955 143.634C112.831 144.041 113.568 144.698 114.073 145.522C114.597 146.42 114.86 147.446 114.832 148.486ZM112.389 148.486C112.418 148.004 112.348 147.52 112.184 147.066C112.02 146.611 111.764 146.195 111.434 145.843C110.673 145.232 109.727 144.899 108.751 144.899C107.776 144.899 106.829 145.232 106.068 145.843C105.451 146.585 105.113 147.52 105.113 148.486C105.113 149.451 105.451 150.386 106.068 151.129C106.829 151.739 107.776 152.072 108.751 152.072C109.727 152.072 110.673 151.739 111.434 151.129C111.765 150.777 112.02 150.361 112.185 149.906C112.349 149.452 112.418 148.968 112.389 148.486ZM123.063 146.398L129.134 153.734L131.278 153.719V143.223H129.013V150.559L122.942 143.223H120.797V153.734H123.063V146.398ZM146.226 153.734L140.159 146.398V153.734H137.893V143.223H140.038L146.109 150.559V143.223H148.374V153.719L146.226 153.734ZM155.004 143.223V153.734L163.843 153.742L164.137 151.816H157.375V149.301H163.503V147.376H157.375V145.148H163.794V143.223H155.004ZM180.931 150.102C180.874 150.675 180.695 151.229 180.405 151.727C180.115 152.224 179.722 152.654 179.251 152.986C178.292 153.661 177.034 153.998 175.476 153.998C174.41 154.022 173.354 153.801 172.387 153.353C171.531 152.945 170.819 152.286 170.345 151.465C169.847 150.555 169.599 149.53 169.627 148.493C169.605 147.492 169.845 146.501 170.322 145.62C170.792 144.789 171.496 144.114 172.346 143.68C173.311 143.195 174.381 142.955 175.461 142.981C178.373 142.981 180.142 144.182 180.769 146.583L178.432 146.862C178.256 146.253 177.879 145.721 177.364 145.352C176.791 145.021 176.136 144.862 175.476 144.895C175.018 144.872 174.56 144.945 174.132 145.11C173.704 145.274 173.316 145.527 172.991 145.85C172.398 146.604 172.075 147.535 172.075 148.493C172.075 149.452 172.398 150.383 172.991 151.136C173.324 151.461 173.721 151.713 174.156 151.877C174.592 152.04 175.057 152.11 175.521 152.084C176.239 152.122 176.953 151.954 177.579 151.601C178.093 151.253 178.451 150.72 178.579 150.113L180.931 150.102ZM189.604 145.194V153.734L191.949 153.719V145.178H196.06V143.223H185.489V145.194H189.604ZM201.599 153.734V143.223H210.389V145.148H203.97V147.376H210.072V149.301H203.94V151.816H210.702L210.408 153.742L201.599 153.734ZM216.709 143.223V153.734L221.164 153.719C223.216 153.719 224.797 153.263 225.907 152.352C227.017 151.441 227.572 150.147 227.572 148.471C227.569 146.769 227.043 145.469 225.993 144.571C224.944 143.672 223.412 143.223 221.399 143.223H216.709ZM224.185 150.94C223.547 151.499 222.565 151.778 221.281 151.778H219.046V145.194H221.489C223.938 145.196 225.163 146.288 225.163 148.471C225.163 149.558 224.823 150.381 224.185 150.94Z" fill="#E9E9E9"/>
</svg>
