<svg width="51" height="48" viewBox="0 0 51 48" fill="none" xmlns="http://www.w3.org/2000/svg">
<path d="M25.8785 15.9188C26.2244 15.9108 26.5689 15.873 26.9083 15.8057C27.265 15.7374 27.6157 15.6405 27.9569 15.5159C28.3126 15.3857 28.6577 15.2281 28.989 15.0446C29.3325 14.8557 29.6611 14.6406 29.9716 14.4013L30.1248 14.2835C30.4769 14.0105 30.8013 13.7034 31.0933 13.3668C31.364 13.0524 31.6009 12.7104 31.8002 12.3465C31.9888 12.0069 32.139 11.6473 32.2479 11.2743C32.3512 10.9242 32.4098 10.5624 32.4223 10.1975C32.4353 9.85695 32.4923 9.51953 32.5919 9.19365C32.696 8.84974 32.84 8.51916 33.0208 8.20866C33.2142 7.87149 33.4424 7.55557 33.7018 7.2661C33.9826 6.95143 34.2927 6.66422 34.6279 6.40836C34.9259 6.17823 35.241 5.97106 35.5704 5.78863C35.8958 5.60784 36.2337 5.45036 36.5813 5.31735C36.9254 5.18439 37.2781 5.07498 37.637 4.98983C37.9906 4.90557 38.3496 4.84651 38.7115 4.8131C39.0938 4.77705 39.4783 4.77152 39.8615 4.79659C40.2343 4.81902 40.6042 4.87581 40.9666 4.96624C41.3199 5.0536 41.6634 5.17679 41.9916 5.33386C42.3141 5.49014 42.6171 5.68391 42.8942 5.91116C43.3148 6.25621 43.6496 6.69423 43.8721 7.19071C44.0851 7.68107 44.1803 8.2145 44.1501 8.74829C44.1151 9.32876 43.9611 9.89581 43.6977 10.4143C43.393 11.0085 42.9871 11.5452 42.4983 12.0001C42.149 12.3278 41.7686 12.6206 41.3625 12.8744C40.9611 13.1268 40.5376 13.3422 40.0971 13.5177C39.6655 13.69 39.2201 13.8256 38.7657 13.9229C38.3268 14.0162 37.8805 14.0707 37.432 14.0856H37.2341H37.0432H36.8452C36.7816 14.0856 36.7157 14.0855 36.652 14.0714H36.4423H36.2302H36.0205H35.8108C35.4152 14.0844 35.0213 14.1285 34.6326 14.2034C34.2458 14.2769 33.8653 14.3801 33.4944 14.512C32.7484 14.7748 32.0492 15.155 31.4232 15.6384L31.27 15.7586C30.6583 16.2277 30.1308 16.7974 29.7101 17.4434C29.3241 18.0344 29.0516 18.692 28.9065 19.3828C28.7693 20.044 28.7749 20.7268 28.923 21.3857C29.0846 22.0696 29.4078 22.7047 29.8656 23.2378L29.9811 23.3768C30.2187 23.6573 30.4893 23.9081 30.7869 24.1238C31.0937 24.3457 31.4231 24.5344 31.7696 24.687C32.1339 24.8445 32.5127 24.9661 32.9006 25.0499C33.3097 25.1403 33.7262 25.1931 34.1448 25.2078H34.3805H34.6161H34.8517L35.0874 25.1913H35.2994H35.5115H35.7236H35.938C36.3584 25.2057 36.7765 25.2594 37.1869 25.3515C37.6012 25.4417 38.006 25.5711 38.3958 25.738C39.2056 26.0845 39.9361 26.5929 40.5425 27.2319C41.1831 27.9079 41.666 28.7175 41.9563 29.6025C42.2428 30.4866 42.3353 31.4222 42.2273 32.3453C42.1064 33.3032 41.7852 34.2249 41.2847 35.0505C40.5046 36.3526 39.3431 37.3833 37.9575 38.0031C37.5443 38.1869 37.1152 38.3328 36.6756 38.439C36.2448 38.5422 35.8055 38.6061 35.3631 38.6299C34.9297 38.6532 34.4952 38.6374 34.0647 38.5827C33.2799 38.4875 32.5182 38.2545 31.8143 37.8947C31.4696 37.7181 31.1415 37.5106 30.8341 37.2749C30.5226 37.0323 30.2346 36.7609 29.974 36.4643C29.5747 36.0193 29.24 35.5204 28.9796 34.9822C28.7338 34.4759 28.5585 33.9384 28.4588 33.3845C28.3604 32.8461 28.3311 32.2973 28.3716 31.7515C28.4099 31.21 28.5136 30.6752 28.6803 30.1586C28.8352 29.6833 28.9387 29.1927 28.989 28.6953C29.0363 28.2295 29.0292 27.7597 28.9678 27.2956C28.9114 26.8568 28.7973 26.4273 28.6285 26.0184C28.4646 25.6211 28.2465 25.2484 27.9805 24.9109L27.8673 24.7695C27.4265 24.2143 26.8615 23.7704 26.2179 23.4735C25.9046 23.3289 25.5768 23.2183 25.24 23.1436C24.9001 23.0676 24.5536 23.025 24.2055 23.0163C23.8491 23.0073 23.4925 23.031 23.1404 23.087C22.777 23.1457 22.4191 23.2347 22.0706 23.3533C21.7079 23.4812 21.3564 23.6388 21.0196 23.8246C20.6666 24.0176 20.3293 24.2382 20.0111 24.4844L19.8532 24.6092C19.4781 24.899 19.1324 25.225 18.8211 25.5824C18.5139 25.9349 18.2402 26.3151 18.0034 26.7182C17.7685 27.1197 17.5705 27.5416 17.412 27.9789C17.2536 28.4161 17.1376 28.8674 17.0656 29.3268C16.9941 29.7722 16.8789 30.2095 16.7215 30.6322C16.5578 31.0781 16.3535 31.5079 16.1112 31.9165C15.5988 32.7795 14.9309 33.5401 14.1413 34.1598C13.8072 34.4195 13.4517 34.6505 13.0785 34.8502C12.7327 35.0345 12.3706 35.1868 11.997 35.305C11.6503 35.4135 11.2934 35.4861 10.9319 35.5218C10.5967 35.5596 10.2584 35.5596 9.92331 35.5218C9.58243 35.4793 9.24879 35.3913 8.93127 35.2602C8.62323 35.1344 8.33509 34.9646 8.07589 34.7559C7.81413 34.5457 7.58398 34.2989 7.39253 34.0231C7.18994 33.732 7.02746 33.415 6.90947 33.0805C6.71371 32.5079 6.62661 31.9037 6.65263 31.2991C6.67698 30.6627 6.79365 30.0333 6.99901 29.4305C7.21136 28.8008 7.50274 28.2006 7.86617 27.6443C8.2396 27.0723 8.68464 26.5505 9.19047 26.0914C9.51737 25.7926 9.86983 25.5229 10.2438 25.2856C10.5883 25.065 10.9528 24.8772 11.3324 24.7247C11.6846 24.5819 12.05 24.4746 12.4235 24.4042C12.7744 24.3376 13.1316 24.31 13.4886 24.3218H13.6464L13.802 24.3359L13.9575 24.3571L14.1106 24.383L14.2756 24.4113L14.4429 24.4325L14.6126 24.449H14.7846C15.1187 24.4609 15.4533 24.4411 15.7837 24.3901C16.1321 24.3351 16.4751 24.25 16.8087 24.1356C17.1584 24.0158 17.4973 23.8668 17.822 23.6903C18.1635 23.5065 18.4891 23.2945 18.7952 23.0564L18.9507 22.9362C19.5648 22.4619 20.1008 21.8942 20.5389 21.2537C20.9349 20.6787 21.2319 20.0415 21.4179 19.3686C21.5841 18.7731 21.6243 18.1496 21.5357 17.5377C21.4551 16.9756 21.2275 16.4448 20.8759 15.999L20.7911 15.8929C20.6222 15.6798 20.4238 15.4917 20.202 15.3344C19.9838 15.1766 19.7462 15.0475 19.495 14.9503C19.2309 14.8499 18.9568 14.7781 18.6774 14.7359C18.3817 14.693 18.0829 14.6764 17.7843 14.6864H17.6193L17.4544 14.6982L17.2871 14.7171L17.1198 14.7406L16.9666 14.7618L16.8182 14.7783H16.6674H16.5212C16.243 14.7885 15.9645 14.7719 15.6894 14.7288C15.4348 14.6875 15.1858 14.6171 14.9472 14.5191C14.7226 14.4259 14.5111 14.3039 14.318 14.1562C14.1308 14.0095 13.9657 13.8365 13.8279 13.6425C13.5464 13.2366 13.3885 12.7578 13.3731 12.2641C13.3571 11.733 13.4509 11.2043 13.6488 10.7112C13.87 10.154 14.1769 9.63488 14.5584 9.17245C14.9824 8.65477 15.4765 8.19874 16.0264 7.81752C16.2675 7.64336 16.5202 7.48589 16.7828 7.34624C17.035 7.21126 17.2955 7.09241 17.5628 6.99042C17.8197 6.89478 18.0826 6.81607 18.3498 6.75478C18.6047 6.69272 18.8639 6.64939 19.1251 6.62516C19.36 6.60151 19.5963 6.59601 19.832 6.60868C20.0518 6.62062 20.2702 6.65134 20.4847 6.70055C20.6907 6.74629 20.8913 6.81344 21.0833 6.90087C21.2704 6.98479 21.4468 7.09079 21.6087 7.21662C21.859 7.40936 22.0688 7.64959 22.2261 7.92354C22.3808 8.19038 22.4847 8.48362 22.5324 8.78836C22.5832 9.11472 22.5832 9.44695 22.5324 9.77332C22.4757 10.1347 22.3744 10.4877 22.2308 10.8243C22.0923 11.1475 21.9895 11.4849 21.9245 11.8305C21.864 12.1527 21.845 12.4813 21.8679 12.8084C21.8897 13.1217 21.9588 13.43 22.0729 13.7227C22.1851 14.0159 22.3443 14.2889 22.5442 14.5309L22.6338 14.6346C22.8164 14.8495 23.0263 15.0396 23.2582 15.2001C23.498 15.3649 23.7567 15.5002 24.0288 15.6031C24.3149 15.713 24.6119 15.792 24.9148 15.8387C25.2358 15.8888 25.5608 15.9101 25.8856 15.9023M44.8924 0.0343L16.2267 3.47465C15.6706 3.54664 15.1278 3.69822 14.6149 3.92473C14.0844 4.15606 13.5836 4.45036 13.1233 4.80131C12.664 5.14783 12.2485 5.54901 11.8862 5.99599C11.5371 6.42203 11.2551 6.89879 11.0497 7.40984L0.535392 34.3224C0.246599 35.0476 0.0709561 35.813 0.0146207 36.5916C-0.0357269 37.2767 0.044231 37.9651 0.250261 38.6205C0.437304 39.2128 0.769415 39.749 1.2164 40.1804C1.67884 40.6114 2.25702 40.898 2.88002 41.0051L40.9218 47.8694C42.0382 48.0755 43.186 48.0385 44.2868 47.7609C45.3404 47.4955 46.3237 47.0042 47.1687 46.3212C48.0101 45.6448 48.693 44.7922 49.1693 43.8234C49.6606 42.8209 49.9268 41.7231 49.9492 40.6069L50.807 3.69614C50.8214 3.09936 50.6573 2.51189 50.3357 2.00897C50.0085 1.50227 49.5639 1.08194 49.0397 0.783621C48.4564 0.448659 47.818 0.220443 47.1545 0.109692C46.403 -0.0175203 45.6369 -0.0341822 44.8806 0.060217" fill="black"/>
</svg>
